<?xml version="1.0" encoding="utf-8"?>
<!-- Generator: Adobe Illustrator 24.2.3, SVG Export Plug-In . SVG Version: 6.00 Build 0)  -->
<svg version="1.1"
fill="none"
	 id="svg3476" xmlns:cc="http://creativecommons.org/ns#" xmlns:dc="http://purl.org/dc/elements/1.1/" xmlns:inkscape="http://www.inkscape.org/namespaces/inkscape" xmlns:rdf="http://www.w3.org/1999/02/22-rdf-syntax-ns#" xmlns:sodipodi="http://sodipodi.sourceforge.net/DTD/sodipodi-0.dtd" xmlns:svg="http://www.w3.org/2000/svg"
	 xmlns="http://www.w3.org/2000/svg" xmlns:xlink="http://www.w3.org/1999/xlink" x="0px" y="0px" viewBox="0 0 290.2 409.6"
	 style="enable-background:new 0 0 290.2 409.6;" xml:space="preserve">
<sodipodi:namedview  bordercolor="#666666" borderopacity="1.0" fit-margin-bottom="0" fit-margin-left="0" fit-margin-right="0" fit-margin-top="0" id="base" inkscape:current-layer="layer1" inkscape:cx="181.367" inkscape:cy="256" inkscape:document-units="px" inkscape:pageopacity="0.0" inkscape:pageshadow="2" inkscape:window-height="704" inkscape:window-maximized="1" inkscape:window-width="1366" inkscape:window-x="0" inkscape:window-y="27" inkscape:zoom="0.35" pagecolor="#ffffff" showgrid="false">
	</sodipodi:namedview>
<g id="layer1" transform="translate(-193.633,-276.3622)" inkscape:groupmode="layer" inkscape:label="Calque 1">
	<g id="g3013" transform="translate(119,276.3622)">
		<polygon id="polygon2989" style="fill:#264DE4;" points="364.8,80.5 338.4,376.7 219.5,409.6 101,376.7 74.6,80.5 		"/>
		<polygon id="polygon2991" style="fill:#2965F1;" points="315.8,357.8 338.3,104.7 219.7,104.7 219.7,384.4 		"/>
		<polygon id="polygon2993" style="fill:#EBEBEB;" points="135.2,214.6 138.4,250.9 219.7,250.9 219.7,214.6 		"/>
		<polygon id="polygon2995" style="fill:#EBEBEB;" points="219.7,141 219.6,141 128.6,141 131.9,177.4 219.7,177.4 		"/>
		<polygon id="polygon2997" style="fill:#EBEBEB;" points="219.7,346.7 219.7,308.9 219.6,309 179.1,298 176.5,269.1 156.9,269.1 
			140.1,269.1 145.1,326.1 219.6,346.8 		"/>
		<path fill="black" id="path2999" inkscape:connector-curvature="0" d="M142.9,0h44v18.4h-25.6v18.4h25.6v18.4h-44V0z"/>
		<path fill="black" id="path3001" inkscape:connector-curvature="0" d="M195.7,0h44v16h-25.6v3.2h25.6V56h-44V39.2h25.6V36h-25.6V0z"/>
		<path fill="black" id="path3003" inkscape:connector-curvature="0" d="M248.5,0h44v16h-25.6v3.2h25.6V56h-44V39.2h25.6V36h-25.6V0z"/>
		<polygon id="polygon3005" style="fill:#FFFFFF;" points="264.3,250.9 260.1,298 219.6,309 219.6,346.7 294.1,326.1 294.6,320 
			303.2,224.3 304,214.6 310.6,141 219.6,141 219.6,177.4 270.8,177.4 267.5,214.6 219.6,214.6 219.6,250.9 		"/>
	</g>
</g>
</svg>
