<?xml version="1.0" encoding="utf-8"?>
<!-- Generator: Adobe Illustrator 24.2.3, SVG Export Plug-In . SVG Version: 6.00 Build 0)  -->
<svg version="1.1" id="Layer_1" xmlns="http://www.w3.org/2000/svg" xmlns:xlink="http://www.w3.org/1999/xlink" x="0px" y="0px"
	 viewBox="0 0 512 512" style="enable-background:new 0 0 512 512;" xml:space="preserve">
<style type="text/css">
	.st0{fill:#FFFFFF;}
	.st1{opacity:0.8;fill:#FFFFFF;enable-background:new    ;}
	.st2{opacity:0.2;}
</style>
<g>
	<g>
		<path class="st0" d="M119.4,20.3h21.3v21h19.5v-21h21.3V84h-21.3V62.7h-19.5V84h-21.3C119.4,84,119.4,20.3,119.4,20.3z"/>
		<path class="st0" d="M209.5,41.4h-18.8V20.3h58.8v21.1h-18.8V84h-21.3L209.5,41.4L209.5,41.4z"/>
		<path class="st0" d="M258.9,20.3h22.2l13.7,22.4l13.6-22.4h22.2V84h-21.2V52.5l-14.7,22.7h-0.4l-14.7-22.7V84h-20.8V20.3z"/>
		<path class="st0" d="M341.2,20.3h21.3V63h30V84h-51.3V20.3z"/>
	</g>
	<path class="st0" d="M200.7,266.7H256v-42.9h-59.2L200.7,266.7z M88.7,112l30.5,341.7l136.8,38l136.9-37.9L423.3,112
		C423.3,112,88.7,112,88.7,112z M366.7,432L256,462.7v-43.5l-0.1,0l-85.9-23.8l-6-67.3h42.1l3.1,34.9l46.7,12.6l0.1,0v-67h-93.7
		L151,181.8h105v-41.9h136.8L366.7,432z"/>
	<path class="st1" d="M307.6,308.6H256v67l46.7-12.6L307.6,308.6z M256,139.9v41.9h105l-3.8,41.9H256v42.9h97.4l-11.5,128.7
		L256,419.2v43.5L366.7,432l26.1-292.1L256,139.9L256,139.9z"/>
	<g class="st2">
		<polygon class="st0" points="256,181.8 151,181.8 162.3,308.6 256,308.6 256,266.7 200.7,266.7 196.8,223.8 256,223.8 		"/>
		<polygon class="st0" points="256,375.6 255.9,375.6 209.3,363 206.1,328.1 164.1,328.1 170.1,395.4 255.9,419.2 256,419.2 		"/>
	</g>
</g>
</svg>
