<?xml version="1.0" encoding="utf-8"?>
<!-- Generator: Adobe Illustrator 24.2.3, SVG Export Plug-In . SVG Version: 6.00 Build 0)  -->
<svg fill="none" version="1.1" id="Layer_1" xmlns="http://www.w3.org/2000/svg" xmlns:xlink="http://www.w3.org/1999/xlink" x="0px" y="0px"
	 viewBox="0 0 128 128" style="enable-background:new 0 0 128 128;" xml:space="preserve">
<path d="M64,0L64,0c35.3,0,64,28.7,64,64l0,0c0,35.3-28.7,64-64,64l0,0C28.7,128,0,99.3,0,64l0,0
	C0,28.7,28.7,0,64,0z"/>
<path style="fill-rule:evenodd;clip-rule:evenodd;fill:#FFFFFF;" d="M70.2,80.4v12.5c2,1,4.4,1.8,7.1,2.3S83,96,86,96
	c3,0,5.8-0.3,8.4-0.9c2.7-0.6,5-1.5,7-2.8c2-1.3,3.6-3,4.8-5.2c1.2-2.1,1.8-4.8,1.8-7.9c0-2.3-0.3-4.3-1-6s-1.6-3.2-2.9-4.6
	c-1.3-1.3-2.8-2.5-4.5-3.6c-1.8-1.1-3.8-2.1-6-3c-1.6-0.7-3.1-1.3-4.4-2s-2.4-1.3-3.3-2s-1.6-1.4-2.1-2.1c-0.5-0.7-0.7-1.6-0.7-2.5
	c0-0.9,0.2-1.6,0.7-2.3c0.4-0.7,1.1-1.3,1.9-1.8s1.8-0.9,2.9-1.2c1.2-0.3,2.4-0.4,3.9-0.4c1,0,2.1,0.1,3.3,0.2
	c1.1,0.2,2.3,0.4,3.5,0.7s2.3,0.7,3.4,1.2c1.1,0.5,2.1,1.1,3,1.7V40.2c-1.9-0.7-3.9-1.3-6.2-1.6c-2.2-0.4-4.8-0.5-7.7-0.5
	c-2.9,0-5.7,0.3-8.3,1s-4.9,1.6-6.9,3s-3.6,3.1-4.7,5.2S70,51.7,70,54.7c0,3.7,1.1,6.9,3.2,9.5c2.1,2.6,5.3,4.9,9.7,6.7
	c1.7,0.7,3.3,1.4,4.8,2.1c1.5,0.7,2.7,1.4,3.8,2.1s1.9,1.5,2.5,2.4s0.9,1.8,0.9,2.9c0,0.8-0.2,1.6-0.6,2.2c-0.4,0.7-1,1.3-1.8,1.8
	c-0.8,0.5-1.8,0.9-2.9,1.2s-2.5,0.4-4.1,0.4c-2.7,0-5.3-0.5-8-1.4C74.9,83.7,72.5,82.3,70.2,80.4z M48.9,49.3H65V39H20v10.3h16.1V95
	h12.8L48.9,49.3z"/>
</svg>
