<?xml version="1.0" encoding="utf-8"?>
<!-- Generator: Adobe Illustrator 24.2.3, SVG Export Plug-In . SVG Version: 6.00 Build 0)  -->
<svg version="1.1" id="Layer_1" xmlns="http://www.w3.org/2000/svg" xmlns:xlink="http://www.w3.org/1999/xlink" x="0px" y="0px"
	 viewBox="0 0 32 32" style="enable-background:new 0 0 32 32;" xml:space="preserve">
<style type="text/css">
	.st0{fill:none;}
</style>
<g>
	<path class="st0" d="M15,13.3c-0.7,0-1.4,0.1-2,0.2c-0.3,0.7-0.5,1-0.6,1.1c-0.1,0-0.4,0.1-1,0.3c-0.6,0.2-1,0.1-1.2-0.1
		c-0.2-0.2-0.5-0.6-0.7-1.2c-0.2-0.6-0.4-1-0.4-1.4c0-0.2,0.1-0.4,0.2-0.5c0.1-0.1,0.9-0.2,2.3-0.5S14.4,11,16,11c2,0,3.5,0.3,4.5,1
		c1,0.7,1.4,2,1.4,3.8v6.6c0,1.4,0.1,2.3,0.5,2.9c0.3,0.6,1,0.8,1.9,0.8c1.2,0,1.9-0.5,2.2-1.5s0.5-3.4,0.5-7c0-5.1-1-8.4-2.9-9.7
		c-1.9-1.4-4.7-2-8.3-2c-4,0-6.8,0.6-8.3,1.7s-2.3,3.5-2.3,7.1c0,1.8,0.2,3.5,0.5,4.9c-0.7,0.3-1.5,0.4-2.3,0.4
		c-0.6,0-1.1-0.2-1.4-0.6c-0.3-0.4-0.4-1.5-0.4-3.1C1.6,12.2,2.7,9,5,6.8c2.2-2.1,6.3-3.2,12.2-3.2c4.7,0,8.1,0.7,10.1,2.2
		s3.1,5,3.1,10.5c0,4-0.6,7-1.7,8.9c-1.1,1.9-3,2.9-5.6,2.9c-0.8,0-1.5-0.1-2.1-0.2c-0.6-0.1-1.3-0.6-2.2-1.4c-1,0.6-2,1-3,1.3
		c-1,0.3-2,0.4-3,0.4c-1.6,0-2.7-0.4-3.5-1.1c-0.8-0.7-1.1-1.8-1.1-3.2c0-1.7,0.6-3.1,1.9-4c1.2-0.9,3.2-1.4,5.8-1.4h2.5
		c-0.1-2-0.4-3.4-0.9-4.2C17.1,13.7,16.2,13.3,15,13.3z M18.5,20.9c-1-0.2-2-0.3-3-0.3c-1.3,0-2.2,0.2-2.7,0.6
		c-0.5,0.4-0.8,1.1-0.8,2.1c0,0.9,0.2,1.6,0.7,2.1c0.5,0.5,1.2,0.7,2.2,0.7c0.7,0,1.4-0.1,2.1-0.4c0.7-0.3,1.1-0.7,1.3-1.2
		c0.2-0.5,0.3-1.4,0.3-2.5V20.9z"/>
</g>
</svg>
