<svg xmlns="http://www.w3.org/2000/svg" viewBox="0 0 32 31.87"><defs><style>.cls-1{fill:none;}</style></defs><g id="Layer_2" data-name="Layer 2"><g id="Layer_1-2" data-name="Layer 1"><path class="cls-1" d="M17.67,13.46c0-.82,0-1.64,0-2.45,0-.32-.07-.43-.41-.43-1.84,0-3.67,0-5.51,0-.32,0-.43.07-.43.41q0,10.25,0,20.48c0,.3.07.4.39.4,1.94,0,3.87,0,5.81,0,.34,0,.44-.08.44-.44q0-5.14,0-10.29a13.89,13.89,0,0,1,.1-1.71c.26-2.18,1.38-3.35,3.41-3.56a3.1,3.1,0,0,1,3.71,2.7,10.41,10.41,0,0,1,.21,2.23c0,3.54,0,7.09,0,10.63,0,.35.09.44.44.44,1.9,0,3.81,0,5.72,0,.37,0,.46-.09.46-.46,0-3.7,0-7.4,0-11.09a21,21,0,0,0-.42-4.68,6.47,6.47,0,0,0-3.37-4.75A9.57,9.57,0,0,0,24,10.06,7,7,0,0,0,19,12a7.45,7.45,0,0,0-1.18,1.49Z"/><path class="cls-1" d="M.51,31.47c0,.31.07.4.39.4,1.93,0,3.87,0,5.8,0,.35,0,.45-.09.45-.44q0-10.21,0-20.43c0-.32-.08-.42-.41-.42q-2.88,0-5.76,0c-.37,0-.47.09-.46.46,0,3.41,0,6.81,0,10.21S.52,28.06.51,31.47Z"/><path class="cls-1" d="M3.83,7.66A3.83,3.83,0,1,0,3.81,0,3.86,3.86,0,0,0,0,3.84,3.85,3.85,0,0,0,3.83,7.66Z"/></g></g></svg>