<?xml version="1.0" encoding="utf-8"?>
<!-- Generator: Adobe Illustrator 24.2.3, SVG Export Plug-In . SVG Version: 6.00 Build 0)  -->
<svg version="1.1" id="Layer_1" xmlns="http://www.w3.org/2000/svg" xmlns:xlink="http://www.w3.org/1999/xlink" x="0px" y="0px"
	 viewBox="0 0 24 24" style="enable-background:new 0 0 24 24;" xml:space="preserve">
<style type="text/css">
	.st0{fill:none;}
</style>
<g>
	<path class="st0" d="M13.2,10.2c0-0.6,0-1.2,0-1.8c0-0.2-0.1-0.3-0.3-0.3c-1.3,0-2.7,0-4,0c-0.2,0-0.3,0-0.3,0.3c0,5,0,10,0,14.9
		c0,0.2,0.1,0.3,0.3,0.3c1.4,0,2.8,0,4.2,0c0.2,0,0.3-0.1,0.3-0.3c0-2.5,0-5,0-7.5c0-0.4,0-0.8,0.1-1.2c0.2-1.6,1-2.5,2.5-2.6
		c1.5-0.1,2.4,0.5,2.7,2c0.1,0.5,0.2,1.1,0.2,1.6c0,2.6,0,5.2,0,7.8c0,0.3,0.1,0.3,0.3,0.3c1.4,0,2.8,0,4.2,0c0.3,0,0.3-0.1,0.3-0.3
		c0-2.7,0-5.4,0-8.1c0-1.1-0.1-2.3-0.3-3.4c-0.3-1.5-1-2.8-2.5-3.5c-1-0.5-2-0.6-3.1-0.6c-1.4,0-2.6,0.5-3.6,1.4
		C13.8,9.5,13.5,9.8,13.2,10.2C13.3,10.2,13.2,10.2,13.2,10.2z"/>
	<path class="st0" d="M0.7,23.3c0,0.2,0.1,0.3,0.3,0.3c1.4,0,2.8,0,4.2,0c0.3,0,0.3-0.1,0.3-0.3c0-5,0-9.9,0-14.9
		c0-0.2-0.1-0.3-0.3-0.3c-1.4,0-2.8,0-4.2,0c-0.3,0-0.3,0.1-0.3,0.3c0,2.5,0,5,0,7.5S0.7,20.9,0.7,23.3z"/>
	<path class="st0" d="M3.1,6c1.5,0,2.8-1.3,2.8-2.8c0-1.5-1.3-2.8-2.8-2.8c-1.5,0-2.8,1.3-2.8,2.8C0.3,4.7,1.6,6,3.1,6z"/>
</g>
</svg>
