<?xml version="1.0" encoding="utf-8"?>
<!-- Generator: Adobe Illustrator 24.2.3, SVG Export Plug-In . SVG Version: 6.00 Build 0)  -->
<svg version="1.1" id="Layer_1" xmlns="http://www.w3.org/2000/svg" xmlns:xlink="http://www.w3.org/1999/xlink" x="0px" y="0px"
	 viewBox="0 0 29.5 24" style="enable-background:new 0 0 29.5 24;" xml:space="preserve">
<style type="text/css">
	.st0{fill:none;}
</style>
<g id="Logo__x2014__FIXED">
	<path class="st0" d="M9.3,24c11.1,0,17.2-9.2,17.2-17.2c0-0.3,0-0.5,0-0.8c1.2-0.9,2.2-1.9,3-3.1c-1.1,0.5-2.2,0.8-3.5,1
		c1.3-0.8,2.2-1.9,2.7-3.4c-1.2,0.7-2.5,1.2-3.8,1.5C23.7,0.7,22.2,0,20.4,0c-3.3,0-6.1,2.7-6.1,6.1c0,0.5,0.1,0.9,0.2,1.4
		C9.5,7.2,5,4.8,2,1.1C1.5,2,1.2,3,1.2,4.1c0,2.1,1.1,4,2.7,5c-1,0-1.9-0.3-2.7-0.8c0,0,0,0.1,0,0.1c0,2.9,2.1,5.4,4.9,5.9
		c-0.5,0.1-1,0.2-1.6,0.2c-0.4,0-0.8,0-1.1-0.1c0.8,2.4,3,4.2,5.7,4.2c-2.1,1.6-4.7,2.6-7.5,2.6c-0.5,0-1,0-1.4-0.1
		C2.7,23,5.8,24,9.3,24"/>
</g>
</svg>
