<?xml version="1.0" encoding="utf-8"?>
<!-- Generator: Adobe Illustrator 24.2.3, SVG Export Plug-In . SVG Version: 6.00 Build 0)  -->
<svg version="1.1" id="Layer_1" xmlns="http://www.w3.org/2000/svg" xmlns:xlink="http://www.w3.org/1999/xlink" x="0px" y="0px"
	 viewBox="0 0 32 32" style="enable-background:new 0 0 32 32;" xml:space="preserve">
<style type="text/css">
	.st0{fill:none;}
</style>
<g id="Logo__x2014__FIXED">
	<path class="st0" d="M9.9,29.4c12.4,0,19.2-10.3,19.2-19.2c0-0.3,0-0.6,0-0.9c1.3-1,2.5-2.1,3.4-3.5c-1.2,0.5-2.5,0.9-3.9,1.1
		C30,6,31,4.7,31.5,3.1c-1.3,0.8-2.7,1.3-4.3,1.6c-1.2-1.3-3-2.1-4.9-2.1c-3.7,0-6.8,3-6.8,6.8c0,0.5,0.1,1.1,0.2,1.5
		c-5.6-0.3-10.6-3-13.9-7.1C1.3,4.9,0.9,6,0.9,7.2c0,2.3,1.2,4.4,3,5.6c-1.1,0-2.1-0.3-3.1-0.8c0,0,0,0.1,0,0.1c0,3.3,2.3,6,5.4,6.6
		C5.7,18.9,5.1,19,4.5,19c-0.4,0-0.9,0-1.3-0.1c0.9,2.7,3.3,4.6,6.3,4.7c-2.3,1.8-5.2,2.9-8.4,2.9c-0.5,0-1.1,0-1.6-0.1
		C2.5,28.3,6.1,29.4,9.9,29.4"/>
</g>
</svg>
