<svg xmlns="http://www.w3.org/2000/svg" xmlns:xlink="http://www.w3.org/1999/xlink" viewBox="0 0 442.37 270.93"><defs><style>.cls-1,.cls-5{fill:url(#linear-gradient);}.cls-1{clip-rule:evenodd;}.cls-2,.cls-4{fill:#679e63;}.cls-3{fill:#fff;}.cls-3,.cls-4,.cls-5{fill-rule:evenodd;}.cls-6{clip-path:url(#clip-path);}.cls-7{fill:none;}.cls-8{fill:url(#linear-gradient-3);}.cls-9{fill:url(#linear-gradient-4);}.cls-10{fill:url(#linear-gradient-5);}.cls-11{fill:url(#linear-gradient-6);}.cls-12{fill:url(#linear-gradient-7);}.cls-13{fill:url(#linear-gradient-8);}</style><linearGradient id="linear-gradient" x1="180.4" y1="80.7" x2="142.33" y2="158.35" gradientUnits="userSpaceOnUse"><stop offset="0" stop-color="#3f873f"/><stop offset="0.33" stop-color="#3f8b3d"/><stop offset="0.64" stop-color="#3e9637"/><stop offset="0.93" stop-color="#3da92e"/><stop offset="1" stop-color="#3dae2b"/></linearGradient><clipPath id="clip-path"><path class="cls-1" d="M165.81,62.59a5.07,5.07,0,0,0-5.08,0L118.59,86.9a5.1,5.1,0,0,0-2.54,4.41V140a5.1,5.1,0,0,0,2.54,4.41l42.13,24.33a5.1,5.1,0,0,0,5.1,0l42.12-24.33a5.1,5.1,0,0,0,2.54-4.41V91.31a5.1,5.1,0,0,0-2.54-4.41Z"/></clipPath><linearGradient id="linear-gradient-3" x1="156.85" y1="121.34" x2="263.66" y2="42.42" gradientUnits="userSpaceOnUse"><stop offset="0.14" stop-color="#3f873f"/><stop offset="0.4" stop-color="#529f44"/><stop offset="0.71" stop-color="#63b649"/><stop offset="0.91" stop-color="#6abf4b"/></linearGradient><linearGradient id="linear-gradient-4" x1="114.56" y1="53.82" x2="211.97" y2="53.82" gradientUnits="userSpaceOnUse"><stop offset="0.09" stop-color="#6abf4b"/><stop offset="0.29" stop-color="#63b649"/><stop offset="0.6" stop-color="#529f44"/><stop offset="0.86" stop-color="#3f873f"/></linearGradient><linearGradient id="linear-gradient-5" x1="114.56" y1="115.63" x2="211.97" y2="115.63" xlink:href="#linear-gradient-4"/><linearGradient id="linear-gradient-6" x1="114.56" y1="143.45" x2="211.97" y2="143.45" xlink:href="#linear-gradient-4"/><linearGradient id="linear-gradient-7" x1="114.56" y1="156.01" x2="211.97" y2="156.01" xlink:href="#linear-gradient-4"/><linearGradient id="linear-gradient-8" x1="226.17" y1="78.4" x2="166.09" y2="200.96" xlink:href="#linear-gradient"/></defs><g id="Layer_2" data-name="Layer 2"><g id="Layer_1-2" data-name="Layer 1"><path class="cls-2" d="M218.65,270.93a8.35,8.35,0,0,1-4.19-1.12l-13.34-7.9c-2-1.11-1-1.5-.36-1.73a27.15,27.15,0,0,0,6-2.75,1,1,0,0,1,1,.08L218,263.59a1.28,1.28,0,0,0,1.23,0l39.95-23.06a1.24,1.24,0,0,0,.61-1.08v-46.1a1.27,1.27,0,0,0-.62-1.1l-39.93-23a1.23,1.23,0,0,0-1.23,0l-39.92,23a1.27,1.27,0,0,0-.64,1.09v46.1a1.24,1.24,0,0,0,.63,1.07l10.95,6.32c5.94,3,9.57-.52,9.57-4V197.28a1.15,1.15,0,0,1,1.16-1.15h5.07a1.16,1.16,0,0,1,1.16,1.15V242.8c0,7.93-4.32,12.47-11.83,12.47-2.31,0-4.13,0-9.21-2.5l-10.47-6a8.42,8.42,0,0,1-4.19-7.29v-46.1a8.41,8.41,0,0,1,4.19-7.28l40-23.09a8.74,8.74,0,0,1,8.39,0l40,23.09a8.42,8.42,0,0,1,4.2,7.28v46.1a8.44,8.44,0,0,1-4.2,7.29l-40,23.07A8.33,8.33,0,0,1,218.65,270.93Z"/><path class="cls-2" d="M231,239.16c-17.48,0-21.15-8-21.15-14.75a1.15,1.15,0,0,1,1.16-1.15h5.16a1.15,1.15,0,0,1,1.15,1c.78,5.25,3.11,7.91,13.68,7.91,8.41,0,12-1.91,12-6.37,0-2.57-1-4.49-14.1-5.77-10.93-1.08-17.69-3.49-17.69-12.24,0-8.06,6.79-12.86,18.19-12.86,12.79,0,19.13,4.44,19.93,14a1.17,1.17,0,0,1-1.15,1.26H243a1.16,1.16,0,0,1-1.12-.91c-1.24-5.53-4.27-7.3-12.47-7.3-9.19,0-10.26,3.2-10.26,5.6,0,2.91,1.26,3.75,13.67,5.4s18.1,3.92,18.1,12.54S243.65,239.16,231,239.16Z"/><path class="cls-2" d="M288.59,190.81a7.7,7.7,0,1,1-7.7-7.7A7.72,7.72,0,0,1,288.59,190.81Zm-14.15,0a6.46,6.46,0,1,0,6.43-6.43A6.46,6.46,0,0,0,274.44,190.79Zm3.56-4.3h3c1,0,3,0,3,2.29a2,2,0,0,1-1.63,2.11c1.18.09,1.26.86,1.43,2a8.54,8.54,0,0,0,.44,2.28H282.4c0-.41-.33-2.61-.33-2.73-.11-.49-.28-.73-.89-.73h-1.51v3.46H278Zm1.63,3.79H281a1.16,1.16,0,0,0,1.3-1.22c0-1.18-.82-1.18-1.26-1.18h-1.39Z"/><path class="cls-3" d="M94.94,90.55a5.13,5.13,0,0,0-2.56-4.45L50,61.73a4.91,4.91,0,0,0-2.33-.67h-.44a5,5,0,0,0-2.33.67L2.56,86.1A5.15,5.15,0,0,0,0,90.55l.09,65.64a2.5,2.5,0,0,0,1.28,2.2,2.42,2.42,0,0,0,2.54,0L29.08,144a5.15,5.15,0,0,0,2.56-4.44V108.88a5.09,5.09,0,0,1,2.56-4.43l10.72-6.17a5,5,0,0,1,2.56-.69,4.9,4.9,0,0,1,2.54.69l10.72,6.17a5.12,5.12,0,0,1,2.56,4.43v30.66A5.16,5.16,0,0,0,65.86,144L91,158.39a2.44,2.44,0,0,0,2.55,0,2.53,2.53,0,0,0,1.27-2.2Z"/><path class="cls-3" d="M298.73.32a2.56,2.56,0,0,0-3.8,2.24v65a1.79,1.79,0,0,1-2.69,1.55L281.64,63a5.12,5.12,0,0,0-5.12,0L234.15,87.45a5.13,5.13,0,0,0-2.56,4.43V140.8a5.13,5.13,0,0,0,2.56,4.43l42.37,24.47a5.09,5.09,0,0,0,5.12,0L324,145.23a5.12,5.12,0,0,0,2.55-4.43V18.86A5.13,5.13,0,0,0,324,14.39ZM294.8,124.73a1.26,1.26,0,0,1-.64,1.1l-14.54,8.39a1.27,1.27,0,0,1-1.28,0l-14.55-8.39a1.26,1.26,0,0,1-.64-1.1v-16.8a1.27,1.27,0,0,1,.64-1.11l14.55-8.4a1.27,1.27,0,0,1,1.28,0l14.54,8.4a1.27,1.27,0,0,1,.64,1.11Z"/><path class="cls-3" d="M439.83,107.49a5.13,5.13,0,0,0,2.54-4.43V91.21a5.1,5.1,0,0,0-2.55-4.42l-42.1-24.45a5.12,5.12,0,0,0-5.12,0L350.24,86.79a5.12,5.12,0,0,0-2.56,4.43v48.9a5.12,5.12,0,0,0,2.59,4.45l42.09,24a5.1,5.1,0,0,0,5,0l25.46-14.15a2.57,2.57,0,0,0,0-4.46l-42.63-24.46a2.57,2.57,0,0,1-1.28-2.22V108a2.55,2.55,0,0,1,1.28-2.21L393.5,98.1a2.55,2.55,0,0,1,2.56,0l13.27,7.65a2.55,2.55,0,0,1,1.28,2.21V120a2.55,2.55,0,0,0,3.84,2.21Z"/><path class="cls-4" d="M394.54,105.2a1,1,0,0,1,1,0l8.13,4.69a1,1,0,0,1,.49.85v9.39a1,1,0,0,1-.49.85l-8.13,4.69a1,1,0,0,1-1,0L386.41,121a1,1,0,0,1-.49-.85v-9.39a1,1,0,0,1,.49-.85Z"/><path class="cls-5" d="M165.81,62.59a5.07,5.07,0,0,0-5.08,0L118.59,86.9a5.1,5.1,0,0,0-2.54,4.41V140a5.1,5.1,0,0,0,2.54,4.41l42.13,24.33a5.1,5.1,0,0,0,5.1,0l42.12-24.33a5.1,5.1,0,0,0,2.54-4.41V91.31a5.1,5.1,0,0,0-2.54-4.41Z"/><g class="cls-6"><path class="cls-7" d="M160.64,62.59,118.42,86.9a5.26,5.26,0,0,0-2.73,4.41V140a4.94,4.94,0,0,0,1.32,3.24l47.44-81.16A5.18,5.18,0,0,0,160.64,62.59Z"/><path class="cls-7" d="M164.68,169.21a4.9,4.9,0,0,0,1.19-.49l42.18-24.33a5.19,5.19,0,0,0,2.64-4.41V91.31a5,5,0,0,0-1.54-3.53Z"/><path class="cls-8" d="M208,86.9,165.77,62.59a5.37,5.37,0,0,0-1.32-.53L117,143.22a5.91,5.91,0,0,0,1.42,1.17l42.32,24.33a5.15,5.15,0,0,0,3.93.49l44.47-81.43A5.12,5.12,0,0,0,208,86.9Z"/><path class="cls-7" d="M210.69,140V91.31A5.2,5.2,0,0,0,208,86.9L165.77,62.59a5.17,5.17,0,0,0-1.55-.57l46.32,79.13A5.07,5.07,0,0,0,210.69,140Z"/><path class="cls-7" d="M118.42,86.9a5.26,5.26,0,0,0-2.73,4.41V140a5.27,5.27,0,0,0,2.74,4.41l42.32,24.33a5.19,5.19,0,0,0,3.26.63L118.67,86.76Z"/><polygon class="cls-9" points="159.32 53.65 158.74 53.98 159.51 53.98 159.32 53.65"/><path class="cls-10" d="M208.05,144.39a5.38,5.38,0,0,0,2.49-3.24L164.22,62a5.15,5.15,0,0,0-3.58.57l-42,24.17L164,169.35a5.26,5.26,0,0,0,1.86-.63Z"/><polygon class="cls-11" points="211.97 143.6 211.69 143.13 211.69 143.76 211.97 143.6"/><path class="cls-12" d="M208.05,144.39l-42.18,24.33a5.26,5.26,0,0,1-1.86.63l.84,1.53,46.84-27.12v-.63l-1.15-2A5.38,5.38,0,0,1,208.05,144.39Z"/><path class="cls-13" d="M208.05,144.39l-42.18,24.33a5.26,5.26,0,0,1-1.86.63l.84,1.53,46.84-27.12v-.63l-1.15-2A5.38,5.38,0,0,1,208.05,144.39Z"/></g></g></g></svg>