<svg xmlns="http://www.w3.org/2000/svg" viewBox="0 0 410.87 410.87"><defs><style>.cls-1{fill:#c69;fill-rule:evenodd;}.cls-2{fill:#fff;}</style></defs><g id="Layer_2" data-name="Layer 2"><g id="Layer_1-2" data-name="Layer 1"><path class="cls-1" d="M205.44,0C318.89,0,410.87,92,410.87,205.44s-92,205.43-205.43,205.43S0,318.89,0,205.44,92,0,205.44,0Z"/><path class="cls-2" d="M334.3,87.93C325,51.44,264.5,39.45,207.24,59.79c-34.08,12.11-71,31.11-97.49,55.92-31.53,29.49-36.56,55.17-34.49,65.9,7.31,37.85,59.18,62.59,80.5,80.95v.11c-6.29,3.1-52.3,26.38-63.07,50.19C81.32,338,94.5,356,103.22,358.43c27,7.52,54.74-6,69.64-28.23,14.38-21.45,13.18-49.14,6.93-62.92,8.62-2.27,18.67-3.29,31.44-1.8,36,4.21,43.11,26.71,41.76,36.13s-8.91,14.59-11.44,16.15-3.3,2.11-3.08,3.27c.3,1.69,1.47,1.63,3.63,1.26,3-.5,18.92-7.66,19.6-25,.87-22.07-20.28-46.76-57.73-46.11-15.42.26-25.12,1.73-32.12,4.34-.52-.59-1-1.18-1.59-1.76-23.16-24.7-65.95-42.18-64.14-75.38.66-12.07,4.86-43.86,82.24-82.42C251.75,64.33,302.5,73,311.27,92.29c12.52,27.52-27.13,78.67-93,86.05-25.08,2.81-38.28-6.91-41.57-10.53-3.46-3.81-4-4-5.26-3.27-2.11,1.17-.77,4.53,0,6.54,2,5.11,10,14.18,23.78,18.7,12.1,4,41.54,6.15,77.16-7.63C312.3,166.72,343.45,123.8,334.3,87.93ZM164.61,273.87c3,11.05,2.66,21.36-.43,30.7-.34,1-.72,2.06-1.13,3.08s-.85,2-1.33,3a57.17,57.17,0,0,1-9.49,13.83c-11.93,13-28.61,17.95-35.76,13.8-7.72-4.48-3.86-22.84,10-37.47C141.34,285.07,162.76,275,162.76,275l0-.07Z"/></g></g></svg>