<svg xmlns="http://www.w3.org/2000/svg" viewBox="0 0 1387.97 256"><defs><style>.cls-1,.cls-2{fill:#171717;}.cls-2{isolation:isolate;font-size:223.3px;font-family:LoRes15OT-Bold, "LoRes 15 OT";font-weight:700;}</style></defs><g id="Layer_2" data-name="Layer 2"><g id="Layer_1-2" data-name="Layer 1"><rect class="cls-1" x="161" y="185" width="4" height="4"/><rect class="cls-1" x="161" y="181" width="4" height="4"/><rect class="cls-1" x="161" y="177" width="4" height="4"/><rect class="cls-1" x="161" y="173" width="4" height="4"/><rect class="cls-1" x="161" y="169" width="4" height="4"/><rect class="cls-1" x="161" y="165" width="4" height="4"/><rect class="cls-1" x="157" y="205" width="4" height="4"/><rect class="cls-1" x="157" y="201" width="4" height="4"/><rect class="cls-1" x="157" y="197" width="4" height="4"/><rect class="cls-1" x="157" y="193" width="4" height="4"/><rect class="cls-1" x="157" y="189" width="4" height="4"/><rect class="cls-1" x="157" y="185" width="4" height="4"/><rect class="cls-1" x="157" y="181" width="4" height="4"/><rect class="cls-1" x="153" y="213" width="4" height="4"/><rect class="cls-1" x="153" y="209" width="4" height="4"/><rect class="cls-1" x="153" y="205" width="4" height="4"/><rect class="cls-1" x="153" y="201" width="4" height="4"/><rect class="cls-1" x="153" y="197" width="4" height="4"/><rect class="cls-1" x="153" y="193" width="4" height="4"/><rect class="cls-1" x="153" y="189" width="4" height="4"/><rect class="cls-1" x="153" y="185" width="4" height="4"/><rect class="cls-1" x="153" y="110" width="4" height="4"/><rect class="cls-1" x="153" y="106" width="4" height="4"/><rect class="cls-1" x="153" y="102" width="4" height="4"/><rect class="cls-1" x="153" y="79" width="4" height="4"/><rect class="cls-1" x="153" y="75" width="4" height="4"/><rect class="cls-1" x="149" y="221" width="4" height="3"/><rect class="cls-1" x="149" y="217" width="4" height="4"/><rect class="cls-1" x="149" y="213" width="4" height="4"/><rect class="cls-1" x="149" y="209" width="4" height="4"/><rect class="cls-1" x="149" y="205" width="4" height="4"/><rect class="cls-1" x="149" y="201" width="4" height="4"/><rect class="cls-1" x="149" y="197" width="4" height="4"/><rect class="cls-1" x="149" y="193" width="4" height="4"/><rect class="cls-1" x="149" y="189" width="4" height="4"/><rect class="cls-1" x="149" y="185" width="4" height="4"/><rect class="cls-1" x="149" y="126" width="4" height="4"/><rect class="cls-1" x="149" y="122" width="4" height="4"/><rect class="cls-1" x="149" y="118" width="4" height="4"/><rect class="cls-1" x="149" y="114" width="4" height="4"/><rect class="cls-1" x="149" y="110" width="4" height="4"/><rect class="cls-1" x="149" y="106" width="4" height="4"/><rect class="cls-1" x="149" y="102" width="4" height="4"/><rect class="cls-1" x="149" y="98" width="4" height="4"/><rect class="cls-1" x="149" y="94" width="4" height="4"/><rect class="cls-1" x="149" y="71" width="4" height="4"/><rect class="cls-1" x="149" y="67" width="4" height="4"/><rect class="cls-1" x="149" y="63" width="4" height="4"/><rect class="cls-1" x="145" y="221" width="4" height="3"/><rect class="cls-1" x="145" y="217" width="4" height="4"/><rect class="cls-1" x="145" y="213" width="4" height="4"/><rect class="cls-1" x="145" y="209" width="4" height="4"/><rect class="cls-1" x="145" y="205" width="4" height="4"/><rect class="cls-1" x="145" y="201" width="4" height="4"/><rect class="cls-1" x="145" y="197" width="4" height="4"/><rect class="cls-1" x="145" y="193" width="4" height="4"/><rect class="cls-1" x="145" y="189" width="4" height="4"/><rect class="cls-1" x="145" y="185" width="4" height="4"/><rect class="cls-1" x="145" y="181" width="4" height="4"/><rect class="cls-1" x="145" y="177" width="4" height="4"/><rect class="cls-1" x="145" y="173" width="4" height="4"/><rect class="cls-1" x="145" y="130" width="4" height="4"/><rect class="cls-1" x="145" y="94" width="4" height="4"/><rect class="cls-1" x="145" y="59" width="4" height="4"/><rect class="cls-1" x="145" y="55" width="4" height="4"/><rect class="cls-1" x="141" y="224" width="4" height="4"/><rect class="cls-1" x="141" y="221" width="4" height="3"/><rect class="cls-1" x="141" y="217" width="4" height="4"/><rect class="cls-1" x="141" y="213" width="4" height="4"/><rect class="cls-1" x="141" y="209" width="4" height="4"/><rect class="cls-1" x="141" y="205" width="4" height="4"/><rect class="cls-1" x="141" y="201" width="4" height="4"/><rect class="cls-1" x="141" y="197" width="4" height="4"/><rect class="cls-1" x="141" y="193" width="4" height="4"/><rect class="cls-1" x="141" y="189" width="4" height="4"/><rect class="cls-1" x="141" y="185" width="4" height="4"/><rect class="cls-1" x="141" y="181" width="4" height="4"/><rect class="cls-1" x="141" y="177" width="4" height="4"/><rect class="cls-1" x="141" y="173" width="4" height="4"/><rect class="cls-1" x="141" y="169" width="4" height="4"/><rect class="cls-1" x="141" y="134" width="4" height="4"/><rect class="cls-1" x="141" y="94" width="4" height="4"/><rect class="cls-1" x="141" y="51" width="4" height="4"/><rect class="cls-1" x="137" y="228" width="4" height="4"/><rect class="cls-1" x="137" y="224" width="4" height="4"/><rect class="cls-1" x="137" y="221" width="4" height="3"/><rect class="cls-1" x="137" y="217" width="4" height="4"/><rect class="cls-1" x="137" y="213" width="4" height="4"/><rect class="cls-1" x="137" y="209" width="4" height="4"/><rect class="cls-1" x="137" y="205" width="4" height="4"/><rect class="cls-1" x="137" y="201" width="4" height="4"/><rect class="cls-1" x="137" y="197" width="4" height="4"/><rect class="cls-1" x="137" y="193" width="4" height="4"/><rect class="cls-1" x="137" y="189" width="4" height="4"/><rect class="cls-1" x="137" y="185" width="4" height="4"/><rect class="cls-1" x="137" y="181" width="4" height="4"/><rect class="cls-1" x="137" y="177" width="4" height="4"/><rect class="cls-1" x="137" y="173" width="4" height="4"/><rect class="cls-1" x="137" y="169" width="4" height="4"/><rect class="cls-1" x="137" y="134" width="4" height="4"/><rect class="cls-1" x="137" y="94" width="4" height="4"/><rect class="cls-1" x="137" y="47" width="4" height="4"/><rect class="cls-1" x="137" y="43" width="4" height="4"/><rect class="cls-1" x="134" y="232" width="3" height="4"/><rect class="cls-1" x="134" y="228" width="3" height="4"/><rect class="cls-1" x="134" y="224" width="3" height="4"/><rect class="cls-1" x="134" y="221" width="3" height="3"/><rect class="cls-1" x="134" y="217" width="3" height="4"/><rect class="cls-1" x="134" y="213" width="3" height="4"/><rect class="cls-1" x="134" y="209" width="3" height="4"/><rect class="cls-1" x="134" y="205" width="3" height="4"/><rect class="cls-1" x="134" y="201" width="3" height="4"/><rect class="cls-1" x="134" y="185" width="3" height="4"/><rect class="cls-1" x="134" y="181" width="3" height="4"/><rect class="cls-1" x="134" y="177" width="3" height="4"/><rect class="cls-1" x="134" y="173" width="3" height="4"/><rect class="cls-1" x="134" y="169" width="3" height="4"/><rect class="cls-1" x="134" y="165" width="3" height="4"/><rect class="cls-1" x="134" y="134" width="3" height="4"/><rect class="cls-1" x="134" y="94" width="3" height="4"/><rect class="cls-1" x="134" y="43" width="3" height="4"/><rect class="cls-1" x="130" y="236" width="4" height="4"/><rect class="cls-1" x="130" y="232" width="4" height="4"/><rect class="cls-1" x="130" y="228" width="4" height="4"/><rect class="cls-1" x="130" y="224" width="4" height="4"/><rect class="cls-1" x="130" y="221" width="4" height="3"/><rect class="cls-1" x="130" y="217" width="4" height="4"/><rect class="cls-1" x="130" y="213" width="4" height="4"/><rect class="cls-1" x="130" y="209" width="4" height="4"/><rect class="cls-1" x="130" y="205" width="4" height="4"/><rect class="cls-1" x="130" y="185" width="4" height="4"/><rect class="cls-1" x="130" y="181" width="4" height="4"/><rect class="cls-1" x="130" y="177" width="4" height="4"/><rect class="cls-1" x="130" y="173" width="4" height="4"/><rect class="cls-1" x="130" y="169" width="4" height="4"/><rect class="cls-1" x="130" y="165" width="4" height="4"/><rect class="cls-1" x="130" y="138" width="4" height="4"/><rect class="cls-1" x="130" y="94" width="4" height="4"/><rect class="cls-1" x="130" y="39" width="4" height="4"/><rect class="cls-1" x="126" y="240" width="4" height="4"/><rect class="cls-1" x="126" y="236" width="4" height="4"/><rect class="cls-1" x="126" y="232" width="4" height="4"/><rect class="cls-1" x="126" y="228" width="4" height="4"/><rect class="cls-1" x="126" y="224" width="4" height="4"/><rect class="cls-1" x="126" y="221" width="4" height="3"/><rect class="cls-1" x="126" y="217" width="4" height="4"/><rect class="cls-1" x="126" y="213" width="4" height="4"/><rect class="cls-1" x="126" y="197" width="4" height="4"/><rect class="cls-1" x="126" y="193" width="4" height="4"/><rect class="cls-1" x="126" y="189" width="4" height="4"/><rect class="cls-1" x="126" y="185" width="4" height="4"/><rect class="cls-1" x="126" y="181" width="4" height="4"/><rect class="cls-1" x="126" y="177" width="4" height="4"/><rect class="cls-1" x="126" y="173" width="4" height="4"/><rect class="cls-1" x="126" y="169" width="4" height="4"/><rect class="cls-1" x="126" y="165" width="4" height="4"/><rect class="cls-1" x="126" y="138" width="4" height="4"/><rect class="cls-1" x="126" y="94" width="4" height="4"/><rect class="cls-1" x="126" y="35" width="4" height="4"/><rect class="cls-1" x="122" y="244" width="4" height="4"/><rect class="cls-1" x="122" y="240" width="4" height="4"/><rect class="cls-1" x="122" y="236" width="4" height="4"/><rect class="cls-1" x="122" y="232" width="4" height="4"/><rect class="cls-1" x="122" y="228" width="4" height="4"/><rect class="cls-1" x="122" y="224" width="4" height="4"/><rect class="cls-1" x="122" y="205" width="4" height="4"/><rect class="cls-1" x="122" y="201" width="4" height="4"/><rect class="cls-1" x="122" y="197" width="4" height="4"/><rect class="cls-1" x="122" y="193" width="4" height="4"/><rect class="cls-1" x="122" y="189" width="4" height="4"/><rect class="cls-1" x="122" y="185" width="4" height="4"/><rect class="cls-1" x="122" y="181" width="4" height="4"/><rect class="cls-1" x="122" y="177" width="4" height="4"/><rect class="cls-1" x="122" y="173" width="4" height="4"/><rect class="cls-1" x="122" y="169" width="4" height="4"/><rect class="cls-1" x="122" y="165" width="4" height="4"/><rect class="cls-1" x="122" y="138" width="4" height="4"/><rect class="cls-1" x="122" y="94" width="4" height="4"/><rect class="cls-1" x="122" y="35" width="4" height="4"/><rect class="cls-1" x="122" y="31" width="4" height="4"/><rect class="cls-1" x="118" y="244" width="4" height="4"/><rect class="cls-1" x="118" y="240" width="4" height="4"/><rect class="cls-1" x="118" y="236" width="4" height="4"/><rect class="cls-1" x="118" y="232" width="4" height="4"/><rect class="cls-1" x="118" y="228" width="4" height="4"/><rect class="cls-1" x="118" y="209" width="4" height="4"/><rect class="cls-1" x="118" y="205" width="4" height="4"/><rect class="cls-1" x="118" y="201" width="4" height="4"/><rect class="cls-1" x="118" y="197" width="4" height="4"/><rect class="cls-1" x="118" y="185" width="4" height="4"/><rect class="cls-1" x="118" y="181" width="4" height="4"/><rect class="cls-1" x="118" y="177" width="4" height="4"/><rect class="cls-1" x="118" y="173" width="4" height="4"/><rect class="cls-1" x="118" y="169" width="4" height="4"/><rect class="cls-1" x="118" y="165" width="4" height="4"/><rect class="cls-1" x="118" y="138" width="4" height="4"/><rect class="cls-1" x="118" y="98" width="4" height="4"/><rect class="cls-1" x="118" y="94" width="4" height="4"/><rect class="cls-1" x="118" y="31" width="4" height="4"/><rect class="cls-1" x="118" y="28" width="4" height="3"/><rect class="cls-1" x="114" y="248" width="4" height="4"/><rect class="cls-1" x="114" y="244" width="4" height="4"/><rect class="cls-1" x="114" y="240" width="4" height="4"/><rect class="cls-1" x="114" y="236" width="4" height="4"/><rect class="cls-1" x="114" y="232" width="4" height="4"/><rect class="cls-1" x="114" y="228" width="4" height="4"/><rect class="cls-1" x="114" y="209" width="4" height="4"/><rect class="cls-1" x="114" y="205" width="4" height="4"/><rect class="cls-1" x="114" y="201" width="4" height="4"/><rect class="cls-1" x="114" y="197" width="4" height="4"/><rect class="cls-1" x="114" y="185" width="4" height="4"/><rect class="cls-1" x="114" y="181" width="4" height="4"/><rect class="cls-1" x="114" y="177" width="4" height="4"/><rect class="cls-1" x="114" y="173" width="4" height="4"/><rect class="cls-1" x="114" y="169" width="4" height="4"/><rect class="cls-1" x="114" y="165" width="4" height="4"/><rect class="cls-1" x="114" y="161" width="4" height="4"/><rect class="cls-1" x="114" y="138" width="4" height="4"/><rect class="cls-1" x="114" y="98" width="4" height="4"/><rect class="cls-1" x="114" y="94" width="4" height="4"/><rect class="cls-1" x="114" y="31" width="4" height="4"/><rect class="cls-1" x="114" y="28" width="4" height="3"/><rect class="cls-1" x="114" y="24" width="4" height="4"/><rect class="cls-1" x="110" y="248" width="4" height="4"/><rect class="cls-1" x="110" y="244" width="4" height="4"/><rect class="cls-1" x="110" y="240" width="4" height="4"/><rect class="cls-1" x="110" y="236" width="4" height="4"/><rect class="cls-1" x="110" y="232" width="4" height="4"/><rect class="cls-1" x="110" y="228" width="4" height="4"/><rect class="cls-1" x="110" y="209" width="4" height="4"/><rect class="cls-1" x="110" y="205" width="4" height="4"/><rect class="cls-1" x="110" y="201" width="4" height="4"/><rect class="cls-1" x="110" y="185" width="4" height="4"/><rect class="cls-1" x="110" y="181" width="4" height="4"/><rect class="cls-1" x="110" y="177" width="4" height="4"/><rect class="cls-1" x="110" y="173" width="4" height="4"/><rect class="cls-1" x="110" y="169" width="4" height="4"/><rect class="cls-1" x="110" y="165" width="4" height="4"/><rect class="cls-1" x="110" y="161" width="4" height="4"/><rect class="cls-1" x="110" y="157" width="4" height="4"/><rect class="cls-1" x="110" y="134" width="4" height="4"/><rect class="cls-1" x="110" y="98" width="4" height="4"/><rect class="cls-1" x="110" y="31" width="4" height="4"/><rect class="cls-1" x="110" y="28" width="4" height="3"/><rect class="cls-1" x="110" y="24" width="4" height="4"/><rect class="cls-1" x="110" y="20" width="4" height="4"/><rect class="cls-1" x="110" y="16" width="4" height="4"/><rect class="cls-1" x="106" y="248" width="4" height="4"/><rect class="cls-1" x="106" y="244" width="4" height="4"/><rect class="cls-1" x="106" y="240" width="4" height="4"/><rect class="cls-1" x="106" y="236" width="4" height="4"/><rect class="cls-1" x="106" y="232" width="4" height="4"/><rect class="cls-1" x="106" y="228" width="4" height="4"/><rect class="cls-1" x="106" y="224" width="4" height="4"/><rect class="cls-1" x="106" y="221" width="4" height="3"/><rect class="cls-1" x="106" y="213" width="4" height="4"/><rect class="cls-1" x="106" y="209" width="4" height="4"/><rect class="cls-1" x="106" y="205" width="4" height="4"/><rect class="cls-1" x="106" y="185" width="4" height="4"/><rect class="cls-1" x="106" y="181" width="4" height="4"/><rect class="cls-1" x="106" y="177" width="4" height="4"/><rect class="cls-1" x="106" y="173" width="4" height="4"/><rect class="cls-1" x="106" y="169" width="4" height="4"/><rect class="cls-1" x="106" y="165" width="4" height="4"/><rect class="cls-1" x="106" y="161" width="4" height="4"/><rect class="cls-1" x="106" y="157" width="4" height="4"/><rect class="cls-1" x="106" y="134" width="4" height="4"/><rect class="cls-1" x="106" y="98" width="4" height="4"/><rect class="cls-1" x="106" y="28" width="4" height="3"/><rect class="cls-1" x="106" y="24" width="4" height="4"/><rect class="cls-1" x="106" y="20" width="4" height="4"/><rect class="cls-1" x="106" y="16" width="4" height="4"/><rect class="cls-1" x="102" y="252" width="4" height="4"/><rect class="cls-1" x="102" y="248" width="4" height="4"/><rect class="cls-1" x="102" y="244" width="4" height="4"/><rect class="cls-1" x="102" y="240" width="4" height="4"/><rect class="cls-1" x="102" y="236" width="4" height="4"/><rect class="cls-1" x="102" y="232" width="4" height="4"/><rect class="cls-1" x="102" y="228" width="4" height="4"/><rect class="cls-1" x="102" y="224" width="4" height="4"/><rect class="cls-1" x="102" y="221" width="4" height="3"/><rect class="cls-1" x="102" y="213" width="4" height="4"/><rect class="cls-1" x="102" y="209" width="4" height="4"/><rect class="cls-1" x="102" y="205" width="4" height="4"/><rect class="cls-1" x="102" y="185" width="4" height="4"/><rect class="cls-1" x="102" y="181" width="4" height="4"/><rect class="cls-1" x="102" y="177" width="4" height="4"/><rect class="cls-1" x="102" y="173" width="4" height="4"/><rect class="cls-1" x="102" y="169" width="4" height="4"/><rect class="cls-1" x="102" y="165" width="4" height="4"/><rect class="cls-1" x="102" y="161" width="4" height="4"/><rect class="cls-1" x="102" y="157" width="4" height="4"/><rect class="cls-1" x="102" y="130" width="4" height="4"/><rect class="cls-1" x="102" y="98" width="4" height="4"/><rect class="cls-1" x="102" y="28" width="4" height="3"/><rect class="cls-1" x="102" y="24" width="4" height="4"/><rect class="cls-1" x="102" y="20" width="4" height="4"/><rect class="cls-1" x="102" y="16" width="4" height="4"/><rect class="cls-1" x="98" y="252" width="4" height="4"/><rect class="cls-1" x="98" y="248" width="4" height="4"/><rect class="cls-1" x="98" y="244" width="4" height="4"/><rect class="cls-1" x="98" y="240" width="4" height="4"/><rect class="cls-1" x="98" y="236" width="4" height="4"/><rect class="cls-1" x="98" y="232" width="4" height="4"/><rect class="cls-1" x="98" y="228" width="4" height="4"/><rect class="cls-1" x="98" y="224" width="4" height="4"/><rect class="cls-1" x="98" y="221" width="4" height="3"/><rect class="cls-1" x="98" y="213" width="4" height="4"/><rect class="cls-1" x="98" y="209" width="4" height="4"/><rect class="cls-1" x="98" y="205" width="4" height="4"/><rect class="cls-1" x="98" y="185" width="4" height="4"/><rect class="cls-1" x="98" y="181" width="4" height="4"/><rect class="cls-1" x="98" y="177" width="4" height="4"/><rect class="cls-1" x="98" y="173" width="4" height="4"/><rect class="cls-1" x="98" y="169" width="4" height="4"/><rect class="cls-1" x="98" y="165" width="4" height="4"/><rect class="cls-1" x="98" y="161" width="4" height="4"/><rect class="cls-1" x="98" y="157" width="4" height="4"/><rect class="cls-1" x="98" y="126" width="4" height="4"/><rect class="cls-1" x="98" y="122" width="4" height="4"/><rect class="cls-1" x="98" y="102" width="4" height="4"/><rect class="cls-1" x="98" y="98" width="4" height="4"/><rect class="cls-1" x="98" y="28" width="4" height="3"/><rect class="cls-1" x="98" y="24" width="4" height="4"/><rect class="cls-1" x="98" y="20" width="4" height="4"/><rect class="cls-1" x="98" y="16" width="4" height="4"/><rect class="cls-1" x="98" y="12" width="4" height="4"/><rect class="cls-1" x="94" y="252" width="4" height="4"/><rect class="cls-1" x="94" y="248" width="4" height="4"/><rect class="cls-1" x="94" y="244" width="4" height="4"/><rect class="cls-1" x="94" y="240" width="4" height="4"/><rect class="cls-1" x="94" y="236" width="4" height="4"/><rect class="cls-1" x="94" y="232" width="4" height="4"/><rect class="cls-1" x="94" y="228" width="4" height="4"/><rect class="cls-1" x="94" y="224" width="4" height="4"/><rect class="cls-1" x="94" y="221" width="4" height="3"/><rect class="cls-1" x="94" y="213" width="4" height="4"/><rect class="cls-1" x="94" y="209" width="4" height="4"/><rect class="cls-1" x="94" y="205" width="4" height="4"/><rect class="cls-1" x="94" y="185" width="4" height="4"/><rect class="cls-1" x="94" y="181" width="4" height="4"/><rect class="cls-1" x="94" y="177" width="4" height="4"/><rect class="cls-1" x="94" y="173" width="4" height="4"/><rect class="cls-1" x="94" y="169" width="4" height="4"/><rect class="cls-1" x="94" y="165" width="4" height="4"/><rect class="cls-1" x="94" y="161" width="4" height="4"/><rect class="cls-1" x="94" y="118" width="4" height="4"/><rect class="cls-1" x="94" y="114" width="4" height="4"/><rect class="cls-1" x="94" y="110" width="4" height="4"/><rect class="cls-1" x="94" y="106" width="4" height="4"/><rect class="cls-1" x="94" y="102" width="4" height="4"/><rect class="cls-1" x="94" y="28" width="4" height="3"/><rect class="cls-1" x="94" y="24" width="4" height="4"/><rect class="cls-1" x="94" y="20" width="4" height="4"/><rect class="cls-1" x="94" y="16" width="4" height="4"/><rect class="cls-1" x="94" y="12" width="4" height="4"/><rect class="cls-1" x="94" y="8" width="4" height="4"/><rect class="cls-1" x="90" y="252" width="4" height="4"/><rect class="cls-1" x="90" y="248" width="4" height="4"/><rect class="cls-1" x="90" y="244" width="4" height="4"/><rect class="cls-1" x="90" y="240" width="4" height="4"/><rect class="cls-1" x="90" y="236" width="4" height="4"/><rect class="cls-1" x="90" y="232" width="4" height="4"/><rect class="cls-1" x="90" y="228" width="4" height="4"/><rect class="cls-1" x="90" y="224" width="4" height="4"/><rect class="cls-1" x="90" y="221" width="4" height="3"/><rect class="cls-1" x="90" y="213" width="4" height="4"/><rect class="cls-1" x="90" y="209" width="4" height="4"/><rect class="cls-1" x="90" y="205" width="4" height="4"/><rect class="cls-1" x="90" y="185" width="4" height="4"/><rect class="cls-1" x="90" y="181" width="4" height="4"/><rect class="cls-1" x="90" y="177" width="4" height="4"/><rect class="cls-1" x="90" y="173" width="4" height="4"/><rect class="cls-1" x="90" y="169" width="4" height="4"/><rect class="cls-1" x="90" y="165" width="4" height="4"/><rect class="cls-1" x="90" y="161" width="4" height="4"/><rect class="cls-1" x="90" y="110" width="4" height="4"/><rect class="cls-1" x="90" y="106" width="4" height="4"/><rect class="cls-1" x="90" y="28" width="4" height="3"/><rect class="cls-1" x="90" y="24" width="4" height="4"/><rect class="cls-1" x="90" y="20" width="4" height="4"/><rect class="cls-1" x="90" y="16" width="4" height="4"/><rect class="cls-1" x="90" y="12" width="4" height="4"/><rect class="cls-1" x="90" y="8" width="4" height="4"/><rect class="cls-1" x="86" y="252" width="4" height="4"/><rect class="cls-1" x="86" y="248" width="4" height="4"/><rect class="cls-1" x="86" y="244" width="4" height="4"/><rect class="cls-1" x="86" y="240" width="4" height="4"/><rect class="cls-1" x="86" y="236" width="4" height="4"/><rect class="cls-1" x="86" y="232" width="4" height="4"/><rect class="cls-1" x="86" y="228" width="4" height="4"/><rect class="cls-1" x="86" y="224" width="4" height="4"/><rect class="cls-1" x="86" y="221" width="4" height="3"/><rect class="cls-1" x="86" y="213" width="4" height="4"/><rect class="cls-1" x="86" y="209" width="4" height="4"/><rect class="cls-1" x="86" y="205" width="4" height="4"/><rect class="cls-1" x="86" y="185" width="4" height="4"/><rect class="cls-1" x="86" y="181" width="4" height="4"/><rect class="cls-1" x="86" y="177" width="4" height="4"/><rect class="cls-1" x="86" y="173" width="4" height="4"/><rect class="cls-1" x="86" y="169" width="4" height="4"/><rect class="cls-1" x="86" y="165" width="4" height="4"/><rect class="cls-1" x="86" y="161" width="4" height="4"/><rect class="cls-1" x="86" y="110" width="4" height="4"/><rect class="cls-1" x="86" y="106" width="4" height="4"/><rect class="cls-1" x="86" y="28" width="4" height="3"/><rect class="cls-1" x="86" y="24" width="4" height="4"/><rect class="cls-1" x="86" y="20" width="4" height="4"/><rect class="cls-1" x="86" y="16" width="4" height="4"/><rect class="cls-1" x="86" y="12" width="4" height="4"/><rect class="cls-1" x="86" y="8" width="4" height="4"/><rect class="cls-1" x="82" y="252" width="4" height="4"/><rect class="cls-1" x="82" y="248" width="4" height="4"/><rect class="cls-1" x="82" y="244" width="4" height="4"/><rect class="cls-1" x="82" y="240" width="4" height="4"/><rect class="cls-1" x="82" y="236" width="4" height="4"/><rect class="cls-1" x="82" y="232" width="4" height="4"/><rect class="cls-1" x="82" y="228" width="4" height="4"/><rect class="cls-1" x="82" y="224" width="4" height="4"/><rect class="cls-1" x="82" y="221" width="4" height="3"/><rect class="cls-1" x="82" y="209" width="4" height="4"/><rect class="cls-1" x="82" y="205" width="4" height="4"/><rect class="cls-1" x="82" y="185" width="4" height="4"/><rect class="cls-1" x="82" y="181" width="4" height="4"/><rect class="cls-1" x="82" y="177" width="4" height="4"/><rect class="cls-1" x="82" y="173" width="4" height="4"/><rect class="cls-1" x="82" y="169" width="4" height="4"/><rect class="cls-1" x="82" y="165" width="4" height="4"/><rect class="cls-1" x="82" y="161" width="4" height="4"/><rect class="cls-1" x="82" y="157" width="4" height="4"/><rect class="cls-1" x="82" y="110" width="4" height="4"/><rect class="cls-1" x="82" y="106" width="4" height="4"/><rect class="cls-1" x="82" y="28" width="4" height="3"/><rect class="cls-1" x="82" y="24" width="4" height="4"/><rect class="cls-1" x="82" y="20" width="4" height="4"/><rect class="cls-1" x="82" y="16" width="4" height="4"/><rect class="cls-1" x="82" y="12" width="4" height="4"/><rect class="cls-1" x="82" y="8" width="4" height="4"/><rect class="cls-1" x="78" y="252" width="4" height="4"/><rect class="cls-1" x="78" y="248" width="4" height="4"/><rect class="cls-1" x="78" y="244" width="4" height="4"/><rect class="cls-1" x="78" y="240" width="4" height="4"/><rect class="cls-1" x="78" y="236" width="4" height="4"/><rect class="cls-1" x="78" y="209" width="4" height="4"/><rect class="cls-1" x="78" y="205" width="4" height="4"/><rect class="cls-1" x="78" y="201" width="4" height="4"/><rect class="cls-1" x="78" y="185" width="4" height="4"/><rect class="cls-1" x="78" y="181" width="4" height="4"/><rect class="cls-1" x="78" y="177" width="4" height="4"/><rect class="cls-1" x="78" y="173" width="4" height="4"/><rect class="cls-1" x="78" y="169" width="4" height="4"/><rect class="cls-1" x="78" y="165" width="4" height="4"/><rect class="cls-1" x="78" y="161" width="4" height="4"/><rect class="cls-1" x="78" y="157" width="4" height="4"/><rect class="cls-1" x="78" y="122" width="4" height="4"/><rect class="cls-1" x="78" y="118" width="4" height="4"/><rect class="cls-1" x="78" y="114" width="4" height="4"/><rect class="cls-1" x="78" y="110" width="4" height="4"/><rect class="cls-1" x="78" y="106" width="4" height="4"/><rect class="cls-1" x="78" y="31" width="4" height="4"/><rect class="cls-1" x="78" y="28" width="4" height="3"/><rect class="cls-1" x="78" y="24" width="4" height="4"/><rect class="cls-1" x="78" y="20" width="4" height="4"/><rect class="cls-1" x="78" y="16" width="4" height="4"/><rect class="cls-1" x="78" y="12" width="4" height="4"/><rect class="cls-1" x="78" y="8" width="4" height="4"/><rect class="cls-1" x="78" y="4" width="4" height="4"/><rect class="cls-1" x="74" y="248" width="4" height="4"/><rect class="cls-1" x="74" y="244" width="4" height="4"/><rect class="cls-1" x="74" y="240" width="4" height="4"/><rect class="cls-1" x="74" y="236" width="4" height="4"/><rect class="cls-1" x="74" y="209" width="4" height="4"/><rect class="cls-1" x="74" y="205" width="4" height="4"/><rect class="cls-1" x="74" y="201" width="4" height="4"/><rect class="cls-1" x="74" y="197" width="4" height="4"/><rect class="cls-1" x="74" y="185" width="4" height="4"/><rect class="cls-1" x="74" y="181" width="4" height="4"/><rect class="cls-1" x="74" y="177" width="4" height="4"/><rect class="cls-1" x="74" y="173" width="4" height="4"/><rect class="cls-1" x="74" y="169" width="4" height="4"/><rect class="cls-1" x="74" y="165" width="4" height="4"/><rect class="cls-1" x="74" y="161" width="4" height="4"/><rect class="cls-1" x="74" y="157" width="4" height="4"/><rect class="cls-1" x="74" y="134" width="4" height="4"/><rect class="cls-1" x="74" y="130" width="4" height="4"/><rect class="cls-1" x="74" y="126" width="4" height="4"/><rect class="cls-1" x="74" y="106" width="4" height="4"/><rect class="cls-1" x="74" y="31" width="4" height="4"/><rect class="cls-1" x="74" y="28" width="4" height="3"/><rect class="cls-1" x="74" y="24" width="4" height="4"/><rect class="cls-1" x="74" y="20" width="4" height="4"/><rect class="cls-1" x="74" y="16" width="4" height="4"/><rect class="cls-1" x="74" y="12" width="4" height="4"/><rect class="cls-1" x="74" y="8" width="4" height="4"/><rect class="cls-1" x="74" y="4" width="4" height="4"/><rect class="cls-1" x="70" y="248" width="4" height="4"/><rect class="cls-1" x="70" y="244" width="4" height="4"/><rect class="cls-1" x="70" y="240" width="4" height="4"/><rect class="cls-1" x="70" y="236" width="4" height="4"/><rect class="cls-1" x="70" y="232" width="4" height="4"/><rect class="cls-1" x="70" y="205" width="4" height="4"/><rect class="cls-1" x="70" y="201" width="4" height="4"/><rect class="cls-1" x="70" y="197" width="4" height="4"/><rect class="cls-1" x="70" y="185" width="4" height="4"/><rect class="cls-1" x="70" y="181" width="4" height="4"/><rect class="cls-1" x="70" y="177" width="4" height="4"/><rect class="cls-1" x="70" y="173" width="4" height="4"/><rect class="cls-1" x="70" y="169" width="4" height="4"/><rect class="cls-1" x="70" y="138" width="4" height="4"/><rect class="cls-1" x="70" y="102" width="4" height="4"/><rect class="cls-1" x="70" y="31" width="4" height="4"/><rect class="cls-1" x="70" y="28" width="4" height="3"/><rect class="cls-1" x="70" y="24" width="4" height="4"/><rect class="cls-1" x="70" y="20" width="4" height="4"/><rect class="cls-1" x="70" y="16" width="4" height="4"/><rect class="cls-1" x="70" y="12" width="4" height="4"/><rect class="cls-1" x="70" y="8" width="4" height="4"/><rect class="cls-1" x="70" y="4" width="4" height="4"/><rect class="cls-1" x="70" width="4" height="4"/><rect class="cls-1" x="67" y="244" width="3" height="4"/><rect class="cls-1" x="67" y="240" width="3" height="4"/><rect class="cls-1" x="67" y="236" width="3" height="4"/><rect class="cls-1" x="67" y="232" width="3" height="4"/><rect class="cls-1" x="67" y="201" width="3" height="4"/><rect class="cls-1" x="67" y="197" width="3" height="4"/><rect class="cls-1" x="67" y="193" width="3" height="4"/><rect class="cls-1" x="67" y="189" width="3" height="4"/><rect class="cls-1" x="67" y="185" width="3" height="4"/><rect class="cls-1" x="67" y="181" width="3" height="4"/><rect class="cls-1" x="67" y="177" width="3" height="4"/><rect class="cls-1" x="67" y="173" width="3" height="4"/><rect class="cls-1" x="67" y="169" width="3" height="4"/><rect class="cls-1" x="67" y="142" width="3" height="4"/><rect class="cls-1" x="67" y="102" width="3" height="4"/><rect class="cls-1" x="67" y="31" width="3" height="4"/><rect class="cls-1" x="67" y="28" width="3" height="3"/><rect class="cls-1" x="67" y="24" width="3" height="4"/><rect class="cls-1" x="67" y="20" width="3" height="4"/><rect class="cls-1" x="67" y="16" width="3" height="4"/><rect class="cls-1" x="67" y="12" width="3" height="4"/><rect class="cls-1" x="67" y="8" width="3" height="4"/><rect class="cls-1" x="67" y="4" width="3" height="4"/><rect class="cls-1" x="67" width="3" height="4"/><rect class="cls-1" x="63" y="244" width="4" height="4"/><rect class="cls-1" x="63" y="240" width="4" height="4"/><rect class="cls-1" x="63" y="236" width="4" height="4"/><rect class="cls-1" x="63" y="232" width="4" height="4"/><rect class="cls-1" x="63" y="228" width="4" height="4"/><rect class="cls-1" x="63" y="197" width="4" height="4"/><rect class="cls-1" x="63" y="193" width="4" height="4"/><rect class="cls-1" x="63" y="189" width="4" height="4"/><rect class="cls-1" x="63" y="185" width="4" height="4"/><rect class="cls-1" x="63" y="181" width="4" height="4"/><rect class="cls-1" x="63" y="177" width="4" height="4"/><rect class="cls-1" x="63" y="173" width="4" height="4"/><rect class="cls-1" x="63" y="142" width="4" height="4"/><rect class="cls-1" x="63" y="102" width="4" height="4"/><rect class="cls-1" x="63" y="31" width="4" height="4"/><rect class="cls-1" x="63" y="28" width="4" height="3"/><rect class="cls-1" x="63" y="24" width="4" height="4"/><rect class="cls-1" x="63" y="20" width="4" height="4"/><rect class="cls-1" x="63" y="16" width="4" height="4"/><rect class="cls-1" x="63" y="12" width="4" height="4"/><rect class="cls-1" x="63" y="8" width="4" height="4"/><rect class="cls-1" x="63" y="4" width="4" height="4"/><rect class="cls-1" x="63" width="4" height="4"/><rect class="cls-1" x="59" y="244" width="4" height="4"/><rect class="cls-1" x="59" y="240" width="4" height="4"/><rect class="cls-1" x="59" y="236" width="4" height="4"/><rect class="cls-1" x="59" y="232" width="4" height="4"/><rect class="cls-1" x="59" y="228" width="4" height="4"/><rect class="cls-1" x="59" y="224" width="4" height="4"/><rect class="cls-1" x="59" y="221" width="4" height="3"/><rect class="cls-1" x="59" y="185" width="4" height="4"/><rect class="cls-1" x="59" y="181" width="4" height="4"/><rect class="cls-1" x="59" y="177" width="4" height="4"/><rect class="cls-1" x="59" y="173" width="4" height="4"/><rect class="cls-1" x="59" y="142" width="4" height="4"/><rect class="cls-1" x="59" y="102" width="4" height="4"/><rect class="cls-1" x="59" y="24" width="4" height="4"/><rect class="cls-1" x="59" y="20" width="4" height="4"/><rect class="cls-1" x="59" y="16" width="4" height="4"/><rect class="cls-1" x="59" y="12" width="4" height="4"/><rect class="cls-1" x="59" y="8" width="4" height="4"/><rect class="cls-1" x="59" y="4" width="4" height="4"/><rect class="cls-1" x="55" y="240" width="4" height="4"/><rect class="cls-1" x="55" y="236" width="4" height="4"/><rect class="cls-1" x="55" y="232" width="4" height="4"/><rect class="cls-1" x="55" y="228" width="4" height="4"/><rect class="cls-1" x="55" y="224" width="4" height="4"/><rect class="cls-1" x="55" y="221" width="4" height="3"/><rect class="cls-1" x="55" y="217" width="4" height="4"/><rect class="cls-1" x="55" y="213" width="4" height="4"/><rect class="cls-1" x="55" y="185" width="4" height="4"/><rect class="cls-1" x="55" y="181" width="4" height="4"/><rect class="cls-1" x="55" y="177" width="4" height="4"/><rect class="cls-1" x="55" y="173" width="4" height="4"/><rect class="cls-1" x="55" y="146" width="4" height="4"/><rect class="cls-1" x="55" y="102" width="4" height="4"/><rect class="cls-1" x="55" y="28" width="4" height="3"/><rect class="cls-1" x="55" y="24" width="4" height="4"/><rect class="cls-1" x="55" y="20" width="4" height="4"/><rect class="cls-1" x="55" y="16" width="4" height="4"/><rect class="cls-1" x="55" y="12" width="4" height="4"/><rect class="cls-1" x="55" y="8" width="4" height="4"/><rect class="cls-1" x="55" y="4" width="4" height="4"/><rect class="cls-1" x="51" y="240" width="4" height="4"/><rect class="cls-1" x="51" y="236" width="4" height="4"/><rect class="cls-1" x="51" y="232" width="4" height="4"/><rect class="cls-1" x="51" y="228" width="4" height="4"/><rect class="cls-1" x="51" y="224" width="4" height="4"/><rect class="cls-1" x="51" y="221" width="4" height="3"/><rect class="cls-1" x="51" y="217" width="4" height="4"/><rect class="cls-1" x="51" y="213" width="4" height="4"/><rect class="cls-1" x="51" y="209" width="4" height="4"/><rect class="cls-1" x="51" y="185" width="4" height="4"/><rect class="cls-1" x="51" y="181" width="4" height="4"/><rect class="cls-1" x="51" y="177" width="4" height="4"/><rect class="cls-1" x="51" y="173" width="4" height="4"/><rect class="cls-1" x="51" y="146" width="4" height="4"/><rect class="cls-1" x="51" y="102" width="4" height="4"/><rect class="cls-1" x="51" y="31" width="4" height="4"/><rect class="cls-1" x="51" y="28" width="4" height="3"/><rect class="cls-1" x="51" y="24" width="4" height="4"/><rect class="cls-1" x="51" y="20" width="4" height="4"/><rect class="cls-1" x="51" y="16" width="4" height="4"/><rect class="cls-1" x="51" y="12" width="4" height="4"/><rect class="cls-1" x="51" y="8" width="4" height="4"/><rect class="cls-1" x="47" y="236" width="4" height="4"/><rect class="cls-1" x="47" y="232" width="4" height="4"/><rect class="cls-1" x="47" y="228" width="4" height="4"/><rect class="cls-1" x="47" y="224" width="4" height="4"/><rect class="cls-1" x="47" y="221" width="4" height="3"/><rect class="cls-1" x="47" y="217" width="4" height="4"/><rect class="cls-1" x="47" y="213" width="4" height="4"/><rect class="cls-1" x="47" y="209" width="4" height="4"/><rect class="cls-1" x="47" y="205" width="4" height="4"/><rect class="cls-1" x="47" y="201" width="4" height="4"/><rect class="cls-1" x="47" y="197" width="4" height="4"/><rect class="cls-1" x="47" y="193" width="4" height="4"/><rect class="cls-1" x="47" y="189" width="4" height="4"/><rect class="cls-1" x="47" y="185" width="4" height="4"/><rect class="cls-1" x="47" y="181" width="4" height="4"/><rect class="cls-1" x="47" y="177" width="4" height="4"/><rect class="cls-1" x="47" y="146" width="4" height="4"/><rect class="cls-1" x="47" y="102" width="4" height="4"/><rect class="cls-1" x="47" y="31" width="4" height="4"/><rect class="cls-1" x="47" y="28" width="4" height="3"/><rect class="cls-1" x="47" y="24" width="4" height="4"/><rect class="cls-1" x="47" y="20" width="4" height="4"/><rect class="cls-1" x="47" y="16" width="4" height="4"/><rect class="cls-1" x="47" y="12" width="4" height="4"/><rect class="cls-1" x="47" y="8" width="4" height="4"/><rect class="cls-1" x="43" y="236" width="4" height="4"/><rect class="cls-1" x="43" y="232" width="4" height="4"/><rect class="cls-1" x="43" y="228" width="4" height="4"/><rect class="cls-1" x="43" y="224" width="4" height="4"/><rect class="cls-1" x="43" y="221" width="4" height="3"/><rect class="cls-1" x="43" y="217" width="4" height="4"/><rect class="cls-1" x="43" y="213" width="4" height="4"/><rect class="cls-1" x="43" y="209" width="4" height="4"/><rect class="cls-1" x="43" y="205" width="4" height="4"/><rect class="cls-1" x="43" y="201" width="4" height="4"/><rect class="cls-1" x="43" y="197" width="4" height="4"/><rect class="cls-1" x="43" y="193" width="4" height="4"/><rect class="cls-1" x="43" y="189" width="4" height="4"/><rect class="cls-1" x="43" y="185" width="4" height="4"/><rect class="cls-1" x="43" y="181" width="4" height="4"/><rect class="cls-1" x="43" y="177" width="4" height="4"/><rect class="cls-1" x="43" y="146" width="4" height="4"/><rect class="cls-1" x="43" y="102" width="4" height="4"/><rect class="cls-1" x="43" y="31" width="4" height="4"/><rect class="cls-1" x="43" y="28" width="4" height="3"/><rect class="cls-1" x="43" y="24" width="4" height="4"/><rect class="cls-1" x="43" y="20" width="4" height="4"/><rect class="cls-1" x="43" y="16" width="4" height="4"/><rect class="cls-1" x="43" y="12" width="4" height="4"/><rect class="cls-1" x="43" y="8" width="4" height="4"/><rect class="cls-1" x="39" y="232" width="4" height="4"/><rect class="cls-1" x="39" y="228" width="4" height="4"/><rect class="cls-1" x="39" y="224" width="4" height="4"/><rect class="cls-1" x="39" y="221" width="4" height="3"/><rect class="cls-1" x="39" y="217" width="4" height="4"/><rect class="cls-1" x="39" y="213" width="4" height="4"/><rect class="cls-1" x="39" y="209" width="4" height="4"/><rect class="cls-1" x="39" y="205" width="4" height="4"/><rect class="cls-1" x="39" y="201" width="4" height="4"/><rect class="cls-1" x="39" y="146" width="4" height="4"/><rect class="cls-1" x="39" y="102" width="4" height="4"/><rect class="cls-1" x="39" y="35" width="4" height="4"/><rect class="cls-1" x="39" y="31" width="4" height="4"/><rect class="cls-1" x="39" y="28" width="4" height="3"/><rect class="cls-1" x="39" y="24" width="4" height="4"/><rect class="cls-1" x="39" y="20" width="4" height="4"/><rect class="cls-1" x="39" y="16" width="4" height="4"/><rect class="cls-1" x="39" y="12" width="4" height="4"/><rect class="cls-1" x="35" y="228" width="4" height="4"/><rect class="cls-1" x="35" y="224" width="4" height="4"/><rect class="cls-1" x="35" y="221" width="4" height="3"/><rect class="cls-1" x="35" y="217" width="4" height="4"/><rect class="cls-1" x="35" y="213" width="4" height="4"/><rect class="cls-1" x="35" y="209" width="4" height="4"/><rect class="cls-1" x="35" y="205" width="4" height="4"/><rect class="cls-1" x="35" y="201" width="4" height="4"/><rect class="cls-1" x="35" y="197" width="4" height="4"/><rect class="cls-1" x="35" y="146" width="4" height="4"/><rect class="cls-1" x="35" y="106" width="4" height="4"/><rect class="cls-1" x="35" y="35" width="4" height="4"/><rect class="cls-1" x="35" y="31" width="4" height="4"/><rect class="cls-1" x="35" y="28" width="4" height="3"/><rect class="cls-1" x="35" y="24" width="4" height="4"/><rect class="cls-1" x="35" y="20" width="4" height="4"/><rect class="cls-1" x="31" y="224" width="4" height="4"/><rect class="cls-1" x="31" y="221" width="4" height="3"/><rect class="cls-1" x="31" y="217" width="4" height="4"/><rect class="cls-1" x="31" y="213" width="4" height="4"/><rect class="cls-1" x="31" y="209" width="4" height="4"/><rect class="cls-1" x="31" y="205" width="4" height="4"/><rect class="cls-1" x="31" y="201" width="4" height="4"/><rect class="cls-1" x="31" y="197" width="4" height="4"/><rect class="cls-1" x="31" y="193" width="4" height="4"/><rect class="cls-1" x="31" y="142" width="4" height="4"/><rect class="cls-1" x="31" y="106" width="4" height="4"/><rect class="cls-1" x="31" y="35" width="4" height="4"/><rect class="cls-1" x="31" y="31" width="4" height="4"/><rect class="cls-1" x="31" y="28" width="4" height="3"/><rect class="cls-1" x="31" y="24" width="4" height="4"/><rect class="cls-1" x="31" y="20" width="4" height="4"/><rect class="cls-1" x="27" y="221" width="4" height="3"/><rect class="cls-1" x="27" y="217" width="4" height="4"/><rect class="cls-1" x="27" y="213" width="4" height="4"/><rect class="cls-1" x="27" y="209" width="4" height="4"/><rect class="cls-1" x="27" y="205" width="4" height="4"/><rect class="cls-1" x="27" y="201" width="4" height="4"/><rect class="cls-1" x="27" y="197" width="4" height="4"/><rect class="cls-1" x="27" y="193" width="4" height="4"/><rect class="cls-1" x="27" y="142" width="4" height="4"/><rect class="cls-1" x="27" y="138" width="4" height="4"/><rect class="cls-1" x="27" y="106" width="4" height="4"/><rect class="cls-1" x="27" y="35" width="4" height="4"/><rect class="cls-1" x="27" y="31" width="4" height="4"/><rect class="cls-1" x="27" y="28" width="4" height="3"/><rect class="cls-1" x="27" y="24" width="4" height="4"/><rect class="cls-1" x="23" y="213" width="4" height="4"/><rect class="cls-1" x="23" y="209" width="4" height="4"/><rect class="cls-1" x="23" y="205" width="4" height="4"/><rect class="cls-1" x="23" y="201" width="4" height="4"/><rect class="cls-1" x="23" y="197" width="4" height="4"/><rect class="cls-1" x="23" y="193" width="4" height="4"/><rect class="cls-1" x="23" y="134" width="4" height="4"/><rect class="cls-1" x="23" y="130" width="4" height="4"/><rect class="cls-1" x="23" y="106" width="4" height="4"/><rect class="cls-1" x="23" y="39" width="4" height="4"/><rect class="cls-1" x="23" y="35" width="4" height="4"/><rect class="cls-1" x="23" y="31" width="4" height="4"/><rect class="cls-1" x="19" y="205" width="4" height="4"/><rect class="cls-1" x="19" y="201" width="4" height="4"/><rect class="cls-1" x="19" y="197" width="4" height="4"/><rect class="cls-1" x="19" y="193" width="4" height="4"/><rect class="cls-1" x="19" y="126" width="4" height="4"/><rect class="cls-1" x="19" y="122" width="4" height="4"/><rect class="cls-1" x="19" y="118" width="4" height="4"/><rect class="cls-1" x="19" y="114" width="4" height="4"/><rect class="cls-1" x="19" y="110" width="4" height="4"/><rect class="cls-1" x="19" y="43" width="4" height="4"/><rect class="cls-1" x="19" y="39" width="4" height="4"/><rect class="cls-1" x="19" y="35" width="4" height="4"/><rect class="cls-1" x="15" y="189" width="4" height="4"/><rect class="cls-1" x="15" y="185" width="4" height="4"/><rect class="cls-1" x="15" y="181" width="4" height="4"/><rect class="cls-1" x="15" y="177" width="4" height="4"/><rect class="cls-1" x="15" y="173" width="4" height="4"/><rect class="cls-1" x="15" y="118" width="4" height="4"/><rect class="cls-1" x="15" y="114" width="4" height="4"/><rect class="cls-1" x="15" y="110" width="4" height="4"/><rect class="cls-1" x="15" y="47" width="4" height="4"/><rect class="cls-1" x="15" y="43" width="4" height="4"/><rect class="cls-1" x="15" y="39" width="4" height="4"/><rect class="cls-1" x="11" y="51" width="4" height="4"/><rect class="cls-1" x="11" y="47" width="4" height="4"/><rect class="cls-1" x="7" y="63" width="4" height="4"/><rect class="cls-1" x="7" y="59" width="4" height="4"/><rect class="cls-1" x="7" y="55" width="4" height="4"/><rect class="cls-1" x="7" y="51" width="4" height="4"/><rect class="cls-1" x="4" y="71" width="3" height="4"/><rect class="cls-1" x="4" y="67" width="3" height="4"/><rect class="cls-1" x="4" y="63" width="3" height="4"/><rect class="cls-1" x="4" y="59" width="3" height="4"/><rect class="cls-1" y="87" width="4" height="4"/><rect class="cls-1" y="83" width="4" height="4"/><rect class="cls-1" y="79" width="4" height="4"/><rect class="cls-1" y="75" width="4" height="4"/><rect class="cls-1" y="71" width="4" height="4"/><rect class="cls-1" y="67" width="4" height="4"/><text class="cls-2" transform="translate(196.93 198.67)">ulises.codes</text></g></g></svg>