<svg viewBox="0 0 319.15 58.1" xmlns="http://www.w3.org/2000/svg"><g fill="#171717"><path d="m36.53 41.99h.91v.91h-.91z"/><path d="m36.53 41.09h.91v.91h-.91z"/><path d="m36.53 40.18h.91v.91h-.91z"/><path d="m36.53 39.27h.91v.91h-.91z"/><path d="m36.53 38.36h.91v.91h-.91z"/><path d="m36.53 37.46h.91v.91h-.91z"/><path d="m35.62 46.53h.91v.91h-.91z"/><path d="m35.62 45.62h.91v.91h-.91z"/><path d="m35.62 44.71h.91v.91h-.91z"/><path d="m35.62 43.81h.91v.91h-.91z"/><path d="m35.62 42.9h.91v.91h-.91z"/><path d="m35.62 41.99h.91v.91h-.91z"/><path d="m35.62 41.09h.91v.91h-.91z"/><path d="m34.71 48.34h.91v.91h-.91z"/><path d="m34.71 47.44h.91v.91h-.91z"/><path d="m34.71 46.53h.91v.91h-.91z"/><path d="m34.71 45.62h.91v.91h-.91z"/><path d="m34.71 44.71h.91v.91h-.91z"/><path d="m34.71 43.81h.91v.91h-.91z"/><path d="m34.71 42.9h.91v.91h-.91z"/><path d="m34.71 41.99h.91v.91h-.91z"/><path d="m34.71 24.98h.91v.91h-.91z"/><path d="m34.71 24.07h.91v.91h-.91z"/><path d="m34.71 23.16h.91v.91h-.91z"/><path d="m34.71 17.94h.91v.91h-.91z"/><path d="m34.71 17.04h.91v.91h-.91z"/><path d="m33.8 50.16h.91v.68h-.91z"/><path d="m33.8 49.25h.91v.91h-.91z"/><path d="m33.8 48.34h.91v.91h-.91z"/><path d="m33.8 47.44h.91v.91h-.91z"/><path d="m33.8 46.53h.91v.91h-.91z"/><path d="m33.8 45.62h.91v.91h-.91z"/><path d="m33.8 44.71h.91v.91h-.91z"/><path d="m33.8 43.81h.91v.91h-.91z"/><path d="m33.8 42.9h.91v.91h-.91z"/><path d="m33.8 41.99h.91v.91h-.91z"/><path d="m33.8 28.61h.91v.91h-.91z"/><path d="m33.8 27.7h.91v.91h-.91z"/><path d="m33.8 26.79h.91v.91h-.91z"/><path d="m33.8 25.89h.91v.91h-.91z"/><path d="m33.8 24.98h.91v.91h-.91z"/><path d="m33.8 24.07h.91v.91h-.91z"/><path d="m33.8 23.16h.91v.91h-.91z"/><path d="m33.8 22.26h.91v.91h-.91z"/><path d="m33.8 21.35h.91v.91h-.91z"/><path d="m33.8 16.13h.91v.91h-.91z"/><path d="m33.8 15.22h.91v.91h-.91z"/><path d="m33.8 14.32h.91v.91h-.91z"/><path d="m32.9 50.16h.91v.68h-.91z"/><path d="m32.9 49.25h.91v.91h-.91z"/><path d="m32.9 48.34h.91v.91h-.91z"/><path d="m32.9 47.44h.91v.91h-.91z"/><path d="m32.9 46.53h.91v.91h-.91z"/><path d="m32.9 45.62h.91v.91h-.91z"/><path d="m32.9 44.71h.91v.91h-.91z"/><path d="m32.9 43.81h.91v.91h-.91z"/><path d="m32.9 42.9h.91v.91h-.91z"/><path d="m32.9 41.99h.91v.91h-.91z"/><path d="m32.9 41.09h.91v.91h-.91z"/><path d="m32.9 40.18h.91v.91h-.91z"/><path d="m32.9 39.27h.91v.91h-.91z"/><path d="m32.9 29.52h.91v.91h-.91z"/><path d="m32.9 21.35h.91v.91h-.91z"/><path d="m32.9 13.41h.91v.91h-.91z"/><path d="m32.9 12.5h.91v.91h-.91z"/><path d="m31.99 50.84h.91v.91h-.91z"/><path d="m31.99 50.16h.91v.68h-.91z"/><path d="m31.99 49.25h.91v.91h-.91z"/><path d="m31.99 48.34h.91v.91h-.91z"/><path d="m31.99 47.44h.91v.91h-.91z"/><path d="m31.99 46.53h.91v.91h-.91z"/><path d="m31.99 45.62h.91v.91h-.91z"/><path d="m31.99 44.71h.91v.91h-.91z"/><path d="m31.99 43.81h.91v.91h-.91z"/><path d="m31.99 42.9h.91v.91h-.91z"/><path d="m31.99 41.99h.91v.91h-.91z"/><path d="m31.99 41.09h.91v.91h-.91z"/><path d="m31.99 40.18h.91v.91h-.91z"/><path d="m31.99 39.27h.91v.91h-.91z"/><path d="m31.99 38.36h.91v.91h-.91z"/><path d="m31.99 30.42h.91v.91h-.91z"/><path d="m31.99 21.35h.91v.91h-.91z"/><path d="m31.99 11.59h.91v.91h-.91z"/><path d="m31.08 51.75h.91v.91h-.91z"/><path d="m31.08 50.84h.91v.91h-.91z"/><path d="m31.08 50.16h.91v.68h-.91z"/><path d="m31.08 49.25h.91v.91h-.91z"/><path d="m31.08 48.34h.91v.91h-.91z"/><path d="m31.08 47.44h.91v.91h-.91z"/><path d="m31.08 46.53h.91v.91h-.91z"/><path d="m31.08 45.62h.91v.91h-.91z"/><path d="m31.08 44.71h.91v.91h-.91z"/><path d="m31.08 43.81h.91v.91h-.91z"/><path d="m31.08 42.9h.91v.91h-.91z"/><path d="m31.08 41.99h.91v.91h-.91z"/><path d="m31.08 41.09h.91v.91h-.91z"/><path d="m31.08 40.18h.91v.91h-.91z"/><path d="m31.08 39.27h.91v.91h-.91z"/><path d="m31.08 38.36h.91v.91h-.91z"/><path d="m31.08 30.42h.91v.91h-.91z"/><path d="m31.08 21.35h.91v.91h-.91z"/><path d="m31.08 10.69h.91v.91h-.91z"/><path d="m31.08 9.78h.91v.91h-.91z"/><path d="m30.4 52.66h.68v.91h-.68z"/><path d="m30.4 51.75h.68v.91h-.68z"/><path d="m30.4 50.84h.68v.91h-.68z"/><path d="m30.4 50.16h.68v.68h-.68z"/><path d="m30.4 49.25h.68v.91h-.68z"/><path d="m30.4 48.34h.68v.91h-.68z"/><path d="m30.4 47.44h.68v.91h-.68z"/><path d="m30.4 46.53h.68v.91h-.68z"/><path d="m30.4 45.62h.68v.91h-.68z"/><path d="m30.4 41.99h.68v.91h-.68z"/><path d="m30.4 41.09h.68v.91h-.68z"/><path d="m30.4 40.18h.68v.91h-.68z"/><path d="m30.4 39.27h.68v.91h-.68z"/><path d="m30.4 38.36h.68v.91h-.68z"/><path d="m30.4 37.46h.68v.91h-.68z"/><path d="m30.4 30.42h.68v.91h-.68z"/><path d="m30.4 21.35h.68v.91h-.68z"/><path d="m30.4 9.78h.68v.91h-.68z"/><path d="m29.49 53.56h.91v.91h-.91z"/><path d="m29.49 52.66h.91v.91h-.91z"/><path d="m29.49 51.75h.91v.91h-.91z"/><path d="m29.49 50.84h.91v.91h-.91z"/><path d="m29.49 50.16h.91v.68h-.91z"/><path d="m29.49 49.25h.91v.91h-.91z"/><path d="m29.49 48.34h.91v.91h-.91z"/><path d="m29.49 47.44h.91v.91h-.91z"/><path d="m29.49 46.53h.91v.91h-.91z"/><path d="m29.49 41.99h.91v.91h-.91z"/><path d="m29.49 41.09h.91v.91h-.91z"/><path d="m29.49 40.18h.91v.91h-.91z"/><path d="m29.49 39.27h.91v.91h-.91z"/><path d="m29.49 38.36h.91v.91h-.91z"/><path d="m29.49 37.46h.91v.91h-.91z"/><path d="m29.49 31.33h.91v.91h-.91z"/><path d="m29.49 21.35h.91v.91h-.91z"/><path d="m29.49 8.87h.91v.91h-.91z"/><path d="m28.58 54.47h.91v.91h-.91z"/><path d="m28.58 53.56h.91v.91h-.91z"/><path d="m28.58 52.66h.91v.91h-.91z"/><path d="m28.58 51.75h.91v.91h-.91z"/><path d="m28.58 50.84h.91v.91h-.91z"/><path d="m28.58 50.16h.91v.68h-.91z"/><path d="m28.58 49.25h.91v.91h-.91z"/><path d="m28.58 48.34h.91v.91h-.91z"/><path d="m28.58 44.71h.91v.91h-.91z"/><path d="m28.58 43.81h.91v.91h-.91z"/><path d="m28.58 42.9h.91v.91h-.91z"/><path d="m28.58 41.99h.91v.91h-.91z"/><path d="m28.58 41.09h.91v.91h-.91z"/><path d="m28.58 40.18h.91v.91h-.91z"/><path d="m28.58 39.27h.91v.91h-.91z"/><path d="m28.58 38.36h.91v.91h-.91z"/><path d="m28.58 37.46h.91v.91h-.91z"/><path d="m28.58 31.33h.91v.91h-.91z"/><path d="m28.58 21.35h.91v.91h-.91z"/><path d="m28.58 7.96h.91v.91h-.91z"/><path d="m27.68 55.38h.91v.91h-.91z"/><path d="m27.68 54.47h.91v.91h-.91z"/><path d="m27.68 53.56h.91v.91h-.91z"/><path d="m27.68 52.66h.91v.91h-.91z"/><path d="m27.68 51.75h.91v.91h-.91z"/><path d="m27.68 50.84h.91v.91h-.91z"/><path d="m27.68 46.53h.91v.91h-.91z"/><path d="m27.68 45.62h.91v.91h-.91z"/><path d="m27.68 44.71h.91v.91h-.91z"/><path d="m27.68 43.81h.91v.91h-.91z"/><path d="m27.68 42.9h.91v.91h-.91z"/><path d="m27.68 41.99h.91v.91h-.91z"/><path d="m27.68 41.09h.91v.91h-.91z"/><path d="m27.68 40.18h.91v.91h-.91z"/><path d="m27.68 39.27h.91v.91h-.91z"/><path d="m27.68 38.36h.91v.91h-.91z"/><path d="m27.68 37.46h.91v.91h-.91z"/><path d="m27.68 31.33h.91v.91h-.91z"/><path d="m27.68 21.35h.91v.91h-.91z"/><path d="m27.68 7.96h.91v.91h-.91z"/><path d="m27.68 7.06h.91v.91h-.91z"/><path d="m26.77 55.38h.91v.91h-.91z"/><path d="m26.77 54.47h.91v.91h-.91z"/><path d="m26.77 53.56h.91v.91h-.91z"/><path d="m26.77 52.66h.91v.91h-.91z"/><path d="m26.77 51.75h.91v.91h-.91z"/><path d="m26.77 47.44h.91v.91h-.91z"/><path d="m26.77 46.53h.91v.91h-.91z"/><path d="m26.77 45.62h.91v.91h-.91z"/><path d="m26.77 44.71h.91v.91h-.91z"/><path d="m26.77 41.99h.91v.91h-.91z"/><path d="m26.77 41.09h.91v.91h-.91z"/><path d="m26.77 40.18h.91v.91h-.91z"/><path d="m26.77 39.27h.91v.91h-.91z"/><path d="m26.77 38.36h.91v.91h-.91z"/><path d="m26.77 37.46h.91v.91h-.91z"/><path d="m26.77 31.33h.91v.91h-.91z"/><path d="m26.77 22.26h.91v.91h-.91z"/><path d="m26.77 21.35h.91v.91h-.91z"/><path d="m26.77 7.06h.91v.91h-.91z"/><path d="m26.77 6.37h.91v.68h-.91z"/><path d="m25.86 56.29h.91v.91h-.91z"/><path d="m25.86 55.38h.91v.91h-.91z"/><path d="m25.86 54.47h.91v.91h-.91z"/><path d="m25.86 53.56h.91v.91h-.91z"/><path d="m25.86 52.66h.91v.91h-.91z"/><path d="m25.86 51.75h.91v.91h-.91z"/><path d="m25.86 47.44h.91v.91h-.91z"/><path d="m25.86 46.53h.91v.91h-.91z"/><path d="m25.86 45.62h.91v.91h-.91z"/><path d="m25.86 44.71h.91v.91h-.91z"/><path d="m25.86 41.99h.91v.91h-.91z"/><path d="m25.86 41.09h.91v.91h-.91z"/><path d="m25.86 40.18h.91v.91h-.91z"/><path d="m25.86 39.27h.91v.91h-.91z"/><path d="m25.86 38.36h.91v.91h-.91z"/><path d="m25.86 37.46h.91v.91h-.91z"/><path d="m25.86 36.55h.91v.91h-.91z"/><path d="m25.86 31.33h.91v.91h-.91z"/><path d="m25.86 22.26h.91v.91h-.91z"/><path d="m25.86 21.35h.91v.91h-.91z"/><path d="m25.86 7.06h.91v.91h-.91z"/><path d="m25.86 6.37h.91v.68h-.91z"/><path d="m25.86 5.44h.91v.91h-.91z"/><path d="m24.96 56.29h.91v.91h-.91z"/><path d="m24.96 55.38h.91v.91h-.91z"/><path d="m24.96 54.47h.91v.91h-.91z"/><path d="m24.96 53.56h.91v.91h-.91z"/><path d="m24.96 52.66h.91v.91h-.91z"/><path d="m24.96 51.75h.91v.91h-.91z"/><path d="m24.96 47.44h.91v.91h-.91z"/><path d="m24.96 46.53h.91v.91h-.91z"/><path d="m24.96 45.62h.91v.91h-.91z"/><path d="m24.96 41.99h.91v.91h-.91z"/><path d="m24.96 41.09h.91v.91h-.91z"/><path d="m24.96 40.18h.91v.91h-.91z"/><path d="m24.96 39.27h.91v.91h-.91z"/><path d="m24.96 38.36h.91v.91h-.91z"/><path d="m24.96 37.46h.91v.91h-.91z"/><path d="m24.96 36.55h.91v.91h-.91z"/><path d="m24.96 35.64h.91v.91h-.91z"/><path d="m24.96 30.42h.91v.91h-.91z"/><path d="m24.96 22.26h.91v.91h-.91z"/><path d="m24.96 7.06h.91v.91h-.91z"/><path d="m24.96 6.37h.91v.68h-.91z"/><path d="m24.96 5.44h.91v.91h-.91z"/><path d="m24.96 4.54h.91v.91h-.91z"/><path d="m24.96 3.63h.91v.91h-.91z"/><path d="m24.05 56.29h.91v.91h-.91z"/><path d="m24.05 55.38h.91v.91h-.91z"/><path d="m24.05 54.47h.91v.91h-.91z"/><path d="m24.05 53.56h.91v.91h-.91z"/><path d="m24.05 52.66h.91v.91h-.91z"/><path d="m24.05 51.75h.91v.91h-.91z"/><path d="m24.05 50.84h.91v.91h-.91z"/><path d="m24.05 50.16h.91v.68h-.91z"/><path d="m24.05 48.34h.91v.91h-.91z"/><path d="m24.05 47.44h.91v.91h-.91z"/><path d="m24.05 46.53h.91v.91h-.91z"/><path d="m24.05 41.99h.91v.91h-.91z"/><path d="m24.05 41.09h.91v.91h-.91z"/><path d="m24.05 40.18h.91v.91h-.91z"/><path d="m24.05 39.27h.91v.91h-.91z"/><path d="m24.05 38.36h.91v.91h-.91z"/><path d="m24.05 37.46h.91v.91h-.91z"/><path d="m24.05 36.55h.91v.91h-.91z"/><path d="m24.05 35.64h.91v.91h-.91z"/><path d="m24.05 30.42h.91v.91h-.91z"/><path d="m24.05 22.26h.91v.91h-.91z"/><path d="m24.05 6.37h.91v.68h-.91z"/><path d="m24.05 5.44h.91v.91h-.91z"/><path d="m24.05 4.54h.91v.91h-.91z"/><path d="m24.05 3.63h.91v.91h-.91z"/><path d="m23.14 57.19h.91v.91h-.91z"/><path d="m23.14 56.29h.91v.91h-.91z"/><path d="m23.14 55.38h.91v.91h-.91z"/><path d="m23.14 54.47h.91v.91h-.91z"/><path d="m23.14 53.56h.91v.91h-.91z"/><path d="m23.14 52.66h.91v.91h-.91z"/><path d="m23.14 51.75h.91v.91h-.91z"/><path d="m23.14 50.84h.91v.91h-.91z"/><path d="m23.14 50.16h.91v.68h-.91z"/><path d="m23.14 48.34h.91v.91h-.91z"/><path d="m23.14 47.44h.91v.91h-.91z"/><path d="m23.14 46.53h.91v.91h-.91z"/><path d="m23.14 41.99h.91v.91h-.91z"/><path d="m23.14 41.09h.91v.91h-.91z"/><path d="m23.14 40.18h.91v.91h-.91z"/><path d="m23.14 39.27h.91v.91h-.91z"/><path d="m23.14 38.36h.91v.91h-.91z"/><path d="m23.14 37.46h.91v.91h-.91z"/><path d="m23.14 36.55h.91v.91h-.91z"/><path d="m23.14 35.64h.91v.91h-.91z"/><path d="m23.14 29.52h.91v.91h-.91z"/><path d="m23.14 22.26h.91v.91h-.91z"/><path d="m23.14 6.37h.91v.68h-.91z"/><path d="m23.14 5.44h.91v.91h-.91z"/><path d="m23.14 4.54h.91v.91h-.91z"/><path d="m23.14 3.63h.91v.91h-.91z"/><path d="m22.23 57.19h.91v.91h-.91z"/><path d="m22.23 56.29h.91v.91h-.91z"/><path d="m22.23 55.38h.91v.91h-.91z"/><path d="m22.23 54.47h.91v.91h-.91z"/><path d="m22.23 53.56h.91v.91h-.91z"/><path d="m22.23 52.66h.91v.91h-.91z"/><path d="m22.23 51.75h.91v.91h-.91z"/><path d="m22.23 50.84h.91v.91h-.91z"/><path d="m22.23 50.16h.91v.68h-.91z"/><path d="m22.23 48.34h.91v.91h-.91z"/><path d="m22.23 47.44h.91v.91h-.91z"/><path d="m22.23 46.53h.91v.91h-.91z"/><path d="m22.23 41.99h.91v.91h-.91z"/><path d="m22.23 41.09h.91v.91h-.91z"/><path d="m22.23 40.18h.91v.91h-.91z"/><path d="m22.23 39.27h.91v.91h-.91z"/><path d="m22.23 38.36h.91v.91h-.91z"/><path d="m22.23 37.46h.91v.91h-.91z"/><path d="m22.23 36.55h.91v.91h-.91z"/><path d="m22.23 35.64h.91v.91h-.91z"/><path d="m22.23 28.61h.91v.91h-.91z"/><path d="m22.23 27.7h.91v.91h-.91z"/><path d="m22.23 23.16h.91v.91h-.91z"/><path d="m22.23 22.26h.91v.91h-.91z"/><path d="m22.23 6.37h.91v.68h-.91z"/><path d="m22.23 5.44h.91v.91h-.91z"/><path d="m22.23 4.54h.91v.91h-.91z"/><path d="m22.23 3.63h.91v.91h-.91z"/><path d="m22.23 2.72h.91v.91h-.91z"/><path d="m21.33 57.19h.91v.91h-.91z"/><path d="m21.33 56.29h.91v.91h-.91z"/><path d="m21.33 55.38h.91v.91h-.91z"/><path d="m21.33 54.47h.91v.91h-.91z"/><path d="m21.33 53.56h.91v.91h-.91z"/><path d="m21.33 52.66h.91v.91h-.91z"/><path d="m21.33 51.75h.91v.91h-.91z"/><path d="m21.33 50.84h.91v.91h-.91z"/><path d="m21.33 50.16h.91v.68h-.91z"/><path d="m21.33 48.34h.91v.91h-.91z"/><path d="m21.33 47.44h.91v.91h-.91z"/><path d="m21.33 46.53h.91v.91h-.91z"/><path d="m21.33 41.99h.91v.91h-.91z"/><path d="m21.33 41.09h.91v.91h-.91z"/><path d="m21.33 40.18h.91v.91h-.91z"/><path d="m21.33 39.27h.91v.91h-.91z"/><path d="m21.33 38.36h.91v.91h-.91z"/><path d="m21.33 37.46h.91v.91h-.91z"/><path d="m21.33 36.55h.91v.91h-.91z"/><path d="m21.33 26.79h.91v.91h-.91z"/><path d="m21.33 25.89h.91v.91h-.91z"/><path d="m21.33 24.98h.91v.91h-.91z"/><path d="m21.33 24.07h.91v.91h-.91z"/><path d="m21.33 23.16h.91v.91h-.91z"/><path d="m21.33 6.37h.91v.68h-.91z"/><path d="m21.33 5.44h.91v.91h-.91z"/><path d="m21.33 4.54h.91v.91h-.91z"/><path d="m21.33 3.63h.91v.91h-.91z"/><path d="m21.33 2.72h.91v.91h-.91z"/><path d="m21.33 1.81h.91v.91h-.91z"/><path d="m20.42 57.19h.91v.91h-.91z"/><path d="m20.42 56.29h.91v.91h-.91z"/><path d="m20.42 55.38h.91v.91h-.91z"/><path d="m20.42 54.47h.91v.91h-.91z"/><path d="m20.42 53.56h.91v.91h-.91z"/><path d="m20.42 52.66h.91v.91h-.91z"/><path d="m20.42 51.75h.91v.91h-.91z"/><path d="m20.42 50.84h.91v.91h-.91z"/><path d="m20.42 50.16h.91v.68h-.91z"/><path d="m20.42 48.34h.91v.91h-.91z"/><path d="m20.42 47.44h.91v.91h-.91z"/><path d="m20.42 46.53h.91v.91h-.91z"/><path d="m20.42 41.99h.91v.91h-.91z"/><path d="m20.42 41.09h.91v.91h-.91z"/><path d="m20.42 40.18h.91v.91h-.91z"/><path d="m20.42 39.27h.91v.91h-.91z"/><path d="m20.42 38.36h.91v.91h-.91z"/><path d="m20.42 37.46h.91v.91h-.91z"/><path d="m20.42 36.55h.91v.91h-.91z"/><path d="m20.42 24.98h.91v.91h-.91z"/><path d="m20.42 24.07h.91v.91h-.91z"/><path d="m20.42 6.37h.91v.68h-.91z"/><path d="m20.42 5.44h.91v.91h-.91z"/><path d="m20.42 4.54h.91v.91h-.91z"/><path d="m20.42 3.63h.91v.91h-.91z"/><path d="m20.42 2.72h.91v.91h-.91z"/><path d="m20.42 1.81h.91v.91h-.91z"/><path d="m19.51 57.19h.91v.91h-.91z"/><path d="m19.51 56.29h.91v.91h-.91z"/><path d="m19.51 55.38h.91v.91h-.91z"/><path d="m19.51 54.47h.91v.91h-.91z"/><path d="m19.51 53.56h.91v.91h-.91z"/><path d="m19.51 52.66h.91v.91h-.91z"/><path d="m19.51 51.75h.91v.91h-.91z"/><path d="m19.51 50.84h.91v.91h-.91z"/><path d="m19.51 50.16h.91v.68h-.91z"/><path d="m19.51 48.34h.91v.91h-.91z"/><path d="m19.51 47.44h.91v.91h-.91z"/><path d="m19.51 46.53h.91v.91h-.91z"/><path d="m19.51 41.99h.91v.91h-.91z"/><path d="m19.51 41.09h.91v.91h-.91z"/><path d="m19.51 40.18h.91v.91h-.91z"/><path d="m19.51 39.27h.91v.91h-.91z"/><path d="m19.51 38.36h.91v.91h-.91z"/><path d="m19.51 37.46h.91v.91h-.91z"/><path d="m19.51 36.55h.91v.91h-.91z"/><path d="m19.51 24.98h.91v.91h-.91z"/><path d="m19.51 24.07h.91v.91h-.91z"/><path d="m19.51 6.37h.91v.68h-.91z"/><path d="m19.51 5.44h.91v.91h-.91z"/><path d="m19.51 4.54h.91v.91h-.91z"/><path d="m19.51 3.63h.91v.91h-.91z"/><path d="m19.51 2.72h.91v.91h-.91z"/><path d="m19.51 1.81h.91v.91h-.91z"/><path d="m18.6 57.19h.91v.91h-.91z"/><path d="m18.6 56.29h.91v.91h-.91z"/><path d="m18.6 55.38h.91v.91h-.91z"/><path d="m18.6 54.47h.91v.91h-.91z"/><path d="m18.6 53.56h.91v.91h-.91z"/><path d="m18.6 52.66h.91v.91h-.91z"/><path d="m18.6 51.75h.91v.91h-.91z"/><path d="m18.6 50.84h.91v.91h-.91z"/><path d="m18.6 50.16h.91v.68h-.91z"/><path d="m18.6 47.44h.91v.91h-.91z"/><path d="m18.6 46.53h.91v.91h-.91z"/><path d="m18.6 41.99h.91v.91h-.91z"/><path d="m18.6 41.09h.91v.91h-.91z"/><path d="m18.6 40.18h.91v.91h-.91z"/><path d="m18.6 39.27h.91v.91h-.91z"/><path d="m18.6 38.36h.91v.91h-.91z"/><path d="m18.6 37.46h.91v.91h-.91z"/><path d="m18.6 36.55h.91v.91h-.91z"/><path d="m18.6 35.64h.91v.91h-.91z"/><path d="m18.6 24.98h.91v.91h-.91z"/><path d="m18.6 24.07h.91v.91h-.91z"/><path d="m18.6 6.37h.91v.68h-.91z"/><path d="m18.6 5.44h.91v.91h-.91z"/><path d="m18.6 4.54h.91v.91h-.91z"/><path d="m18.6 3.63h.91v.91h-.91z"/><path d="m18.6 2.72h.91v.91h-.91z"/><path d="m18.6 1.81h.91v.91h-.91z"/><path d="m17.7 57.19h.91v.91h-.91z"/><path d="m17.7 56.29h.91v.91h-.91z"/><path d="m17.7 55.38h.91v.91h-.91z"/><path d="m17.7 54.47h.91v.91h-.91z"/><path d="m17.7 53.56h.91v.91h-.91z"/><path d="m17.7 47.44h.91v.91h-.91z"/><path d="m17.7 46.53h.91v.91h-.91z"/><path d="m17.7 45.62h.91v.91h-.91z"/><path d="m17.7 41.99h.91v.91h-.91z"/><path d="m17.7 41.09h.91v.91h-.91z"/><path d="m17.7 40.18h.91v.91h-.91z"/><path d="m17.7 39.27h.91v.91h-.91z"/><path d="m17.7 38.36h.91v.91h-.91z"/><path d="m17.7 37.46h.91v.91h-.91z"/><path d="m17.7 36.55h.91v.91h-.91z"/><path d="m17.7 35.64h.91v.91h-.91z"/><path d="m17.7 27.7h.91v.91h-.91z"/><path d="m17.7 26.79h.91v.91h-.91z"/><path d="m17.7 25.89h.91v.91h-.91z"/><path d="m17.7 24.98h.91v.91h-.91z"/><path d="m17.7 24.07h.91v.91h-.91z"/><path d="m17.7 7.06h.91v.91h-.91z"/><path d="m17.7 6.37h.91v.68h-.91z"/><path d="m17.7 5.44h.91v.91h-.91z"/><path d="m17.7 4.54h.91v.91h-.91z"/><path d="m17.7 3.63h.91v.91h-.91z"/><path d="m17.7 2.72h.91v.91h-.91z"/><path d="m17.7 1.81h.91v.91h-.91z"/><path d="m17.7.91h.91v.91h-.91z"/><path d="m16.79 56.29h.91v.91h-.91z"/><path d="m16.79 55.38h.91v.91h-.91z"/><path d="m16.79 54.47h.91v.91h-.91z"/><path d="m16.79 53.56h.91v.91h-.91z"/><path d="m16.79 47.44h.91v.91h-.91z"/><path d="m16.79 46.53h.91v.91h-.91z"/><path d="m16.79 45.62h.91v.91h-.91z"/><path d="m16.79 44.71h.91v.91h-.91z"/><path d="m16.79 41.99h.91v.91h-.91z"/><path d="m16.79 41.09h.91v.91h-.91z"/><path d="m16.79 40.18h.91v.91h-.91z"/><path d="m16.79 39.27h.91v.91h-.91z"/><path d="m16.79 38.36h.91v.91h-.91z"/><path d="m16.79 37.46h.91v.91h-.91z"/><path d="m16.79 36.55h.91v.91h-.91z"/><path d="m16.79 35.64h.91v.91h-.91z"/><path d="m16.79 30.42h.91v.91h-.91z"/><path d="m16.79 29.52h.91v.91h-.91z"/><path d="m16.79 28.61h.91v.91h-.91z"/><path d="m16.79 24.07h.91v.91h-.91z"/><path d="m16.79 7.06h.91v.91h-.91z"/><path d="m16.79 6.37h.91v.68h-.91z"/><path d="m16.79 5.44h.91v.91h-.91z"/><path d="m16.79 4.54h.91v.91h-.91z"/><path d="m16.79 3.63h.91v.91h-.91z"/><path d="m16.79 2.72h.91v.91h-.91z"/><path d="m16.79 1.81h.91v.91h-.91z"/><path d="m16.79.91h.91v.91h-.91z"/><path d="m15.88 56.29h.91v.91h-.91z"/><path d="m15.88 55.38h.91v.91h-.91z"/><path d="m15.88 54.47h.91v.91h-.91z"/><path d="m15.88 53.56h.91v.91h-.91z"/><path d="m15.88 52.66h.91v.91h-.91z"/><path d="m15.88 46.53h.91v.91h-.91z"/><path d="m15.88 45.62h.91v.91h-.91z"/><path d="m15.88 44.71h.91v.91h-.91z"/><path d="m15.88 41.99h.91v.91h-.91z"/><path d="m15.88 41.09h.91v.91h-.91z"/><path d="m15.88 40.18h.91v.91h-.91z"/><path d="m15.88 39.27h.91v.91h-.91z"/><path d="m15.88 38.36h.91v.91h-.91z"/><path d="m15.88 31.33h.91v.91h-.91z"/><path d="m15.88 23.16h.91v.91h-.91z"/><path d="m15.88 7.06h.91v.91h-.91z"/><path d="m15.88 6.37h.91v.68h-.91z"/><path d="m15.88 5.44h.91v.91h-.91z"/><path d="m15.88 4.54h.91v.91h-.91z"/><path d="m15.88 3.63h.91v.91h-.91z"/><path d="m15.88 2.72h.91v.91h-.91z"/><path d="m15.88 1.81h.91v.91h-.91z"/><path d="m15.88.91h.91v.91h-.91z"/><path d="m15.88 0h.91v.91h-.91z"/><path d="m15.2 55.38h.68v.91h-.68z"/><path d="m15.2 54.47h.68v.91h-.68z"/><path d="m15.2 53.56h.68v.91h-.68z"/><path d="m15.2 52.66h.68v.91h-.68z"/><path d="m15.2 45.62h.68v.91h-.68z"/><path d="m15.2 44.71h.68v.91h-.68z"/><path d="m15.2 43.81h.68v.91h-.68z"/><path d="m15.2 42.9h.68v.91h-.68z"/><path d="m15.2 41.99h.68v.91h-.68z"/><path d="m15.2 41.09h.68v.91h-.68z"/><path d="m15.2 40.18h.68v.91h-.68z"/><path d="m15.2 39.27h.68v.91h-.68z"/><path d="m15.2 38.36h.68v.91h-.68z"/><path d="m15.2 32.24h.68v.91h-.68z"/><path d="m15.2 23.16h.68v.91h-.68z"/><path d="m15.2 7.06h.68v.91h-.68z"/><path d="m15.2 6.37h.68v.68h-.68z"/><path d="m15.2 5.44h.68v.91h-.68z"/><path d="m15.2 4.54h.68v.91h-.68z"/><path d="m15.2 3.63h.68v.91h-.68z"/><path d="m15.2 2.72h.68v.91h-.68z"/><path d="m15.2 1.81h.68v.91h-.68z"/><path d="m15.2.91h.68v.91h-.68z"/><path d="m15.2 0h.68v.91h-.68z"/><path d="m14.29 55.38h.91v.91h-.91z"/><path d="m14.29 54.47h.91v.91h-.91z"/><path d="m14.29 53.56h.91v.91h-.91z"/><path d="m14.29 52.66h.91v.91h-.91z"/><path d="m14.29 51.75h.91v.91h-.91z"/><path d="m14.29 44.71h.91v.91h-.91z"/><path d="m14.29 43.81h.91v.91h-.91z"/><path d="m14.29 42.9h.91v.91h-.91z"/><path d="m14.29 41.99h.91v.91h-.91z"/><path d="m14.29 41.09h.91v.91h-.91z"/><path d="m14.29 40.18h.91v.91h-.91z"/><path d="m14.29 39.27h.91v.91h-.91z"/><path d="m14.29 32.24h.91v.91h-.91z"/><path d="m14.29 23.16h.91v.91h-.91z"/><path d="m14.29 7.06h.91v.91h-.91z"/><path d="m14.29 6.37h.91v.68h-.91z"/><path d="m14.29 5.44h.91v.91h-.91z"/><path d="m14.29 4.54h.91v.91h-.91z"/><path d="m14.29 3.63h.91v.91h-.91z"/><path d="m14.29 2.72h.91v.91h-.91z"/><path d="m14.29 1.81h.91v.91h-.91z"/><path d="m14.29.91h.91v.91h-.91z"/><path d="m14.29 0h.91v.91h-.91z"/><path d="m13.39 55.38h.91v.91h-.91z"/><path d="m13.39 54.47h.91v.91h-.91z"/><path d="m13.39 53.56h.91v.91h-.91z"/><path d="m13.39 52.66h.91v.91h-.91z"/><path d="m13.39 51.75h.91v.91h-.91z"/><path d="m13.39 50.84h.91v.91h-.91z"/><path d="m13.39 50.16h.91v.68h-.91z"/><path d="m13.39 41.99h.91v.91h-.91z"/><path d="m13.39 41.09h.91v.91h-.91z"/><path d="m13.39 40.18h.91v.91h-.91z"/><path d="m13.39 39.27h.91v.91h-.91z"/><path d="m13.39 32.24h.91v.91h-.91z"/><path d="m13.39 23.16h.91v.91h-.91z"/><path d="m13.39 5.44h.91v.91h-.91z"/><path d="m13.39 4.54h.91v.91h-.91z"/><path d="m13.39 3.63h.91v.91h-.91z"/><path d="m13.39 2.72h.91v.91h-.91z"/><path d="m13.39 1.81h.91v.91h-.91z"/><path d="m13.39.91h.91v.91h-.91z"/><path d="m12.48 54.47h.91v.91h-.91z"/><path d="m12.48 53.56h.91v.91h-.91z"/><path d="m12.48 52.66h.91v.91h-.91z"/><path d="m12.48 51.75h.91v.91h-.91z"/><path d="m12.48 50.84h.91v.91h-.91z"/><path d="m12.48 50.16h.91v.68h-.91z"/><path d="m12.48 49.25h.91v.91h-.91z"/><path d="m12.48 48.34h.91v.91h-.91z"/><path d="m12.48 41.99h.91v.91h-.91z"/><path d="m12.48 41.09h.91v.91h-.91z"/><path d="m12.48 40.18h.91v.91h-.91z"/><path d="m12.48 39.27h.91v.91h-.91z"/><path d="m12.48 33.14h.91v.91h-.91z"/><path d="m12.48 23.16h.91v.91h-.91z"/><path d="m12.48 6.37h.91v.68h-.91z"/><path d="m12.48 5.44h.91v.91h-.91z"/><path d="m12.48 4.54h.91v.91h-.91z"/><path d="m12.48 3.63h.91v.91h-.91z"/><path d="m12.48 2.72h.91v.91h-.91z"/><path d="m12.48 1.81h.91v.91h-.91z"/><path d="m12.48.91h.91v.91h-.91z"/><path d="m11.57 54.47h.91v.91h-.91z"/><path d="m11.57 53.56h.91v.91h-.91z"/><path d="m11.57 52.66h.91v.91h-.91z"/><path d="m11.57 51.75h.91v.91h-.91z"/><path d="m11.57 50.84h.91v.91h-.91z"/><path d="m11.57 50.16h.91v.68h-.91z"/><path d="m11.57 49.25h.91v.91h-.91z"/><path d="m11.57 48.34h.91v.91h-.91z"/><path d="m11.57 47.44h.91v.91h-.91z"/><path d="m11.57 41.99h.91v.91h-.91z"/><path d="m11.57 41.09h.91v.91h-.91z"/><path d="m11.57 40.18h.91v.91h-.91z"/><path d="m11.57 39.27h.91v.91h-.91z"/><path d="m11.57 33.14h.91v.91h-.91z"/><path d="m11.57 23.16h.91v.91h-.91z"/><path d="m11.57 7.06h.91v.91h-.91z"/><path d="m11.57 6.37h.91v.68h-.91z"/><path d="m11.57 5.44h.91v.91h-.91z"/><path d="m11.57 4.54h.91v.91h-.91z"/><path d="m11.57 3.63h.91v.91h-.91z"/><path d="m11.57 2.72h.91v.91h-.91z"/><path d="m11.57 1.81h.91v.91h-.91z"/><path d="m10.66 53.56h.91v.91h-.91z"/><path d="m10.66 52.66h.91v.91h-.91z"/><path d="m10.66 51.75h.91v.91h-.91z"/><path d="m10.66 50.84h.91v.91h-.91z"/><path d="m10.66 50.16h.91v.68h-.91z"/><path d="m10.66 49.25h.91v.91h-.91z"/><path d="m10.66 48.34h.91v.91h-.91z"/><path d="m10.66 47.44h.91v.91h-.91z"/><path d="m10.66 46.53h.91v.91h-.91z"/><path d="m10.66 45.62h.91v.91h-.91z"/><path d="m10.66 44.71h.91v.91h-.91z"/><path d="m10.66 43.81h.91v.91h-.91z"/><path d="m10.66 42.9h.91v.91h-.91z"/><path d="m10.66 41.99h.91v.91h-.91z"/><path d="m10.66 41.09h.91v.91h-.91z"/><path d="m10.66 40.18h.91v.91h-.91z"/><path d="m10.66 33.14h.91v.91h-.91z"/><path d="m10.66 23.16h.91v.91h-.91z"/><path d="m10.66 7.06h.91v.91h-.91z"/><path d="m10.66 6.37h.91v.68h-.91z"/><path d="m10.66 5.44h.91v.91h-.91z"/><path d="m10.66 4.54h.91v.91h-.91z"/><path d="m10.66 3.63h.91v.91h-.91z"/><path d="m10.66 2.72h.91v.91h-.91z"/><path d="m10.66 1.81h.91v.91h-.91z"/><path d="m9.76 53.56h.91v.91h-.91z"/><path d="m9.76 52.66h.91v.91h-.91z"/><path d="m9.76 51.75h.91v.91h-.91z"/><path d="m9.76 50.84h.91v.91h-.91z"/><path d="m9.76 50.16h.91v.68h-.91z"/><path d="m9.76 49.25h.91v.91h-.91z"/><path d="m9.76 48.34h.91v.91h-.91z"/><path d="m9.76 47.44h.91v.91h-.91z"/><path d="m9.76 46.53h.91v.91h-.91z"/><path d="m9.76 45.62h.91v.91h-.91z"/><path d="m9.76 44.71h.91v.91h-.91z"/><path d="m9.76 43.81h.91v.91h-.91z"/><path d="m9.76 42.9h.91v.91h-.91z"/><path d="m9.76 41.99h.91v.91h-.91z"/><path d="m9.76 41.09h.91v.91h-.91z"/><path d="m9.76 40.18h.91v.91h-.91z"/><path d="m9.76 33.14h.91v.91h-.91z"/><path d="m9.76 23.16h.91v.91h-.91z"/><path d="m9.76 7.06h.91v.91h-.91z"/><path d="m9.76 6.37h.91v.68h-.91z"/><path d="m9.76 5.44h.91v.91h-.91z"/><path d="m9.76 4.54h.91v.91h-.91z"/><path d="m9.76 3.63h.91v.91h-.91z"/><path d="m9.76 2.72h.91v.91h-.91z"/><path d="m9.76 1.81h.91v.91h-.91z"/><path d="m8.85 52.66h.91v.91h-.91z"/><path d="m8.85 51.75h.91v.91h-.91z"/><path d="m8.85 50.84h.91v.91h-.91z"/><path d="m8.85 50.16h.91v.68h-.91z"/><path d="m8.85 49.25h.91v.91h-.91z"/><path d="m8.85 48.34h.91v.91h-.91z"/><path d="m8.85 47.44h.91v.91h-.91z"/><path d="m8.85 46.53h.91v.91h-.91z"/><path d="m8.85 45.62h.91v.91h-.91z"/><path d="m8.85 33.14h.91v.91h-.91z"/><path d="m8.85 23.16h.91v.91h-.91z"/><path d="m8.85 7.96h.91v.91h-.91z"/><path d="m8.85 7.06h.91v.91h-.91z"/><path d="m8.85 6.37h.91v.68h-.91z"/><path d="m8.85 5.44h.91v.91h-.91z"/><path d="m8.85 4.54h.91v.91h-.91z"/><path d="m8.85 3.63h.91v.91h-.91z"/><path d="m8.85 2.72h.91v.91h-.91z"/><path d="m7.94 51.75h.91v.91h-.91z"/><path d="m7.94 50.84h.91v.91h-.91z"/><path d="m7.94 50.16h.91v.68h-.91z"/><path d="m7.94 49.25h.91v.91h-.91z"/><path d="m7.94 48.34h.91v.91h-.91z"/><path d="m7.94 47.44h.91v.91h-.91z"/><path d="m7.94 46.53h.91v.91h-.91z"/><path d="m7.94 45.62h.91v.91h-.91z"/><path d="m7.94 44.71h.91v.91h-.91z"/><path d="m7.94 33.14h.91v.91h-.91z"/><path d="m7.94 24.07h.91v.91h-.91z"/><path d="m7.94 7.96h.91v.91h-.91z"/><path d="m7.94 7.06h.91v.91h-.91z"/><path d="m7.94 6.37h.91v.68h-.91z"/><path d="m7.94 5.44h.91v.91h-.91z"/><path d="m7.94 4.54h.91v.91h-.91z"/><path d="m7.03 50.84h.91v.91h-.91z"/><path d="m7.03 50.16h.91v.68h-.91z"/><path d="m7.03 49.25h.91v.91h-.91z"/><path d="m7.03 48.34h.91v.91h-.91z"/><path d="m7.03 47.44h.91v.91h-.91z"/><path d="m7.03 46.53h.91v.91h-.91z"/><path d="m7.03 45.62h.91v.91h-.91z"/><path d="m7.03 44.71h.91v.91h-.91z"/><path d="m7.03 43.81h.91v.91h-.91z"/><path d="m7.03 32.24h.91v.91h-.91z"/><path d="m7.03 24.07h.91v.91h-.91z"/><path d="m7.03 7.96h.91v.91h-.91z"/><path d="m7.03 7.06h.91v.91h-.91z"/><path d="m7.03 6.37h.91v.68h-.91z"/><path d="m7.03 5.44h.91v.91h-.91z"/><path d="m7.03 4.54h.91v.91h-.91z"/><path d="m6.13 50.16h.91v.68h-.91z"/><path d="m6.13 49.25h.91v.91h-.91z"/><path d="m6.13 48.34h.91v.91h-.91z"/><path d="m6.13 47.44h.91v.91h-.91z"/><path d="m6.13 46.53h.91v.91h-.91z"/><path d="m6.13 45.62h.91v.91h-.91z"/><path d="m6.13 44.71h.91v.91h-.91z"/><path d="m6.13 43.81h.91v.91h-.91z"/><path d="m6.13 32.24h.91v.91h-.91z"/><path d="m6.13 31.33h.91v.91h-.91z"/><path d="m6.13 24.07h.91v.91h-.91z"/><path d="m6.13 7.96h.91v.91h-.91z"/><path d="m6.13 7.06h.91v.91h-.91z"/><path d="m6.13 6.37h.91v.68h-.91z"/><path d="m6.13 5.44h.91v.91h-.91z"/><path d="m5.22 48.34h.91v.91h-.91z"/><path d="m5.22 47.44h.91v.91h-.91z"/><path d="m5.22 46.53h.91v.91h-.91z"/><path d="m5.22 45.62h.91v.91h-.91z"/><path d="m5.22 44.71h.91v.91h-.91z"/><path d="m5.22 43.81h.91v.91h-.91z"/><path d="m5.22 30.42h.91v.91h-.91z"/><path d="m5.22 29.52h.91v.91h-.91z"/><path d="m5.22 24.07h.91v.91h-.91z"/><path d="m5.22 8.87h.91v.91h-.91z"/><path d="m5.22 7.96h.91v.91h-.91z"/><path d="m5.22 7.06h.91v.91h-.91z"/><path d="m4.31 46.53h.91v.91h-.91z"/><path d="m4.31 45.62h.91v.91h-.91z"/><path d="m4.31 44.71h.91v.91h-.91z"/><path d="m4.31 43.81h.91v.91h-.91z"/><path d="m4.31 28.61h.91v.91h-.91z"/><path d="m4.31 27.7h.91v.91h-.91z"/><path d="m4.31 26.79h.91v.91h-.91z"/><path d="m4.31 25.89h.91v.91h-.91z"/><path d="m4.31 24.98h.91v.91h-.91z"/><path d="m4.31 9.78h.91v.91h-.91z"/><path d="m4.31 8.87h.91v.91h-.91z"/><path d="m4.31 7.96h.91v.91h-.91z"/><path d="m3.4 42.9h.91v.91h-.91z"/><path d="m3.4 41.99h.91v.91h-.91z"/><path d="m3.4 41.09h.91v.91h-.91z"/><path d="m3.4 40.18h.91v.91h-.91z"/><path d="m3.4 39.27h.91v.91h-.91z"/><path d="m3.4 26.79h.91v.91h-.91z"/><path d="m3.4 25.89h.91v.91h-.91z"/><path d="m3.4 24.98h.91v.91h-.91z"/><path d="m3.4 10.69h.91v.91h-.91z"/><path d="m3.4 9.78h.91v.91h-.91z"/><path d="m3.4 8.87h.91v.91h-.91z"/><path d="m2.5 11.59h.91v.91h-.91z"/><path d="m2.5 10.69h.91v.91h-.91z"/><path d="m1.59 14.32h.91v.91h-.91z"/><path d="m1.59 13.41h.91v.91h-.91z"/><path d="m1.59 12.5h.91v.91h-.91z"/><path d="m1.59 11.59h.91v.91h-.91z"/><path d="m.91 16.13h.68v.91h-.68z"/><path d="m.91 15.22h.68v.91h-.68z"/><path d="m.91 14.32h.68v.91h-.68z"/><path d="m.91 13.41h.68v.91h-.68z"/><path d="m0 19.76h.91v.91h-.91z"/><path d="m0 18.85h.91v.91h-.91z"/><path d="m0 17.94h.91v.91h-.91z"/><path d="m0 17.04h.91v.91h-.91z"/><path d="m0 16.13h.91v.91h-.91z"/><path d="m0 15.22h.91v.91h-.91z"/><path d="m55.58 21.37h6.9v20.26h6.65v-20.26h6.87v20.42h-3.4v3.33h-13.6v-3.33h-3.4v-20.42z"/><path d="m89.48 45.12h-6.9v-33.87h6.9z"/><path d="m103 18.13h-6.9v-3.5h6.9zm0 27h-6.9v-23.76h6.9z"/><path d="m113.18 41.63h6.58v-3.24h-3.33v-3.39h-3.43v-3.35h-3.4v-6.9h3.4v-3.4h13.64v6.89h-3.5v-3.4h-6.62v3.25h3.4v3.4h3.41v3.4h3.33v6.9h-3.33v3.33h-13.66v-6.89h3.54v3.4z"/><path d="m153.7 38.29v3.5h-3.4v3.33h-13.64v-3.33h-3.4v-17h3.4v-3.4h13.64v3.4h3.4v6.9h-3.4v3.31h-10.14v6.64h10v-3.32h3.52zm-13.52-13.43v6.65h6.65v-6.65z"/><path d="m163.84 41.63h6.58v-3.24h-3.33v-3.39h-3.41v-3.35h-3.4v-6.9h3.4v-3.4h13.64v6.89h-3.5v-3.4h-6.64v3.25h3.4v3.4h3.42v3.4h3.34v6.9h-3.34v3.33h-13.7v-6.89h3.54z"/><path d="m190.84 45.12h-6.9v-6.89h6.9z"/><path d="m200.87 45.12v-3.33h-3.41v-17h3.41v-3.4h13.63v6.9h-3.5v-3.43h-6.64v16.77h6.64v-3.34h3.5v3.5h-3.34v3.33z"/><path d="m221.12 24.77h3.41v-3.4h13.63v3.4h3.41v17h-3.41v3.33h-13.63v-3.31h-3.41v-17zm6.9.09v16.77h6.65v-16.77z"/><path d="m248.12 24.77h3.4v-3.4h10.15v-10.12h6.89v33.9h-17v-3.34h-3.41v-17zm6.9.09v16.77h6.65v-16.77z"/><path d="m295.54 38.29v3.5h-3.41v3.33h-13.63v-3.33h-3.4v-17h3.4v-3.4h13.63v3.4h3.41v6.9h-3.41v3.31h-10.13v6.64h10v-3.32h3.52zm-13.54-13.43v6.65h6.64v-6.65z"/><path d="m305.68 41.63h6.58v-3.24h-3.34v-3.39h-3.4v-3.35h-3.4v-6.9h3.4v-3.4h13.63v6.89h-3.49v-3.4h-6.66v3.25h3.41v3.4h3.4v3.4h3.33v6.9h-3.34v3.33h-13.68v-6.89h3.53v3.4z"/></g></svg>