<svg viewBox="0 0 112 112" xmlns="http://www.w3.org/2000/svg"><path d="m0 0h112v112h-112z" fill="#f1dd6d"/><g fill="#171717"><path d="m90.3 80.85h1.75v1.75h-1.75z"/><path d="m90.3 79.1h1.75v1.75h-1.75z"/><path d="m90.3 77.35h1.75v1.75h-1.75z"/><path d="m90.3 75.6h1.75v1.75h-1.75z"/><path d="m90.3 73.85h1.75v1.75h-1.75z"/><path d="m90.3 72.1h1.75v1.75h-1.75z"/><path d="m88.55 89.6h1.75v1.75h-1.75z"/><path d="m88.55 87.85h1.75v1.75h-1.75z"/><path d="m88.55 86.1h1.75v1.75h-1.75z"/><path d="m88.55 84.35h1.75v1.75h-1.75z"/><path d="m88.55 82.6h1.75v1.75h-1.75z"/><path d="m88.55 80.85h1.75v1.75h-1.75z"/><path d="m88.55 79.1h1.75v1.75h-1.75z"/><path d="m86.8 93.1h1.75v1.75h-1.75z"/><path d="m86.8 91.35h1.75v1.75h-1.75z"/><path d="m86.8 89.6h1.75v1.75h-1.75z"/><path d="m86.8 87.85h1.75v1.75h-1.75z"/><path d="m86.8 86.1h1.75v1.75h-1.75z"/><path d="m86.8 84.35h1.75v1.75h-1.75z"/><path d="m86.8 82.6h1.75v1.75h-1.75z"/><path d="m86.8 80.85h1.75v1.75h-1.75z"/><path d="m86.8 48.3h1.75v1.75h-1.75z"/><path d="m86.8 46.2h1.75v1.75h-1.75z"/><path d="m86.8 44.8h1.75v1.75h-1.75z"/><path d="m86.8 34.65h1.75v1.75h-1.75z"/><path d="m86.8 32.9h1.75v1.75h-1.75z"/><path d="m85.05 96.6h1.75v1.4h-1.75z"/><path d="m85.05 94.85h1.75v1.75h-1.75z"/><path d="m85.05 93.1h1.75v1.75h-1.75z"/><path d="m85.05 91.35h1.75v1.75h-1.75z"/><path d="m85.05 89.6h1.75v1.75h-1.75z"/><path d="m85.05 87.85h1.75v1.75h-1.75z"/><path d="m85.05 86.1h1.75v1.75h-1.75z"/><path d="m85.05 84.35h1.75v1.75h-1.75z"/><path d="m85.05 82.6h1.75v1.75h-1.75z"/><path d="m85.05 80.85h1.75v1.75h-1.75z"/><path d="m85.05 55.3h1.75v1.75h-1.75z"/><path d="m85.05 53.2h1.75v1.75h-1.75z"/><path d="m85.05 51.8h1.75v1.75h-1.75z"/><path d="m85.05 49.7h1.75v1.75h-1.75z"/><path d="m85.05 48.3h1.75v1.75h-1.75z"/><path d="m85.05 46.2h1.75v1.75h-1.75z"/><path d="m85.05 44.8h1.75v1.75h-1.75z"/><path d="m85.05 42.7h1.75v1.75h-1.75z"/><path d="m85.05 41.3h1.75v1.75h-1.75z"/><path d="m85.05 31.15h1.75v1.75h-1.75z"/><path d="m85.05 29.4h1.75v1.75h-1.75z"/><path d="m85.05 27.65h1.75v1.75h-1.75z"/><path d="m83.3 96.6h1.75v1.4h-1.75z"/><path d="m83.3 94.85h1.75v1.75h-1.75z"/><path d="m83.3 93.1h1.75v1.75h-1.75z"/><path d="m83.3 91.35h1.75v1.75h-1.75z"/><path d="m83.3 89.6h1.75v1.75h-1.75z"/><path d="m83.3 87.85h1.75v1.75h-1.75z"/><path d="m83.3 86.1h1.75v1.75h-1.75z"/><path d="m83.3 84.35h1.75v1.75h-1.75z"/><path d="m83.3 82.6h1.75v1.75h-1.75z"/><path d="m83.3 80.85h1.75v1.75h-1.75z"/><path d="m83.3 79.1h1.75v1.75h-1.75z"/><path d="m83.3 77.35h1.75v1.75h-1.75z"/><path d="m83.3 75.6h1.75v1.75h-1.75z"/><path d="m83.3 56.7h1.75v1.75h-1.75z"/><path d="m83.3 41.3h1.75v1.75h-1.75z"/><path d="m83.3 25.9h1.75v1.75h-1.75z"/><path d="m83.3 24.15h1.75v1.75h-1.75z"/><path d="m81.55 98h1.75v1.75h-1.75z"/><path d="m81.55 96.6h1.75v1.4h-1.75z"/><path d="m81.55 94.85h1.75v1.75h-1.75z"/><path d="m81.55 93.1h1.75v1.75h-1.75z"/><path d="m81.55 91.35h1.75v1.75h-1.75z"/><path d="m81.55 89.6h1.75v1.75h-1.75z"/><path d="m81.55 87.85h1.75v1.75h-1.75z"/><path d="m81.55 86.1h1.75v1.75h-1.75z"/><path d="m81.55 84.35h1.75v1.75h-1.75z"/><path d="m81.55 82.6h1.75v1.75h-1.75z"/><path d="m81.55 80.85h1.75v1.75h-1.75z"/><path d="m81.55 79.1h1.75v1.75h-1.75z"/><path d="m81.55 77.35h1.75v1.75h-1.75z"/><path d="m81.55 75.6h1.75v1.75h-1.75z"/><path d="m81.55 73.85h1.75v1.75h-1.75z"/><path d="m81.55 58.8h1.75v1.75h-1.75z"/><path d="m81.55 41.3h1.75v1.75h-1.75z"/><path d="m81.55 22.4h1.75v1.75h-1.75z"/><path d="m79.8 99.75h1.75v1.75h-1.75z"/><path d="m79.8 98h1.75v1.75h-1.75z"/><path d="m79.8 96.6h1.75v1.4h-1.75z"/><path d="m79.8 94.85h1.75v1.75h-1.75z"/><path d="m79.8 93.1h1.75v1.75h-1.75z"/><path d="m79.8 91.35h1.75v1.75h-1.75z"/><path d="m79.8 89.6h1.75v1.75h-1.75z"/><path d="m79.8 87.85h1.75v1.75h-1.75z"/><path d="m79.8 86.1h1.75v1.75h-1.75z"/><path d="m79.8 84.35h1.75v1.75h-1.75z"/><path d="m79.8 82.6h1.75v1.75h-1.75z"/><path d="m79.8 80.85h1.75v1.75h-1.75z"/><path d="m79.8 79.1h1.75v1.75h-1.75z"/><path d="m79.8 77.35h1.75v1.75h-1.75z"/><path d="m79.8 75.6h1.75v1.75h-1.75z"/><path d="m79.8 73.85h1.75v1.75h-1.75z"/><path d="m79.8 58.8h1.75v1.75h-1.75z"/><path d="m79.8 41.3h1.75v1.75h-1.75z"/><path d="m79.8 20.65h1.75v1.75h-1.75z"/><path d="m79.8 18.9h1.75v1.75h-1.75z"/><path d="m78.4 101.5h1.4v1.75h-1.4z"/><path d="m78.4 99.75h1.4v1.75h-1.4z"/><path d="m78.4 98h1.4v1.75h-1.4z"/><path d="m78.4 96.6h1.4v1.4h-1.4z"/><path d="m78.4 94.85h1.4v1.75h-1.4z"/><path d="m78.4 93.1h1.4v1.75h-1.4z"/><path d="m78.4 91.35h1.4v1.75h-1.4z"/><path d="m78.4 89.6h1.4v1.75h-1.4z"/><path d="m78.4 87.85h1.4v1.75h-1.4z"/><path d="m78.4 80.85h1.4v1.75h-1.4z"/><path d="m78.4 79.1h1.4v1.75h-1.4z"/><path d="m78.4 77.35h1.4v1.75h-1.4z"/><path d="m78.4 75.6h1.4v1.75h-1.4z"/><path d="m78.4 73.85h1.4v1.75h-1.4z"/><path d="m78.4 72.1h1.4v1.75h-1.4z"/><path d="m78.4 58.8h1.4v1.75h-1.4z"/><path d="m78.4 41.3h1.4v1.75h-1.4z"/><path d="m78.4 18.9h1.4v1.75h-1.4z"/><path d="m76.65 103.25h1.75v1.75h-1.75z"/><path d="m76.65 101.5h1.75v1.75h-1.75z"/><path d="m76.65 99.75h1.75v1.75h-1.75z"/><path d="m76.65 98h1.75v1.75h-1.75z"/><path d="m76.65 96.6h1.75v1.4h-1.75z"/><path d="m76.65 94.85h1.75v1.75h-1.75z"/><path d="m76.65 93.1h1.75v1.75h-1.75z"/><path d="m76.65 91.35h1.75v1.75h-1.75z"/><path d="m76.65 89.6h1.75v1.75h-1.75z"/><path d="m76.65 80.85h1.75v1.75h-1.75z"/><path d="m76.65 79.1h1.75v1.75h-1.75z"/><path d="m76.65 77.35h1.75v1.75h-1.75z"/><path d="m76.65 75.6h1.75v1.75h-1.75z"/><path d="m76.65 73.85h1.75v1.75h-1.75z"/><path d="m76.65 72.1h1.75v1.75h-1.75z"/><path d="m76.65 60.2h1.75v1.75h-1.75z"/><path d="m76.65 41.3h1.75v1.75h-1.75z"/><path d="m76.65 17.15h1.75v1.75h-1.75z"/><path d="m74.9 105h1.75v1.75h-1.75z"/><path d="m74.9 103.25h1.75v1.75h-1.75z"/><path d="m74.9 101.5h1.75v1.75h-1.75z"/><path d="m74.9 99.75h1.75v1.75h-1.75z"/><path d="m74.9 98h1.75v1.75h-1.75z"/><path d="m74.9 96.6h1.75v1.4h-1.75z"/><path d="m74.9 94.85h1.75v1.75h-1.75z"/><path d="m74.9 93.1h1.75v1.75h-1.75z"/><path d="m74.9 86.1h1.75v1.75h-1.75z"/><path d="m74.9 84.35h1.75v1.75h-1.75z"/><path d="m74.9 82.6h1.75v1.75h-1.75z"/><path d="m74.9 80.85h1.75v1.75h-1.75z"/><path d="m74.9 79.1h1.75v1.75h-1.75z"/><path d="m74.9 77.35h1.75v1.75h-1.75z"/><path d="m74.9 75.6h1.75v1.75h-1.75z"/><path d="m74.9 73.85h1.75v1.75h-1.75z"/><path d="m74.9 72.1h1.75v1.75h-1.75z"/><path d="m74.9 60.2h1.75v1.75h-1.75z"/><path d="m74.9 41.3h1.75v1.75h-1.75z"/><path d="m74.9 15.4h1.75v1.75h-1.75z"/><path d="m73.15 106.75h1.75v1.75h-1.75z"/><path d="m73.15 105h1.75v1.75h-1.75z"/><path d="m73.15 103.25h1.75v1.75h-1.75z"/><path d="m73.15 101.5h1.75v1.75h-1.75z"/><path d="m73.15 99.75h1.75v1.75h-1.75z"/><path d="m73.15 98h1.75v1.75h-1.75z"/><path d="m73.15 89.6h1.75v1.75h-1.75z"/><path d="m73.15 87.85h1.75v1.75h-1.75z"/><path d="m73.15 86.1h1.75v1.75h-1.75z"/><path d="m73.15 84.35h1.75v1.75h-1.75z"/><path d="m73.15 82.6h1.75v1.75h-1.75z"/><path d="m73.15 80.85h1.75v1.75h-1.75z"/><path d="m73.15 79.1h1.75v1.75h-1.75z"/><path d="m73.15 77.35h1.75v1.75h-1.75z"/><path d="m73.15 75.6h1.75v1.75h-1.75z"/><path d="m73.15 73.85h1.75v1.75h-1.75z"/><path d="m73.15 72.1h1.75v1.75h-1.75z"/><path d="m73.15 60.2h1.75v1.75h-1.75z"/><path d="m73.15 41.3h1.75v1.75h-1.75z"/><path d="m73.15 15.4h1.75v1.75h-1.75z"/><path d="m73.15 13.65h1.75v1.75h-1.75z"/><path d="m71.4 106.75h1.75v1.75h-1.75z"/><path d="m71.4 105h1.75v1.75h-1.75z"/><path d="m71.4 103.25h1.75v1.75h-1.75z"/><path d="m71.4 101.5h1.75v1.75h-1.75z"/><path d="m71.4 99.75h1.75v1.75h-1.75z"/><path d="m71.4 91.35h1.75v1.75h-1.75z"/><path d="m71.4 89.6h1.75v1.75h-1.75z"/><path d="m71.4 87.85h1.75v1.75h-1.75z"/><path d="m71.4 86.1h1.75v1.75h-1.75z"/><path d="m71.4 80.85h1.75v1.75h-1.75z"/><path d="m71.4 79.1h1.75v1.75h-1.75z"/><path d="m71.4 77.35h1.75v1.75h-1.75z"/><path d="m71.4 75.6h1.75v1.75h-1.75z"/><path d="m71.4 73.85h1.75v1.75h-1.75z"/><path d="m71.4 72.1h1.75v1.75h-1.75z"/><path d="m71.4 60.2h1.75v1.75h-1.75z"/><path d="m71.4 42.7h1.75v1.75h-1.75z"/><path d="m71.4 41.3h1.75v1.75h-1.75z"/><path d="m71.4 13.65h1.75v1.75h-1.75z"/><path d="m71.4 12.25h1.75v1.4h-1.75z"/><path d="m69.65 108.5h1.75v1.75h-1.75z"/><path d="m69.65 106.75h1.75v1.75h-1.75z"/><path d="m69.65 105h1.75v1.75h-1.75z"/><path d="m69.65 103.25h1.75v1.75h-1.75z"/><path d="m69.65 101.5h1.75v1.75h-1.75z"/><path d="m69.65 99.75h1.75v1.75h-1.75z"/><path d="m69.65 91.35h1.75v1.75h-1.75z"/><path d="m69.65 89.6h1.75v1.75h-1.75z"/><path d="m69.65 87.85h1.75v1.75h-1.75z"/><path d="m69.65 86.1h1.75v1.75h-1.75z"/><path d="m69.65 80.85h1.75v1.75h-1.75z"/><path d="m69.65 79.1h1.75v1.75h-1.75z"/><path d="m69.65 77.35h1.75v1.75h-1.75z"/><path d="m69.65 75.6h1.75v1.75h-1.75z"/><path d="m69.65 73.85h1.75v1.75h-1.75z"/><path d="m69.65 72.1h1.75v1.75h-1.75z"/><path d="m69.65 70.35h1.75v1.75h-1.75z"/><path d="m69.65 60.2h1.75v1.75h-1.75z"/><path d="m69.65 42.7h1.75v1.75h-1.75z"/><path d="m69.65 41.3h1.75v1.75h-1.75z"/><path d="m69.65 13.65h1.75v1.75h-1.75z"/><path d="m69.65 12.25h1.75v1.4h-1.75z"/><path d="m69.65 10.5h1.75v1.75h-1.75z"/><path d="m67.9 108.5h1.75v1.75h-1.75z"/><path d="m67.9 106.75h1.75v1.75h-1.75z"/><path d="m67.9 105h1.75v1.75h-1.75z"/><path d="m67.9 103.25h1.75v1.75h-1.75z"/><path d="m67.9 101.5h1.75v1.75h-1.75z"/><path d="m67.9 99.75h1.75v1.75h-1.75z"/><path d="m67.9 91.35h1.75v1.75h-1.75z"/><path d="m67.9 89.6h1.75v1.75h-1.75z"/><path d="m67.9 87.85h1.75v1.75h-1.75z"/><path d="m67.9 80.85h1.75v1.75h-1.75z"/><path d="m67.9 79.1h1.75v1.75h-1.75z"/><path d="m67.9 77.35h1.75v1.75h-1.75z"/><path d="m67.9 75.6h1.75v1.75h-1.75z"/><path d="m67.9 73.85h1.75v1.75h-1.75z"/><path d="m67.9 72.1h1.75v1.75h-1.75z"/><path d="m67.9 70.35h1.75v1.75h-1.75z"/><path d="m67.9 68.6h1.75v1.75h-1.75z"/><path d="m67.9 58.8h1.75v1.75h-1.75z"/><path d="m67.9 42.7h1.75v1.75h-1.75z"/><path d="m67.9 13.65h1.75v1.75h-1.75z"/><path d="m67.9 12.25h1.75v1.4h-1.75z"/><path d="m67.9 10.5h1.75v1.75h-1.75z"/><path d="m67.9 8.75h1.75v1.75h-1.75z"/><path d="m67.9 7h1.75v1.75h-1.75z"/><path d="m66.15 108.5h1.75v1.75h-1.75z"/><path d="m66.15 106.75h1.75v1.75h-1.75z"/><path d="m66.15 105h1.75v1.75h-1.75z"/><path d="m66.15 103.25h1.75v1.75h-1.75z"/><path d="m66.15 101.5h1.75v1.75h-1.75z"/><path d="m66.15 99.75h1.75v1.75h-1.75z"/><path d="m66.15 98h1.75v1.75h-1.75z"/><path d="m66.15 96.6h1.75v1.4h-1.75z"/><path d="m66.15 93.1h1.75v1.75h-1.75z"/><path d="m66.15 91.35h1.75v1.75h-1.75z"/><path d="m66.15 89.6h1.75v1.75h-1.75z"/><path d="m66.15 80.85h1.75v1.75h-1.75z"/><path d="m66.15 79.1h1.75v1.75h-1.75z"/><path d="m66.15 77.35h1.75v1.75h-1.75z"/><path d="m66.15 75.6h1.75v1.75h-1.75z"/><path d="m66.15 73.85h1.75v1.75h-1.75z"/><path d="m66.15 72.1h1.75v1.75h-1.75z"/><path d="m66.15 70.35h1.75v1.75h-1.75z"/><path d="m66.15 68.6h1.75v1.75h-1.75z"/><path d="m66.15 58.8h1.75v1.75h-1.75z"/><path d="m66.15 42.7h1.75v1.75h-1.75z"/><path d="m66.15 12.25h1.75v1.4h-1.75z"/><path d="m66.15 10.5h1.75v1.75h-1.75z"/><path d="m66.15 8.75h1.75v1.75h-1.75z"/><path d="m66.15 7h1.75v1.75h-1.75z"/><path d="m64.4 110.25h1.75v1.75h-1.75z"/><path d="m64.4 108.5h1.75v1.75h-1.75z"/><path d="m64.4 106.75h1.75v1.75h-1.75z"/><path d="m64.4 105h1.75v1.75h-1.75z"/><path d="m64.4 103.25h1.75v1.75h-1.75z"/><path d="m64.4 101.5h1.75v1.75h-1.75z"/><path d="m64.4 99.75h1.75v1.75h-1.75z"/><path d="m64.4 98h1.75v1.75h-1.75z"/><path d="m64.4 96.6h1.75v1.4h-1.75z"/><path d="m64.4 93.1h1.75v1.75h-1.75z"/><path d="m64.4 91.35h1.75v1.75h-1.75z"/><path d="m64.4 89.6h1.75v1.75h-1.75z"/><path d="m64.4 80.85h1.75v1.75h-1.75z"/><path d="m64.4 79.1h1.75v1.75h-1.75z"/><path d="m64.4 77.35h1.75v1.75h-1.75z"/><path d="m64.4 75.6h1.75v1.75h-1.75z"/><path d="m64.4 73.85h1.75v1.75h-1.75z"/><path d="m64.4 72.1h1.75v1.75h-1.75z"/><path d="m64.4 70.35h1.75v1.75h-1.75z"/><path d="m64.4 68.6h1.75v1.75h-1.75z"/><path d="m64.4 56.7h1.75v1.75h-1.75z"/><path d="m64.4 42.7h1.75v1.75h-1.75z"/><path d="m64.4 12.25h1.75v1.4h-1.75z"/><path d="m64.4 10.5h1.75v1.75h-1.75z"/><path d="m64.4 8.75h1.75v1.75h-1.75z"/><path d="m64.4 7h1.75v1.75h-1.75z"/><path d="m62.65 110.25h1.75v1.75h-1.75z"/><path d="m62.65 108.5h1.75v1.75h-1.75z"/><path d="m62.65 106.75h1.75v1.75h-1.75z"/><path d="m62.65 105h1.75v1.75h-1.75z"/><path d="m62.65 103.25h1.75v1.75h-1.75z"/><path d="m62.65 101.5h1.75v1.75h-1.75z"/><path d="m62.65 99.75h1.75v1.75h-1.75z"/><path d="m62.65 98h1.75v1.75h-1.75z"/><path d="m62.65 96.6h1.75v1.4h-1.75z"/><path d="m62.65 93.1h1.75v1.75h-1.75z"/><path d="m62.65 91.35h1.75v1.75h-1.75z"/><path d="m62.65 89.6h1.75v1.75h-1.75z"/><path d="m62.65 80.85h1.75v1.75h-1.75z"/><path d="m62.65 79.1h1.75v1.75h-1.75z"/><path d="m62.65 77.35h1.75v1.75h-1.75z"/><path d="m62.65 75.6h1.75v1.75h-1.75z"/><path d="m62.65 73.85h1.75v1.75h-1.75z"/><path d="m62.65 72.1h1.75v1.75h-1.75z"/><path d="m62.65 70.35h1.75v1.75h-1.75z"/><path d="m62.65 68.6h1.75v1.75h-1.75z"/><path d="m62.65 55.3h1.75v1.75h-1.75z"/><path d="m62.65 53.2h1.75v1.75h-1.75z"/><path d="m62.65 44.8h1.75v1.75h-1.75z"/><path d="m62.65 42.7h1.75v1.75h-1.75z"/><path d="m62.65 12.25h1.75v1.4h-1.75z"/><path d="m62.65 10.5h1.75v1.75h-1.75z"/><path d="m62.65 8.75h1.75v1.75h-1.75z"/><path d="m62.65 7h1.75v1.75h-1.75z"/><path d="m62.65 5.25h1.75v1.75h-1.75z"/><path d="m60.9 110.25h1.75v1.75h-1.75z"/><path d="m60.9 108.5h1.75v1.75h-1.75z"/><path d="m60.9 106.75h1.75v1.75h-1.75z"/><path d="m60.9 105h1.75v1.75h-1.75z"/><path d="m60.9 103.25h1.75v1.75h-1.75z"/><path d="m60.9 101.5h1.75v1.75h-1.75z"/><path d="m60.9 99.75h1.75v1.75h-1.75z"/><path d="m60.9 98h1.75v1.75h-1.75z"/><path d="m60.9 96.6h1.75v1.4h-1.75z"/><path d="m60.9 93.1h1.75v1.75h-1.75z"/><path d="m60.9 91.35h1.75v1.75h-1.75z"/><path d="m60.9 89.6h1.75v1.75h-1.75z"/><path d="m60.9 80.85h1.75v1.75h-1.75z"/><path d="m60.9 79.1h1.75v1.75h-1.75z"/><path d="m60.9 77.35h1.75v1.75h-1.75z"/><path d="m60.9 75.6h1.75v1.75h-1.75z"/><path d="m60.9 73.85h1.75v1.75h-1.75z"/><path d="m60.9 72.1h1.75v1.75h-1.75z"/><path d="m60.9 70.35h1.75v1.75h-1.75z"/><path d="m60.9 51.8h1.75v1.75h-1.75z"/><path d="m60.9 49.7h1.75v1.75h-1.75z"/><path d="m60.9 48.3h1.75v1.75h-1.75z"/><path d="m60.9 46.2h1.75v1.75h-1.75z"/><path d="m60.9 44.8h1.75v1.75h-1.75z"/><path d="m60.9 12.25h1.75v1.4h-1.75z"/><path d="m60.9 10.5h1.75v1.75h-1.75z"/><path d="m60.9 8.75h1.75v1.75h-1.75z"/><path d="m60.9 7h1.75v1.75h-1.75z"/><path d="m60.9 5.25h1.75v1.75h-1.75z"/><path d="m60.9 3.5h1.75v1.75h-1.75z"/><path d="m59.15 110.25h1.75v1.75h-1.75z"/><path d="m59.15 108.5h1.75v1.75h-1.75z"/><path d="m59.15 106.75h1.75v1.75h-1.75z"/><path d="m59.15 105h1.75v1.75h-1.75z"/><path d="m59.15 103.25h1.75v1.75h-1.75z"/><path d="m59.15 101.5h1.75v1.75h-1.75z"/><path d="m59.15 99.75h1.75v1.75h-1.75z"/><path d="m59.15 98h1.75v1.75h-1.75z"/><path d="m59.15 96.6h1.75v1.4h-1.75z"/><path d="m59.15 93.1h1.75v1.75h-1.75z"/><path d="m59.15 91.35h1.75v1.75h-1.75z"/><path d="m59.15 89.6h1.75v1.75h-1.75z"/><path d="m59.15 80.85h1.75v1.75h-1.75z"/><path d="m59.15 79.1h1.75v1.75h-1.75z"/><path d="m59.15 77.35h1.75v1.75h-1.75z"/><path d="m59.15 75.6h1.75v1.75h-1.75z"/><path d="m59.15 73.85h1.75v1.75h-1.75z"/><path d="m59.15 72.1h1.75v1.75h-1.75z"/><path d="m59.15 70.35h1.75v1.75h-1.75z"/><path d="m59.15 48.3h1.75v1.75h-1.75z"/><path d="m59.15 46.2h1.75v1.75h-1.75z"/><path d="m59.15 12.25h1.75v1.4h-1.75z"/><path d="m59.15 10.5h1.75v1.75h-1.75z"/><path d="m59.15 8.75h1.75v1.75h-1.75z"/><path d="m59.15 7h1.75v1.75h-1.75z"/><path d="m59.15 5.25h1.75v1.75h-1.75z"/><path d="m59.15 3.5h1.75v1.75h-1.75z"/><path d="m57.4 110.25h1.75v1.75h-1.75z"/><path d="m57.4 108.5h1.75v1.75h-1.75z"/><path d="m57.4 106.75h1.75v1.75h-1.75z"/><path d="m57.4 105h1.75v1.75h-1.75z"/><path d="m57.4 103.25h1.75v1.75h-1.75z"/><path d="m57.4 101.5h1.75v1.75h-1.75z"/><path d="m57.4 99.75h1.75v1.75h-1.75z"/><path d="m57.4 98h1.75v1.75h-1.75z"/><path d="m57.4 96.6h1.75v1.4h-1.75z"/><path d="m57.4 93.1h1.75v1.75h-1.75z"/><path d="m57.4 91.35h1.75v1.75h-1.75z"/><path d="m57.4 89.6h1.75v1.75h-1.75z"/><path d="m57.4 80.85h1.75v1.75h-1.75z"/><path d="m57.4 79.1h1.75v1.75h-1.75z"/><path d="m57.4 77.35h1.75v1.75h-1.75z"/><path d="m57.4 75.6h1.75v1.75h-1.75z"/><path d="m57.4 73.85h1.75v1.75h-1.75z"/><path d="m57.4 72.1h1.75v1.75h-1.75z"/><path d="m57.4 70.35h1.75v1.75h-1.75z"/><path d="m57.4 48.3h1.75v1.75h-1.75z"/><path d="m57.4 46.2h1.75v1.75h-1.75z"/><path d="m57.4 12.25h1.75v1.4h-1.75z"/><path d="m57.4 10.5h1.75v1.75h-1.75z"/><path d="m57.4 8.75h1.75v1.75h-1.75z"/><path d="m57.4 7h1.75v1.75h-1.75z"/><path d="m57.4 5.25h1.75v1.75h-1.75z"/><path d="m57.4 3.5h1.75v1.75h-1.75z"/><path d="m55.65 110.25h1.75v1.75h-1.75z"/><path d="m55.65 108.5h1.75v1.75h-1.75z"/><path d="m55.65 106.75h1.75v1.75h-1.75z"/><path d="m55.65 105h1.75v1.75h-1.75z"/><path d="m55.65 103.25h1.75v1.75h-1.75z"/><path d="m55.65 101.5h1.75v1.75h-1.75z"/><path d="m55.65 99.75h1.75v1.75h-1.75z"/><path d="m55.65 98h1.75v1.75h-1.75z"/><path d="m55.65 96.6h1.75v1.4h-1.75z"/><path d="m55.65 91.35h1.75v1.75h-1.75z"/><path d="m55.65 89.6h1.75v1.75h-1.75z"/><path d="m55.65 80.85h1.75v1.75h-1.75z"/><path d="m55.65 79.1h1.75v1.75h-1.75z"/><path d="m55.65 77.35h1.75v1.75h-1.75z"/><path d="m55.65 75.6h1.75v1.75h-1.75z"/><path d="m55.65 73.85h1.75v1.75h-1.75z"/><path d="m55.65 72.1h1.75v1.75h-1.75z"/><path d="m55.65 70.35h1.75v1.75h-1.75z"/><path d="m55.65 68.6h1.75v1.75h-1.75z"/><path d="m55.65 48.3h1.75v1.75h-1.75z"/><path d="m55.65 46.2h1.75v1.75h-1.75z"/><path d="m55.65 12.25h1.75v1.4h-1.75z"/><path d="m55.65 10.5h1.75v1.75h-1.75z"/><path d="m55.65 8.75h1.75v1.75h-1.75z"/><path d="m55.65 7h1.75v1.75h-1.75z"/><path d="m55.65 5.25h1.75v1.75h-1.75z"/><path d="m55.65 3.5h1.75v1.75h-1.75z"/><path d="m53.9 110.25h1.75v1.75h-1.75z"/><path d="m53.9 108.5h1.75v1.75h-1.75z"/><path d="m53.9 106.75h1.75v1.75h-1.75z"/><path d="m53.9 105h1.75v1.75h-1.75z"/><path d="m53.9 103.25h1.75v1.75h-1.75z"/><path d="m53.9 91.35h1.75v1.75h-1.75z"/><path d="m53.9 89.6h1.75v1.75h-1.75z"/><path d="m53.9 87.85h1.75v1.75h-1.75z"/><path d="m53.9 80.85h1.75v1.75h-1.75z"/><path d="m53.9 79.1h1.75v1.75h-1.75z"/><path d="m53.9 77.35h1.75v1.75h-1.75z"/><path d="m53.9 75.6h1.75v1.75h-1.75z"/><path d="m53.9 73.85h1.75v1.75h-1.75z"/><path d="m53.9 72.1h1.75v1.75h-1.75z"/><path d="m53.9 70.35h1.75v1.75h-1.75z"/><path d="m53.9 68.6h1.75v1.75h-1.75z"/><path d="m53.9 53.2h1.75v1.75h-1.75z"/><path d="m53.9 51.8h1.75v1.75h-1.75z"/><path d="m53.9 49.7h1.75v1.75h-1.75z"/><path d="m53.9 48.3h1.75v1.75h-1.75z"/><path d="m53.9 46.2h1.75v1.75h-1.75z"/><path d="m53.9 13.65h1.75v1.75h-1.75z"/><path d="m53.9 12.25h1.75v1.4h-1.75z"/><path d="m53.9 10.5h1.75v1.75h-1.75z"/><path d="m53.9 8.75h1.75v1.75h-1.75z"/><path d="m53.9 7h1.75v1.75h-1.75z"/><path d="m53.9 5.25h1.75v1.75h-1.75z"/><path d="m53.9 3.5h1.75v1.75h-1.75z"/><path d="m53.9 1.75h1.75v1.75h-1.75z"/><path d="m52.15 108.5h1.75v1.75h-1.75z"/><path d="m52.15 106.75h1.75v1.75h-1.75z"/><path d="m52.15 105h1.75v1.75h-1.75z"/><path d="m52.15 103.25h1.75v1.75h-1.75z"/><path d="m52.15 91.35h1.75v1.75h-1.75z"/><path d="m52.15 89.6h1.75v1.75h-1.75z"/><path d="m52.15 87.85h1.75v1.75h-1.75z"/><path d="m52.15 86.1h1.75v1.75h-1.75z"/><path d="m52.15 80.85h1.75v1.75h-1.75z"/><path d="m52.15 79.1h1.75v1.75h-1.75z"/><path d="m52.15 77.35h1.75v1.75h-1.75z"/><path d="m52.15 75.6h1.75v1.75h-1.75z"/><path d="m52.15 73.85h1.75v1.75h-1.75z"/><path d="m52.15 72.1h1.75v1.75h-1.75z"/><path d="m52.15 70.35h1.75v1.75h-1.75z"/><path d="m52.15 68.6h1.75v1.75h-1.75z"/><path d="m52.15 58.8h1.75v1.75h-1.75z"/><path d="m52.15 56.7h1.75v1.75h-1.75z"/><path d="m52.15 55.3h1.75v1.75h-1.75z"/><path d="m52.15 46.2h1.75v1.75h-1.75z"/><path d="m52.15 13.65h1.75v1.75h-1.75z"/><path d="m52.15 12.25h1.75v1.4h-1.75z"/><path d="m52.15 10.5h1.75v1.75h-1.75z"/><path d="m52.15 8.75h1.75v1.75h-1.75z"/><path d="m52.15 7h1.75v1.75h-1.75z"/><path d="m52.15 5.25h1.75v1.75h-1.75z"/><path d="m52.15 3.5h1.75v1.75h-1.75z"/><path d="m52.15 1.75h1.75v1.75h-1.75z"/><path d="m50.4 108.5h1.75v1.75h-1.75z"/><path d="m50.4 106.75h1.75v1.75h-1.75z"/><path d="m50.4 105h1.75v1.75h-1.75z"/><path d="m50.4 103.25h1.75v1.75h-1.75z"/><path d="m50.4 101.5h1.75v1.75h-1.75z"/><path d="m50.4 89.6h1.75v1.75h-1.75z"/><path d="m50.4 87.85h1.75v1.75h-1.75z"/><path d="m50.4 86.1h1.75v1.75h-1.75z"/><path d="m50.4 80.85h1.75v1.75h-1.75z"/><path d="m50.4 79.1h1.75v1.75h-1.75z"/><path d="m50.4 77.35h1.75v1.75h-1.75z"/><path d="m50.4 75.6h1.75v1.75h-1.75z"/><path d="m50.4 73.85h1.75v1.75h-1.75z"/><path d="m50.4 60.2h1.75v1.75h-1.75z"/><path d="m50.4 44.8h1.75v1.75h-1.75z"/><path d="m50.4 13.65h1.75v1.75h-1.75z"/><path d="m50.4 12.25h1.75v1.4h-1.75z"/><path d="m50.4 10.5h1.75v1.75h-1.75z"/><path d="m50.4 8.75h1.75v1.75h-1.75z"/><path d="m50.4 7h1.75v1.75h-1.75z"/><path d="m50.4 5.25h1.75v1.75h-1.75z"/><path d="m50.4 3.5h1.75v1.75h-1.75z"/><path d="m50.4 1.75h1.75v1.75h-1.75z"/><path d="m50.4 0h1.75v1.75h-1.75z"/><path d="m49.35 106.75h1.4v1.75h-1.4z"/><path d="m49.35 105h1.4v1.75h-1.4z"/><path d="m49.35 103.25h1.4v1.75h-1.4z"/><path d="m49.35 101.5h1.4v1.75h-1.4z"/><path d="m49.35 87.85h1.4v1.75h-1.4z"/><path d="m49.35 86.1h1.4v1.75h-1.4z"/><path d="m49.35 84.35h1.4v1.75h-1.4z"/><path d="m49.35 82.6h1.4v1.75h-1.4z"/><path d="m49.35 80.85h1.4v1.75h-1.4z"/><path d="m49.35 79.1h1.4v1.75h-1.4z"/><path d="m49.35 77.35h1.4v1.75h-1.4z"/><path d="m49.35 75.6h1.4v1.75h-1.4z"/><path d="m49.35 73.85h1.4v1.75h-1.4z"/><path d="m49.35 62.3h1.4v1.75h-1.4z"/><path d="m49.35 44.8h1.4v1.75h-1.4z"/><path d="m49.35 13.65h1.4v1.75h-1.4z"/><path d="m49.35 12.25h1.4v1.4h-1.4z"/><path d="m49.35 10.5h1.4v1.75h-1.4z"/><path d="m49.35 8.75h1.4v1.75h-1.4z"/><path d="m49.35 7h1.4v1.75h-1.4z"/><path d="m49.35 5.25h1.4v1.75h-1.4z"/><path d="m49.35 3.5h1.4v1.75h-1.4z"/><path d="m49.35 1.75h1.4v1.75h-1.4z"/><path d="m49.35 0h1.4v1.75h-1.4z"/><path d="m47.6 106.75h1.75v1.75h-1.75z"/><path d="m47.6 105h1.75v1.75h-1.75z"/><path d="m47.6 103.25h1.75v1.75h-1.75z"/><path d="m47.6 101.5h1.75v1.75h-1.75z"/><path d="m47.6 99.75h1.75v1.75h-1.75z"/><path d="m47.6 86.1h1.75v1.75h-1.75z"/><path d="m47.6 84.35h1.75v1.75h-1.75z"/><path d="m47.6 82.6h1.75v1.75h-1.75z"/><path d="m47.6 80.85h1.75v1.75h-1.75z"/><path d="m47.6 79.1h1.75v1.75h-1.75z"/><path d="m47.6 77.35h1.75v1.75h-1.75z"/><path d="m47.6 75.6h1.75v1.75h-1.75z"/><path d="m47.6 62.3h1.75v1.75h-1.75z"/><path d="m47.6 44.8h1.75v1.75h-1.75z"/><path d="m47.6 13.65h1.75v1.75h-1.75z"/><path d="m47.6 12.25h1.75v1.4h-1.75z"/><path d="m47.6 10.5h1.75v1.75h-1.75z"/><path d="m47.6 8.75h1.75v1.75h-1.75z"/><path d="m47.6 7h1.75v1.75h-1.75z"/><path d="m47.6 5.25h1.75v1.75h-1.75z"/><path d="m47.6 3.5h1.75v1.75h-1.75z"/><path d="m47.6 1.75h1.75v1.75h-1.75z"/><path d="m47.6 0h1.75v1.75h-1.75z"/><path d="m45.85 106.75h1.75v1.75h-1.75z"/><path d="m45.85 105h1.75v1.75h-1.75z"/><path d="m45.85 103.25h1.75v1.75h-1.75z"/><path d="m45.85 101.5h1.75v1.75h-1.75z"/><path d="m45.85 99.75h1.75v1.75h-1.75z"/><path d="m45.85 98h1.75v1.75h-1.75z"/><path d="m45.85 96.6h1.75v1.4h-1.75z"/><path d="m45.85 80.85h1.75v1.75h-1.75z"/><path d="m45.85 79.1h1.75v1.75h-1.75z"/><path d="m45.85 77.35h1.75v1.75h-1.75z"/><path d="m45.85 75.6h1.75v1.75h-1.75z"/><path d="m45.85 62.3h1.75v1.75h-1.75z"/><path d="m45.85 44.8h1.75v1.75h-1.75z"/><path d="m45.85 10.5h1.75v1.75h-1.75z"/><path d="m45.85 8.75h1.75v1.75h-1.75z"/><path d="m45.85 7h1.75v1.75h-1.75z"/><path d="m45.85 5.25h1.75v1.75h-1.75z"/><path d="m45.85 3.5h1.75v1.75h-1.75z"/><path d="m45.85 1.75h1.75v1.75h-1.75z"/><path d="m44.1 105h1.75v1.75h-1.75z"/><path d="m44.1 103.25h1.75v1.75h-1.75z"/><path d="m44.1 101.5h1.75v1.75h-1.75z"/><path d="m44.1 99.75h1.75v1.75h-1.75z"/><path d="m44.1 98h1.75v1.75h-1.75z"/><path d="m44.1 96.6h1.75v1.4h-1.75z"/><path d="m44.1 94.85h1.75v1.75h-1.75z"/><path d="m44.1 93.1h1.75v1.75h-1.75z"/><path d="m44.1 80.85h1.75v1.75h-1.75z"/><path d="m44.1 79.1h1.75v1.75h-1.75z"/><path d="m44.1 77.35h1.75v1.75h-1.75z"/><path d="m44.1 75.6h1.75v1.75h-1.75z"/><path d="m44.1 63.7h1.75v1.75h-1.75z"/><path d="m44.1 44.8h1.75v1.75h-1.75z"/><path d="m44.1 12.25h1.75v1.4h-1.75z"/><path d="m44.1 10.5h1.75v1.75h-1.75z"/><path d="m44.1 8.75h1.75v1.75h-1.75z"/><path d="m44.1 7h1.75v1.75h-1.75z"/><path d="m44.1 5.25h1.75v1.75h-1.75z"/><path d="m44.1 3.5h1.75v1.75h-1.75z"/><path d="m44.1 1.75h1.75v1.75h-1.75z"/><path d="m42.35 105h1.75v1.75h-1.75z"/><path d="m42.35 103.25h1.75v1.75h-1.75z"/><path d="m42.35 101.5h1.75v1.75h-1.75z"/><path d="m42.35 99.75h1.75v1.75h-1.75z"/><path d="m42.35 98h1.75v1.75h-1.75z"/><path d="m42.35 96.6h1.75v1.4h-1.75z"/><path d="m42.35 94.85h1.75v1.75h-1.75z"/><path d="m42.35 93.1h1.75v1.75h-1.75z"/><path d="m42.35 91.35h1.75v1.75h-1.75z"/><path d="m42.35 80.85h1.75v1.75h-1.75z"/><path d="m42.35 79.1h1.75v1.75h-1.75z"/><path d="m42.35 77.35h1.75v1.75h-1.75z"/><path d="m42.35 75.6h1.75v1.75h-1.75z"/><path d="m42.35 63.7h1.75v1.75h-1.75z"/><path d="m42.35 44.8h1.75v1.75h-1.75z"/><path d="m42.35 13.65h1.75v1.75h-1.75z"/><path d="m42.35 12.25h1.75v1.4h-1.75z"/><path d="m42.35 10.5h1.75v1.75h-1.75z"/><path d="m42.35 8.75h1.75v1.75h-1.75z"/><path d="m42.35 7h1.75v1.75h-1.75z"/><path d="m42.35 5.25h1.75v1.75h-1.75z"/><path d="m42.35 3.5h1.75v1.75h-1.75z"/><path d="m40.6 103.25h1.75v1.75h-1.75z"/><path d="m40.6 101.5h1.75v1.75h-1.75z"/><path d="m40.6 99.75h1.75v1.75h-1.75z"/><path d="m40.6 98h1.75v1.75h-1.75z"/><path d="m40.6 96.6h1.75v1.4h-1.75z"/><path d="m40.6 94.85h1.75v1.75h-1.75z"/><path d="m40.6 93.1h1.75v1.75h-1.75z"/><path d="m40.6 91.35h1.75v1.75h-1.75z"/><path d="m40.6 89.6h1.75v1.75h-1.75z"/><path d="m40.6 87.85h1.75v1.75h-1.75z"/><path d="m40.6 86.1h1.75v1.75h-1.75z"/><path d="m40.6 84.35h1.75v1.75h-1.75z"/><path d="m40.6 82.6h1.75v1.75h-1.75z"/><path d="m40.6 80.85h1.75v1.75h-1.75z"/><path d="m40.6 79.1h1.75v1.75h-1.75z"/><path d="m40.6 77.35h1.75v1.75h-1.75z"/><path d="m40.6 63.7h1.75v1.75h-1.75z"/><path d="m40.6 44.8h1.75v1.75h-1.75z"/><path d="m40.6 13.65h1.75v1.75h-1.75z"/><path d="m40.6 12.25h1.75v1.4h-1.75z"/><path d="m40.6 10.5h1.75v1.75h-1.75z"/><path d="m40.6 8.75h1.75v1.75h-1.75z"/><path d="m40.6 7h1.75v1.75h-1.75z"/><path d="m40.6 5.25h1.75v1.75h-1.75z"/><path d="m40.6 3.5h1.75v1.75h-1.75z"/><path d="m38.85 103.25h1.75v1.75h-1.75z"/><path d="m38.85 101.5h1.75v1.75h-1.75z"/><path d="m38.85 99.75h1.75v1.75h-1.75z"/><path d="m38.85 98h1.75v1.75h-1.75z"/><path d="m38.85 96.6h1.75v1.4h-1.75z"/><path d="m38.85 94.85h1.75v1.75h-1.75z"/><path d="m38.85 93.1h1.75v1.75h-1.75z"/><path d="m38.85 91.35h1.75v1.75h-1.75z"/><path d="m38.85 89.6h1.75v1.75h-1.75z"/><path d="m38.85 87.85h1.75v1.75h-1.75z"/><path d="m38.85 86.1h1.75v1.75h-1.75z"/><path d="m38.85 84.35h1.75v1.75h-1.75z"/><path d="m38.85 82.6h1.75v1.75h-1.75z"/><path d="m38.85 80.85h1.75v1.75h-1.75z"/><path d="m38.85 79.1h1.75v1.75h-1.75z"/><path d="m38.85 77.35h1.75v1.75h-1.75z"/><path d="m38.85 63.7h1.75v1.75h-1.75z"/><path d="m38.85 44.8h1.75v1.75h-1.75z"/><path d="m38.85 13.65h1.75v1.75h-1.75z"/><path d="m38.85 12.25h1.75v1.4h-1.75z"/><path d="m38.85 10.5h1.75v1.75h-1.75z"/><path d="m38.85 8.75h1.75v1.75h-1.75z"/><path d="m38.85 7h1.75v1.75h-1.75z"/><path d="m38.85 5.25h1.75v1.75h-1.75z"/><path d="m38.85 3.5h1.75v1.75h-1.75z"/><path d="m37.1 101.5h1.75v1.75h-1.75z"/><path d="m37.1 99.75h1.75v1.75h-1.75z"/><path d="m37.1 98h1.75v1.75h-1.75z"/><path d="m37.1 96.6h1.75v1.4h-1.75z"/><path d="m37.1 94.85h1.75v1.75h-1.75z"/><path d="m37.1 93.1h1.75v1.75h-1.75z"/><path d="m37.1 91.35h1.75v1.75h-1.75z"/><path d="m37.1 89.6h1.75v1.75h-1.75z"/><path d="m37.1 87.85h1.75v1.75h-1.75z"/><path d="m37.1 63.7h1.75v1.75h-1.75z"/><path d="m37.1 44.8h1.75v1.75h-1.75z"/><path d="m37.1 15.4h1.75v1.75h-1.75z"/><path d="m37.1 13.65h1.75v1.75h-1.75z"/><path d="m37.1 12.25h1.75v1.4h-1.75z"/><path d="m37.1 10.5h1.75v1.75h-1.75z"/><path d="m37.1 8.75h1.75v1.75h-1.75z"/><path d="m37.1 7h1.75v1.75h-1.75z"/><path d="m37.1 5.25h1.75v1.75h-1.75z"/><path d="m35.35 99.75h1.75v1.75h-1.75z"/><path d="m35.35 98h1.75v1.75h-1.75z"/><path d="m35.35 96.6h1.75v1.4h-1.75z"/><path d="m35.35 94.85h1.75v1.75h-1.75z"/><path d="m35.35 93.1h1.75v1.75h-1.75z"/><path d="m35.35 91.35h1.75v1.75h-1.75z"/><path d="m35.35 89.6h1.75v1.75h-1.75z"/><path d="m35.35 87.85h1.75v1.75h-1.75z"/><path d="m35.35 86.1h1.75v1.75h-1.75z"/><path d="m35.35 63.7h1.75v1.75h-1.75z"/><path d="m35.35 46.2h1.75v1.75h-1.75z"/><path d="m35.35 15.4h1.75v1.75h-1.75z"/><path d="m35.35 13.65h1.75v1.75h-1.75z"/><path d="m35.35 12.25h1.75v1.4h-1.75z"/><path d="m35.35 10.5h1.75v1.75h-1.75z"/><path d="m35.35 8.75h1.75v1.75h-1.75z"/><path d="m33.6 98h1.75v1.75h-1.75z"/><path d="m33.6 96.6h1.75v1.4h-1.75z"/><path d="m33.6 94.85h1.75v1.75h-1.75z"/><path d="m33.6 93.1h1.75v1.75h-1.75z"/><path d="m33.6 91.35h1.75v1.75h-1.75z"/><path d="m33.6 89.6h1.75v1.75h-1.75z"/><path d="m33.6 87.85h1.75v1.75h-1.75z"/><path d="m33.6 86.1h1.75v1.75h-1.75z"/><path d="m33.6 84.35h1.75v1.75h-1.75z"/><path d="m33.6 62.3h1.75v1.75h-1.75z"/><path d="m33.6 46.2h1.75v1.75h-1.75z"/><path d="m33.6 15.4h1.75v1.75h-1.75z"/><path d="m33.6 13.65h1.75v1.75h-1.75z"/><path d="m33.6 12.25h1.75v1.4h-1.75z"/><path d="m33.6 10.5h1.75v1.75h-1.75z"/><path d="m33.6 8.75h1.75v1.75h-1.75z"/><path d="m31.85 96.6h1.75v1.4h-1.75z"/><path d="m31.85 94.85h1.75v1.75h-1.75z"/><path d="m31.85 93.1h1.75v1.75h-1.75z"/><path d="m31.85 91.35h1.75v1.75h-1.75z"/><path d="m31.85 89.6h1.75v1.75h-1.75z"/><path d="m31.85 87.85h1.75v1.75h-1.75z"/><path d="m31.85 86.1h1.75v1.75h-1.75z"/><path d="m31.85 84.35h1.75v1.75h-1.75z"/><path d="m31.85 62.3h1.75v1.75h-1.75z"/><path d="m31.85 60.2h1.75v1.75h-1.75z"/><path d="m31.85 46.2h1.75v1.75h-1.75z"/><path d="m31.85 15.4h1.75v1.75h-1.75z"/><path d="m31.85 13.65h1.75v1.75h-1.75z"/><path d="m31.85 12.25h1.75v1.4h-1.75z"/><path d="m31.85 10.5h1.75v1.75h-1.75z"/><path d="m30.1 93.1h1.75v1.75h-1.75z"/><path d="m30.1 91.35h1.75v1.75h-1.75z"/><path d="m30.1 89.6h1.75v1.75h-1.75z"/><path d="m30.1 87.85h1.75v1.75h-1.75z"/><path d="m30.1 86.1h1.75v1.75h-1.75z"/><path d="m30.1 84.35h1.75v1.75h-1.75z"/><path d="m30.1 58.8h1.75v1.75h-1.75z"/><path d="m30.1 56.7h1.75v1.75h-1.75z"/><path d="m30.1 46.2h1.75v1.75h-1.75z"/><path d="m30.1 17.15h1.75v1.75h-1.75z"/><path d="m30.1 15.4h1.75v1.75h-1.75z"/><path d="m30.1 13.65h1.75v1.75h-1.75z"/><path d="m28.35 89.6h1.75v1.75h-1.75z"/><path d="m28.35 87.85h1.75v1.75h-1.75z"/><path d="m28.35 86.1h1.75v1.75h-1.75z"/><path d="m28.35 84.35h1.75v1.75h-1.75z"/><path d="m28.35 55.3h1.75v1.75h-1.75z"/><path d="m28.35 53.2h1.75v1.75h-1.75z"/><path d="m28.35 51.8h1.75v1.75h-1.75z"/><path d="m28.35 49.7h1.75v1.75h-1.75z"/><path d="m28.35 48.3h1.75v1.75h-1.75z"/><path d="m28.35 18.9h1.75v1.75h-1.75z"/><path d="m28.35 17.15h1.75v1.75h-1.75z"/><path d="m28.35 15.4h1.75v1.75h-1.75z"/><path d="m26.6 82.6h1.75v1.75h-1.75z"/><path d="m26.6 80.85h1.75v1.75h-1.75z"/><path d="m26.6 79.1h1.75v1.75h-1.75z"/><path d="m26.6 77.35h1.75v1.75h-1.75z"/><path d="m26.6 75.6h1.75v1.75h-1.75z"/><path d="m26.6 51.8h1.75v1.75h-1.75z"/><path d="m26.6 49.7h1.75v1.75h-1.75z"/><path d="m26.6 48.3h1.75v1.75h-1.75z"/><path d="m26.6 20.65h1.75v1.75h-1.75z"/><path d="m26.6 18.9h1.75v1.75h-1.75z"/><path d="m26.6 17.15h1.75v1.75h-1.75z"/><path d="m24.85 22.4h1.75v1.75h-1.75z"/><path d="m24.85 20.65h1.75v1.75h-1.75z"/><path d="m23.1 27.65h1.75v1.75h-1.75z"/><path d="m23.1 25.9h1.75v1.75h-1.75z"/><path d="m23.1 24.15h1.75v1.75h-1.75z"/><path d="m23.1 22.4h1.75v1.75h-1.75z"/><path d="m21.7 31.15h1.4v1.75h-1.4z"/><path d="m21.7 29.4h1.4v1.75h-1.4z"/><path d="m21.7 27.65h1.4v1.75h-1.4z"/><path d="m21.7 25.9h1.4v1.75h-1.4z"/><path d="m19.95 38.15h1.75v1.75h-1.75z"/><path d="m19.95 36.4h1.75v1.75h-1.75z"/><path d="m19.95 34.65h1.75v1.75h-1.75z"/><path d="m19.95 32.9h1.75v1.75h-1.75z"/><path d="m19.95 31.15h1.75v1.75h-1.75z"/><path d="m19.95 29.4h1.75v1.75h-1.75z"/></g></svg>