<svg xmlns="http://www.w3.org/2000/svg" viewBox="0 0 144 144"><defs><style>.cls-1{fill:#171717;}</style></defs><g id="Layer_2" data-name="Layer 2"><g id="Layer_1-2" data-name="Layer 1"><path class="cls-1" d="M116.1,103.5h1.8v1.8h-1.8Zm0-1.8h1.8v1.8h-1.8Zm0-2.7h1.8v1.8h-1.8Zm0-1.8h1.8V99h-1.8Zm0-2.7h1.8v1.8h-1.8Zm0-1.8h1.8v1.8h-1.8Zm-2.7,22.5h1.8V117h-1.8Zm0-2.7h1.8v1.8h-1.8Zm0-1.8h1.8v1.8h-1.8Zm0-2.7h1.8v1.8h-1.8Zm0-1.8h1.8V108h-1.8Zm0-2.7h1.8v1.8h-1.8Zm0-1.8h1.8v1.8h-1.8Zm-1.8,18h1.8v1.8h-1.8Zm0-2.7h1.8v1.8h-1.8Zm0-1.8h1.8V117h-1.8Zm0-2.7h1.8v1.8h-1.8Zm0-1.8h1.8v1.8h-1.8Zm0-2.7h1.8v1.8h-1.8Zm0-1.8h1.8V108h-1.8Zm0-2.7h1.8v1.8h-1.8Zm0-41.4h1.8v1.8h-1.8Zm0-2.7h1.8v1.8h-1.8Zm0-1.8h1.8v1.8h-1.8Zm0-12.6h1.8v1.8h-1.8Zm0-2.7h1.8v1.8h-1.8Zm-2.7,81.9h1.8V126h-1.8Zm0-2.7h1.8v1.8h-1.8Zm0-1.8h1.8v1.8h-1.8Zm0-2.7h1.8v1.8h-1.8Zm0-1.8h1.8V117h-1.8Zm0-2.7h1.8v1.8h-1.8Zm0-1.8h1.8v1.8h-1.8Zm0-2.7h1.8v1.8h-1.8Zm0-1.8h1.8V108h-1.8Zm0-2.7h1.8v1.8h-1.8Zm0-32.4h1.8v1.8h-1.8Zm0-2.7h1.8v1.8h-1.8Zm0-1.8h1.8v1.8h-1.8Zm0-2.7h1.8v1.8h-1.8Zm0-1.8h1.8v1.8h-1.8Zm0-2.7h1.8v1.8h-1.8Zm0-1.8h1.8v1.8h-1.8Zm0-2.7h1.8v1.8h-1.8Zm0-1.8h1.8v1.8h-1.8Zm0-12.6h1.8v1.8h-1.8Zm0-2.7h1.8v1.8h-1.8Zm0-1.8h1.8v1.8h-1.8Zm-1.8,88.2h1.8V126h-1.8Zm0-2.7h1.8v1.8h-1.8Zm0-1.8h1.8v1.8h-1.8Zm0-2.7h1.8v1.8h-1.8Zm0-1.8h1.8V117h-1.8Zm0-2.7h1.8v1.8h-1.8Zm0-1.8h1.8v1.8h-1.8Zm0-2.7h1.8v1.8h-1.8Zm0-1.8h1.8V108h-1.8Zm0-2.7h1.8v1.8h-1.8Zm0-1.8h1.8v1.8h-1.8Zm0-2.7h1.8v1.8h-1.8Zm0-1.8h1.8V99h-1.8Zm0-24.3h1.8v1.8h-1.8Zm0-19.8h1.8v1.8h-1.8Zm0-19.8h1.8v1.8h-1.8Zm0-1.8h1.8v1.8h-1.8ZM104.4,126h1.8v1.8h-1.8Zm0-1.8h1.8V126h-1.8Zm0-2.7h1.8v1.8h-1.8Zm0-1.8h1.8v1.8h-1.8Zm0-2.7h1.8v1.8h-1.8Zm0-1.8h1.8V117h-1.8Zm0-2.7h1.8v1.8h-1.8Zm0-1.8h1.8v1.8h-1.8Zm0-2.7h1.8v1.8h-1.8Zm0-1.8h1.8V108h-1.8Zm0-2.7h1.8v1.8h-1.8Zm0-1.8h1.8v1.8h-1.8Zm0-2.7h1.8v1.8h-1.8Zm0-1.8h1.8V99h-1.8Zm0-2.7h1.8v1.8h-1.8Zm0-18.9h1.8v1.8h-1.8Zm0-22.5h1.8v1.8h-1.8Zm0-24.3h1.8v1.8h-1.8Zm-1.8,99h1.8v1.8h-1.8Zm0-1.8h1.8v1.8h-1.8Zm0-1.8h1.8V126h-1.8Zm0-2.7h1.8v1.8h-1.8Zm0-1.8h1.8v1.8h-1.8Zm0-2.7h1.8v1.8h-1.8Zm0-1.8h1.8V117h-1.8Zm0-2.7h1.8v1.8h-1.8Zm0-1.8h1.8v1.8h-1.8Zm0-2.7h1.8v1.8h-1.8Zm0-1.8h1.8V108h-1.8Zm0-2.7h1.8v1.8h-1.8Zm0-1.8h1.8v1.8h-1.8Zm0-2.7h1.8v1.8h-1.8Zm0-1.8h1.8V99h-1.8Zm0-2.7h1.8v1.8h-1.8Zm0-18.9h1.8v1.8h-1.8Zm0-22.5h1.8v1.8h-1.8Zm0-26.1h1.8v1.8h-1.8Zm0-2.7h1.8v1.8h-1.8Zm-1.8,106.2h1.8v1.8h-1.8Zm0-2.7h1.8v1.8h-1.8Zm0-1.8h1.8v1.8h-1.8Zm0-1.8h1.8V126h-1.8Zm0-2.7h1.8v1.8h-1.8Zm0-1.8h1.8v1.8h-1.8Zm0-2.7h1.8v1.8h-1.8Zm0-1.8h1.8V117h-1.8Zm0-2.7h1.8v1.8h-1.8Zm0-9h1.8v1.8h-1.8Zm0-1.8h1.8v1.8h-1.8Zm0-2.7h1.8v1.8h-1.8Zm0-1.8h1.8V99h-1.8Zm0-2.7h1.8v1.8h-1.8Zm0-1.8h1.8v1.8h-1.8Zm0-17.1h1.8v1.8h-1.8Zm0-22.5h1.8v1.8h-1.8Zm0-28.8h1.8v1.8h-1.8ZM98.1,133.2h1.8V135H98.1Zm0-2.7h1.8v1.8H98.1Zm0-2.7h1.8v1.8H98.1Zm0-1.8h1.8v1.8H98.1Zm0-1.8h1.8V126H98.1Zm0-2.7h1.8v1.8H98.1Zm0-1.8h1.8v1.8H98.1Zm0-2.7h1.8v1.8H98.1Zm0-1.8h1.8V117H98.1Zm0-11.7h1.8v1.8H98.1Zm0-1.8h1.8v1.8H98.1Zm0-2.7h1.8v1.8H98.1Zm0-1.8h1.8V99H98.1Zm0-2.7h1.8v1.8H98.1Zm0-1.8h1.8v1.8H98.1Zm0-15.3h1.8v1.8H98.1Zm0-24.3h1.8v1.8H98.1Zm0-30.6h1.8v1.8H98.1ZM96.3,135h1.8v1.8H96.3Zm0-1.8h1.8V135H96.3Zm0-2.7h1.8v1.8H96.3Zm0-2.7h1.8v1.8H96.3Zm0-1.8h1.8v1.8H96.3Zm0-1.8h1.8V126H96.3Zm0-2.7h1.8v1.8H96.3Zm0-1.8h1.8v1.8H96.3Zm0-9h1.8v1.8H96.3Zm0-2.7h1.8v1.8H96.3Zm0-1.8h1.8V108H96.3Zm0-2.7h1.8v1.8H96.3Zm0-1.8h1.8v1.8H96.3Zm0-2.7h1.8v1.8H96.3Zm0-1.8h1.8V99H96.3Zm0-2.7h1.8v1.8H96.3Zm0-1.8h1.8v1.8H96.3Zm0-15.3h1.8v1.8H96.3Zm0-24.3h1.8v1.8H96.3Zm0-33.3h1.8v1.8H96.3Zm-2.7,117h1.8v1.8H93.6Zm0-1.8h1.8v1.8H93.6Zm0-1.8h1.8V135H93.6Zm0-2.7h1.8v1.8H93.6Zm0-2.7h1.8v1.8H93.6Zm0-1.8h1.8v1.8H93.6Zm0-10.8h1.8V117H93.6Zm0-2.7h1.8v1.8H93.6Zm0-1.8h1.8v1.8H93.6Zm0-2.7h1.8v1.8H93.6Zm0-1.8h1.8V108H93.6Zm0-2.7h1.8v1.8H93.6Zm0-1.8h1.8v1.8H93.6Zm0-2.7h1.8v1.8H93.6Zm0-1.8h1.8V99H93.6Zm0-2.7h1.8v1.8H93.6Zm0-1.8h1.8v1.8H93.6Zm0-15.3h1.8v1.8H93.6Zm0-24.3h1.8v1.8H93.6Zm0-33.3h1.8v1.8H93.6Zm0-1.8h1.8v1.8H93.6ZM91.8,136.8h1.8v1.8H91.8Zm0-1.8h1.8v1.8H91.8Zm0-1.8h1.8V135H91.8Zm0-2.7h1.8v1.8H91.8Zm0-2.7h1.8v1.8H91.8Zm0-10.8h1.8v1.8H91.8Zm0-1.8h1.8V117H91.8Zm0-2.7h1.8v1.8H91.8Zm0-1.8h1.8v1.8H91.8Zm0-7.2h1.8v1.8H91.8Zm0-1.8h1.8v1.8H91.8Zm0-2.7h1.8v1.8H91.8Zm0-1.8h1.8V99H91.8Zm0-2.7h1.8v1.8H91.8Zm0-1.8h1.8v1.8H91.8Zm0-15.3h1.8v1.8H91.8Zm0-22.5h1.8v1.8H91.8Zm0-1.8h1.8v1.8H91.8Zm0-35.1h1.8v1.8H91.8Zm0-1.8h1.8V18H91.8ZM89.1,139.5h1.8v1.8H89.1Zm0-2.7h1.8v1.8H89.1Zm0-1.8h1.8v1.8H89.1Zm0-1.8h1.8V135H89.1Zm0-2.7h1.8v1.8H89.1Zm0-2.7h1.8v1.8H89.1Zm0-10.8h1.8v1.8H89.1Zm0-1.8h1.8V117H89.1Zm0-2.7h1.8v1.8H89.1Zm0-1.8h1.8v1.8H89.1Zm0-7.2h1.8v1.8H89.1Zm0-1.8h1.8v1.8H89.1Zm0-2.7h1.8v1.8H89.1Zm0-1.8h1.8V99H89.1Zm0-2.7h1.8v1.8H89.1Zm0-1.8h1.8v1.8H89.1Zm0-2.7h1.8v1.8H89.1Zm0-12.6h1.8v1.8H89.1Zm0-22.5h1.8v1.8H89.1Zm0-1.8h1.8v1.8H89.1Zm0-35.1h1.8v1.8H89.1Zm0-1.8h1.8V18H89.1Zm0-2.7h1.8v1.8H89.1Zm-1.8,126h1.8v1.8H87.3Zm0-2.7h1.8v1.8H87.3Zm0-1.8h1.8v1.8H87.3Zm0-1.8h1.8V135H87.3Zm0-2.7h1.8v1.8H87.3Zm0-2.7h1.8v1.8H87.3Zm0-10.8h1.8v1.8H87.3Zm0-1.8h1.8V117H87.3Zm0-2.7h1.8v1.8H87.3Zm0-9h1.8v1.8H87.3Zm0-1.8h1.8v1.8H87.3Zm0-2.7h1.8v1.8H87.3Zm0-1.8h1.8V99H87.3Zm0-2.7h1.8v1.8H87.3Zm0-1.8h1.8v1.8H87.3Zm0-2.7h1.8v1.8H87.3Zm0-1.8h1.8V90H87.3Zm0-12.6h1.8v1.8H87.3Zm0-20.7h1.8v1.8H87.3Zm0-36.9h1.8v1.8H87.3Zm0-1.8h1.8V18H87.3Zm0-2.7h1.8v1.8H87.3Zm0-2.7h1.8v1.8H87.3Zm0-1.8h1.8v1.8H87.3ZM84.6,139.5h1.8v1.8H84.6Zm0-2.7h1.8v1.8H84.6Zm0-1.8h1.8v1.8H84.6Zm0-1.8h1.8V135H84.6Zm0-2.7h1.8v1.8H84.6Zm0-2.7h1.8v1.8H84.6Zm0-1.8h1.8v1.8H84.6Zm0-1.8h1.8V126H84.6Zm0-4.5h1.8v1.8H84.6Zm0-2.7h1.8v1.8H84.6Zm0-1.8h1.8V117H84.6Zm0-11.7h1.8v1.8H84.6Zm0-1.8h1.8v1.8H84.6Zm0-2.7h1.8v1.8H84.6Zm0-1.8h1.8V99H84.6Zm0-2.7h1.8v1.8H84.6Zm0-1.8h1.8v1.8H84.6Zm0-2.7h1.8v1.8H84.6Zm0-1.8h1.8V90H84.6Zm0-12.6h1.8v1.8H84.6Zm0-20.7h1.8v1.8H84.6Zm0-38.7h1.8V18H84.6Zm0-2.7h1.8v1.8H84.6Zm0-2.7h1.8v1.8H84.6Zm0-1.8h1.8v1.8H84.6ZM82.8,142.2h1.8V144H82.8Zm0-2.7h1.8v1.8H82.8Zm0-2.7h1.8v1.8H82.8Zm0-1.8h1.8v1.8H82.8Zm0-1.8h1.8V135H82.8Zm0-2.7h1.8v1.8H82.8Zm0-2.7h1.8v1.8H82.8Zm0-1.8h1.8v1.8H82.8Zm0-1.8h1.8V126H82.8Zm0-4.5h1.8v1.8H82.8Zm0-2.7h1.8v1.8H82.8Zm0-1.8h1.8V117H82.8Zm0-11.7h1.8v1.8H82.8Zm0-1.8h1.8v1.8H82.8Zm0-2.7h1.8v1.8H82.8Zm0-1.8h1.8V99H82.8Zm0-2.7h1.8v1.8H82.8Zm0-1.8h1.8v1.8H82.8Zm0-2.7h1.8v1.8H82.8Zm0-1.8h1.8V90H82.8Zm0-15.3h1.8v1.8H82.8Zm0-18h1.8v1.8H82.8Zm0-38.7h1.8V18H82.8Zm0-2.7h1.8v1.8H82.8Zm0-2.7h1.8v1.8H82.8Zm0-1.8h1.8v1.8H82.8ZM80.1,142.2h1.8V144H80.1Zm0-2.7h1.8v1.8H80.1Zm0-2.7h1.8v1.8H80.1Zm0-1.8h1.8v1.8H80.1Zm0-1.8h1.8V135H80.1Zm0-2.7h1.8v1.8H80.1Zm0-2.7h1.8v1.8H80.1Zm0-1.8h1.8v1.8H80.1Zm0-1.8h1.8V126H80.1Zm0-4.5h1.8v1.8H80.1Zm0-2.7h1.8v1.8H80.1Zm0-1.8h1.8V117H80.1Zm0-11.7h1.8v1.8H80.1Zm0-1.8h1.8v1.8H80.1Zm0-2.7h1.8v1.8H80.1Zm0-1.8h1.8V99H80.1Zm0-2.7h1.8v1.8H80.1Zm0-1.8h1.8v1.8H80.1Zm0-2.7h1.8v1.8H80.1Zm0-1.8h1.8V90H80.1Zm0-17.1h1.8v1.8H80.1Zm0-2.7h1.8v1.8H80.1Zm0-10.8h1.8v1.8H80.1Zm0-2.7h1.8v1.8H80.1Zm0-38.7h1.8V18H80.1Zm0-2.7h1.8v1.8H80.1Zm0-2.7h1.8v1.8H80.1Zm0-1.8h1.8v1.8H80.1Zm0-1.8h1.8V9H80.1Zm-1.8,135h1.8V144H78.3Zm0-2.7h1.8v1.8H78.3Zm0-2.7h1.8v1.8H78.3Zm0-1.8h1.8v1.8H78.3Zm0-1.8h1.8V135H78.3Zm0-2.7h1.8v1.8H78.3Zm0-2.7h1.8v1.8H78.3Zm0-1.8h1.8v1.8H78.3Zm0-1.8h1.8V126H78.3Zm0-4.5h1.8v1.8H78.3Zm0-2.7h1.8v1.8H78.3Zm0-1.8h1.8V117H78.3Zm0-11.7h1.8v1.8H78.3Zm0-1.8h1.8v1.8H78.3Zm0-2.7h1.8v1.8H78.3Zm0-1.8h1.8V99H78.3Zm0-2.7h1.8v1.8H78.3Zm0-1.8h1.8v1.8H78.3Zm0-2.7h1.8v1.8H78.3Zm0-23.4h1.8v1.8H78.3Zm0-2.7h1.8v1.8H78.3Zm0-1.8h1.8v1.8H78.3Zm0-2.7h1.8v1.8H78.3Zm0-1.8h1.8v1.8H78.3Zm0-41.4h1.8V18H78.3Zm0-2.7h1.8v1.8H78.3Zm0-2.7h1.8v1.8H78.3Zm0-1.8h1.8v1.8H78.3Zm0-1.8h1.8V9H78.3Zm0-2.7h1.8V6.3H78.3ZM75.6,142.2h1.8V144H75.6Zm0-2.7h1.8v1.8H75.6Zm0-2.7h1.8v1.8H75.6Zm0-1.8h1.8v1.8H75.6Zm0-1.8h1.8V135H75.6Zm0-2.7h1.8v1.8H75.6Zm0-2.7h1.8v1.8H75.6Zm0-1.8h1.8v1.8H75.6Zm0-1.8h1.8V126H75.6Zm0-4.5h1.8v1.8H75.6Zm0-2.7h1.8v1.8H75.6Zm0-1.8h1.8V117H75.6Zm0-11.7h1.8v1.8H75.6Zm0-1.8h1.8v1.8H75.6Zm0-2.7h1.8v1.8H75.6Zm0-1.8h1.8V99H75.6Zm0-2.7h1.8v1.8H75.6Zm0-1.8h1.8v1.8H75.6Zm0-2.7h1.8v1.8H75.6Zm0-27.9h1.8v1.8H75.6Zm0-2.7h1.8v1.8H75.6Zm0-43.2h1.8V18H75.6Zm0-2.7h1.8v1.8H75.6Zm0-2.7h1.8v1.8H75.6Zm0-1.8h1.8v1.8H75.6Zm0-1.8h1.8V9H75.6Zm0-2.7h1.8V6.3H75.6ZM73.8,142.2h1.8V144H73.8Zm0-2.7h1.8v1.8H73.8Zm0-2.7h1.8v1.8H73.8Zm0-1.8h1.8v1.8H73.8Zm0-1.8h1.8V135H73.8Zm0-2.7h1.8v1.8H73.8Zm0-2.7h1.8v1.8H73.8Zm0-1.8h1.8v1.8H73.8Zm0-1.8h1.8V126H73.8Zm0-4.5h1.8v1.8H73.8Zm0-2.7h1.8v1.8H73.8Zm0-1.8h1.8V117H73.8Zm0-11.7h1.8v1.8H73.8Zm0-1.8h1.8v1.8H73.8Zm0-2.7h1.8v1.8H73.8Zm0-1.8h1.8V99H73.8Zm0-2.7h1.8v1.8H73.8Zm0-1.8h1.8v1.8H73.8Zm0-2.7h1.8v1.8H73.8Zm0-27.9h1.8v1.8H73.8Zm0-2.7h1.8v1.8H73.8Zm0-43.2h1.8V18H73.8Zm0-2.7h1.8v1.8H73.8Zm0-2.7h1.8v1.8H73.8Zm0-1.8h1.8v1.8H73.8Zm0-1.8h1.8V9H73.8Zm0-2.7h1.8V6.3H73.8ZM71.1,142.2h1.8V144H71.1Zm0-2.7h1.8v1.8H71.1Zm0-2.7h1.8v1.8H71.1Zm0-1.8h1.8v1.8H71.1Zm0-1.8h1.8V135H71.1Zm0-2.7h1.8v1.8H71.1Zm0-2.7h1.8v1.8H71.1Zm0-1.8h1.8v1.8H71.1Zm0-1.8h1.8V126H71.1Zm0-7.2h1.8v1.8H71.1Zm0-1.8h1.8V117H71.1Zm0-11.7h1.8v1.8H71.1Zm0-1.8h1.8v1.8H71.1Zm0-2.7h1.8v1.8H71.1Zm0-1.8h1.8V99H71.1Zm0-2.7h1.8v1.8H71.1Zm0-1.8h1.8v1.8H71.1Zm0-2.7h1.8v1.8H71.1Zm0-1.8h1.8V90H71.1Zm0-26.1h1.8v1.8H71.1Zm0-2.7h1.8v1.8H71.1Zm0-43.2h1.8V18H71.1Zm0-2.7h1.8v1.8H71.1Zm0-2.7h1.8v1.8H71.1Zm0-1.8h1.8v1.8H71.1Zm0-1.8h1.8V9H71.1Zm0-2.7h1.8V6.3H71.1ZM69.3,142.2h1.8V144H69.3Zm0-2.7h1.8v1.8H69.3Zm0-2.7h1.8v1.8H69.3Zm0-1.8h1.8v1.8H69.3Zm0-1.8h1.8V135H69.3Zm0-16.2h1.8v1.8H69.3Zm0-1.8h1.8V117H69.3Zm0-2.7h1.8v1.8H69.3Zm0-9h1.8v1.8H69.3Zm0-1.8h1.8v1.8H69.3Zm0-2.7h1.8v1.8H69.3Zm0-1.8h1.8V99H69.3Zm0-2.7h1.8v1.8H69.3Zm0-1.8h1.8v1.8H69.3Zm0-2.7h1.8v1.8H69.3Zm0-1.8h1.8V90H69.3Zm0-19.8h1.8v1.8H69.3Zm0-1.8h1.8v1.8H69.3Zm0-2.7h1.8v1.8H69.3Zm0-1.8h1.8v1.8H69.3Zm0-2.7h1.8v1.8H69.3Zm0-41.4h1.8v1.8H69.3Zm0-1.8h1.8V18H69.3Zm0-2.7h1.8v1.8H69.3Zm0-2.7h1.8v1.8H69.3Zm0-1.8h1.8v1.8H69.3Zm0-1.8h1.8V9H69.3Zm0-2.7h1.8V6.3H69.3Zm0-2.7h1.8V3.6H69.3ZM66.6,139.5h1.8v1.8H66.6Zm0-2.7h1.8v1.8H66.6Zm0-1.8h1.8v1.8H66.6Zm0-1.8h1.8V135H66.6Zm0-16.2h1.8v1.8H66.6Zm0-1.8h1.8V117H66.6Zm0-2.7h1.8v1.8H66.6Zm0-1.8h1.8v1.8H66.6Zm0-7.2h1.8v1.8H66.6Zm0-1.8h1.8v1.8H66.6Zm0-2.7h1.8v1.8H66.6Zm0-1.8h1.8V99H66.6Zm0-2.7h1.8v1.8H66.6Zm0-1.8h1.8v1.8H66.6Zm0-2.7h1.8v1.8H66.6Zm0-1.8h1.8V90H66.6Zm0-12.6h1.8v1.8H66.6Zm0-2.7h1.8v1.8H66.6Zm0-1.8h1.8v1.8H66.6Zm0-11.7h1.8v1.8H66.6Zm0-41.4h1.8v1.8H66.6Zm0-1.8h1.8V18H66.6Zm0-2.7h1.8v1.8H66.6Zm0-2.7h1.8v1.8H66.6Zm0-1.8h1.8v1.8H66.6Zm0-1.8h1.8V9H66.6Zm0-2.7h1.8V6.3H66.6Zm0-2.7h1.8V3.6H66.6ZM64.8,139.5h1.8v1.8H64.8Zm0-2.7h1.8v1.8H64.8Zm0-1.8h1.8v1.8H64.8Zm0-1.8h1.8V135H64.8Zm0-2.7h1.8v1.8H64.8Zm0-15.3h1.8V117H64.8Zm0-2.7h1.8v1.8H64.8Zm0-1.8h1.8v1.8H64.8Zm0-7.2h1.8v1.8H64.8Zm0-1.8h1.8v1.8H64.8Zm0-2.7h1.8v1.8H64.8Zm0-1.8h1.8V99H64.8Zm0-2.7h1.8v1.8H64.8Zm0-17.1h1.8v1.8H64.8Zm0-19.8h1.8v1.8H64.8ZM63,136.8h1.8v1.8H63Zm0-1.8h1.8v1.8H63Zm0-1.8h1.8V135H63Zm0-2.7h1.8v1.8H63Zm0-18h1.8v1.8H63Zm0-1.8h1.8v1.8H63Zm0-2.7h1.8v1.8H63Zm0-1.8h1.8V108H63Zm0-2.7h1.8v1.8H63Zm0-1.8h1.8v1.8H63ZM63,99h1.8v1.8H63Zm0-1.8h1.8V99H63Zm0-2.7h1.8v1.8H63Zm0-14.4h1.8v1.8H63Zm0-22.5h1.8v1.8H63Zm-1.8,79.2H63v1.8H61.2Zm0-1.8H63v1.8H61.2Zm0-1.8H63V135H61.2Zm0-2.7H63v1.8H61.2Zm0-2.7H63v1.8H61.2Zm0-17.1H63v1.8H61.2Zm0-2.7H63v1.8H61.2Zm0-1.8H63V108H61.2Zm0-2.7H63v1.8H61.2Zm0-1.8H63v1.8H61.2Zm0-2.7H63v1.8H61.2Zm0-1.8H63V99H61.2Zm0-17.1H63v1.8H61.2Zm0-22.5H63v1.8H61.2Zm0-39.6h6.3v1.8H61.2Zm0-1.8h6.3V18H61.2Zm0-2.7h6.3v1.8H61.2Zm0-2.7h6.3v1.8H61.2Zm0-1.8h6.3v1.8H61.2Zm0-1.8h6.3V9H61.2Zm0-2.7h6.3V6.3H61.2Zm0-2.7h6.3V3.6H61.2Zm0-1.8h6.3V1.8H61.2ZM58.5,136.8h1.8v1.8H58.5Zm0-1.8h1.8v1.8H58.5Zm0-1.8h1.8V135H58.5Zm0-2.7h1.8v1.8H58.5Zm0-2.7h1.8v1.8H58.5Zm0-1.8h1.8v1.8H58.5Zm0-1.8h1.8V126H58.5Zm0-20.7h1.8v1.8H58.5Zm0-1.8h1.8v1.8H58.5Zm0-2.7h1.8v1.8H58.5Zm0-1.8h1.8V99H58.5Zm0-17.1h1.8v1.8H58.5Zm0-22.5h1.8v1.8H58.5Zm0-44.1h1.8v1.8H58.5Zm0-2.7h1.8v1.8H58.5Zm0-1.8h1.8v1.8H58.5Zm0-1.8h1.8V9H58.5Zm0-2.7h1.8V6.3H58.5Zm0-2.7h1.8V3.6H58.5ZM56.7,135h1.8v1.8H56.7Zm0-1.8h1.8V135H56.7Zm0-2.7h1.8v1.8H56.7Zm0-2.7h1.8v1.8H56.7Zm0-1.8h1.8v1.8H56.7Zm0-1.8h1.8V126H56.7Zm0-2.7h1.8v1.8H56.7Zm0-1.8h1.8v1.8H56.7Zm0-16.2h1.8v1.8H56.7Zm0-1.8h1.8v1.8H56.7Zm0-2.7h1.8v1.8H56.7Zm0-1.8h1.8V99H56.7Zm0-15.3h1.8v1.8H56.7Zm0-24.3h1.8v1.8H56.7Zm0-41.4h1.8V18H56.7Zm0-2.7h1.8v1.8H56.7Zm0-2.7h1.8v1.8H56.7Zm0-1.8h1.8v1.8H56.7Zm0-1.8h1.8V9H56.7Zm0-2.7h1.8V6.3H56.7Zm0-2.7h1.8V3.6H56.7ZM54,135h1.8v1.8H54Zm0-1.8h1.8V135H54Zm0-2.7h1.8v1.8H54Zm0-2.7h1.8v1.8H54Zm0-1.8h1.8v1.8H54Zm0-1.8h1.8V126H54Zm0-2.7h1.8v1.8H54Zm0-1.8h1.8v1.8H54Zm0-2.7h1.8v1.8H54Zm0-13.5h1.8v1.8H54Zm0-1.8h1.8v1.8H54ZM54,99h1.8v1.8H54Zm0-1.8h1.8V99H54Zm0-15.3h1.8v1.8H54Zm0-24.3h1.8v1.8H54ZM54,18h1.8v1.8H54Zm0-1.8h1.8V18H54Zm0-2.7h1.8v1.8H54Zm0-2.7h1.8v1.8H54ZM54,9h1.8v1.8H54Zm0-1.8h1.8V9H54Zm0-2.7h1.8V6.3H54ZM52.2,133.2H54V135H52.2Zm0-2.7H54v1.8H52.2Zm0-2.7H54v1.8H52.2Zm0-1.8H54v1.8H52.2Zm0-1.8H54V126H52.2Zm0-2.7H54v1.8H52.2Zm0-1.8H54v1.8H52.2Zm0-2.7H54v1.8H52.2Zm0-1.8H54V117H52.2Zm0-2.7H54v1.8H52.2Zm0-1.8H54v1.8H52.2Zm0-2.7H54v1.8H52.2Zm0-1.8H54V108H52.2Zm0-2.7H54v1.8H52.2Zm0-1.8H54v1.8H52.2Zm0-2.7H54v1.8H52.2Zm0-17.1H54v1.8H52.2Zm0-24.3H54v1.8H52.2Zm0-39.6H54v1.8H52.2Zm0-1.8H54V18H52.2Zm0-2.7H54v1.8H52.2Zm0-2.7H54v1.8H52.2Zm0-1.8H54v1.8H52.2Zm0-1.8H54V9H52.2Zm0-2.7H54V6.3H52.2ZM49.5,133.2h1.8V135H49.5Zm0-2.7h1.8v1.8H49.5Zm0-2.7h1.8v1.8H49.5Zm0-1.8h1.8v1.8H49.5Zm0-1.8h1.8V126H49.5Zm0-2.7h1.8v1.8H49.5Zm0-1.8h1.8v1.8H49.5Zm0-2.7h1.8v1.8H49.5Zm0-1.8h1.8V117H49.5Zm0-2.7h1.8v1.8H49.5Zm0-1.8h1.8v1.8H49.5Zm0-2.7h1.8v1.8H49.5Zm0-1.8h1.8V108H49.5Zm0-2.7h1.8v1.8H49.5Zm0-1.8h1.8v1.8H49.5Zm0-2.7h1.8v1.8H49.5Zm0-17.1h1.8v1.8H49.5Zm0-24.3h1.8v1.8H49.5Zm0-39.6h1.8v1.8H49.5Zm0-1.8h1.8V18H49.5Zm0-2.7h1.8v1.8H49.5Zm0-2.7h1.8v1.8H49.5Zm0-1.8h1.8v1.8H49.5Zm0-1.8h1.8V9H49.5Zm0-2.7h1.8V6.3H49.5Zm-1.8,126h1.8v1.8H47.7Zm0-2.7h1.8v1.8H47.7Zm0-1.8h1.8v1.8H47.7Zm0-1.8h1.8V126H47.7Zm0-2.7h1.8v1.8H47.7Zm0-1.8h1.8v1.8H47.7Zm0-2.7h1.8v1.8H47.7Zm0-1.8h1.8V117H47.7Zm0-2.7h1.8v1.8H47.7Zm0-30.6h1.8v1.8H47.7Zm0-24.3h1.8v1.8H47.7Zm0-37.8h1.8v1.8H47.7Zm0-1.8h1.8v1.8H47.7Zm0-1.8h1.8V18H47.7Zm0-2.7h1.8v1.8H47.7Zm0-2.7h1.8v1.8H47.7Zm0-1.8h1.8v1.8H47.7Zm0-1.8h1.8V9H47.7ZM45,127.8h1.8v1.8H45Zm0-1.8h1.8v1.8H45Zm0-1.8h1.8V126H45Zm0-2.7h1.8v1.8H45Zm0-1.8h1.8v1.8H45Zm0-2.7h1.8v1.8H45Zm0-1.8h1.8V117H45Zm0-2.7h1.8v1.8H45Zm0-1.8h1.8v1.8H45Zm0-28.8h1.8v1.8H45Zm0-22.5h1.8v1.8H45Zm0-39.6h1.8v1.8H45ZM45,18h1.8v1.8H45Zm0-1.8h1.8V18H45Zm0-2.7h1.8v1.8H45Zm0-2.7h1.8v1.8H45ZM43.2,126H45v1.8H43.2Zm0-1.8H45V126H43.2Zm0-2.7H45v1.8H43.2Zm0-1.8H45v1.8H43.2Zm0-2.7H45v1.8H43.2Zm0-1.8H45V117H43.2Zm0-2.7H45v1.8H43.2Zm0-1.8H45v1.8H43.2Zm0-2.7H45v1.8H43.2Zm0-27.9H45v1.8H43.2Zm0-20.7H45v1.8H43.2Zm0-39.6H45v1.8H43.2Zm0-1.8H45v1.8H43.2Zm0-1.8H45V18H43.2Zm0-2.7H45v1.8H43.2Zm0-2.7H45v1.8H43.2ZM40.5,124.2h1.8V126H40.5Zm0-2.7h1.8v1.8H40.5Zm0-1.8h1.8v1.8H40.5Zm0-2.7h1.8v1.8H40.5Zm0-1.8h1.8V117H40.5Zm0-2.7h1.8v1.8H40.5Zm0-1.8h1.8v1.8H40.5Zm0-2.7h1.8v1.8H40.5Zm0-27.9h1.8v1.8H40.5Zm0-2.7h1.8v1.8H40.5Zm0-18h1.8v1.8H40.5Zm0-39.6h1.8v1.8H40.5Zm0-1.8h1.8v1.8H40.5Zm0-1.8h1.8V18H40.5Zm0-2.7h1.8v1.8H40.5ZM38.7,119.7h1.8v1.8H38.7Zm0-2.7h1.8v1.8H38.7Zm0-1.8h1.8V117H38.7Zm0-2.7h1.8v1.8H38.7Zm0-1.8h1.8v1.8H38.7Zm0-2.7h1.8v1.8H38.7Zm0-32.4h1.8v1.8H38.7Zm0-2.7h1.8v1.8H38.7Zm0-13.5h1.8v1.8H38.7Zm0-36.9h1.8v1.8H38.7Zm0-2.7h1.8v1.8H38.7Zm0-1.8h1.8v1.8H38.7ZM36,115.2h1.8V117H36Zm0-2.7h1.8v1.8H36Zm0-1.8h1.8v1.8H36Zm0-2.7h1.8v1.8H36Zm0-36.9h1.8v1.8H36Zm0-2.7h1.8v1.8H36Zm0-1.8h1.8v1.8H36Zm0-2.7h1.8v1.8H36Zm0-1.8h1.8v1.8H36Zm0-37.8h1.8v1.8H36Zm0-1.8h1.8v1.8H36Zm0-2.7h1.8v1.8H36Zm-1.8,86.4H36V108H34.2Zm0-2.7H36v1.8H34.2Zm0-1.8H36v1.8H34.2Zm0-2.7H36v1.8H34.2Zm0-1.8H36V99H34.2Zm0-30.6H36v1.8H34.2Zm0-2.7H36v1.8H34.2Zm0-1.8H36v1.8H34.2Zm0-35.1H36v1.8H34.2Zm0-2.7H36v1.8H34.2Zm0-1.8H36v1.8H34.2Zm-2.7,6.3h1.8v1.8H31.5Zm0-1.8h1.8v1.8H31.5Zm-1.8,9h1.8v1.8H29.7Zm0-2.7h1.8v1.8H29.7Zm0-1.8h1.8v1.8H29.7Zm0-2.7h1.8v1.8H29.7ZM27.9,40.5h1.8v1.8H27.9Zm0-2.7h1.8v1.8H27.9Zm0-1.8h1.8v1.8H27.9Zm0-2.7h1.8v1.8H27.9ZM25.2,49.5H27v1.8H25.2Zm0-2.7H27v1.8H25.2Zm0-1.8H27v1.8H25.2Zm0-2.7H27v1.8H25.2Zm0-1.8H27v1.8H25.2Zm0-2.7H27v1.8H25.2ZM144,0H0V144H144Z"/></g></g></svg>