<svg xmlns="http://www.w3.org/2000/svg" viewBox="0 0 16 16"><defs><style>.cls-1{fill:#171717;}</style></defs><g id="Layer_2" data-name="Layer 2"><g id="Layer_1-2" data-name="Layer 1"><path class="cls-1" d="M12.9,11.55h.25v.25H12.9Zm0-.25h.25v.25H12.9Zm0-.25h.25v.25H12.9Zm0-.25h.25v.25H12.9Zm0-.25h.25v.25H12.9Zm0-.25h.25v.25H12.9Zm-.25,2.5h.25v.25h-.25Zm0-.25h.25v.25h-.25Zm0-.25h.25v.25h-.25Zm0-.25h.25v.25h-.25Zm0-.25h.25v.25h-.25Zm0-.25h.25v.25h-.25Zm0-.25h.25v.25h-.25Zm-.25,2h.25v.25H12.4Zm0-.25h.25v.25H12.4Zm0-.25h.25v.25H12.4Zm0-.25h.25v.25H12.4Zm0-.25h.25v.25H12.4Zm0-.25h.25v.25H12.4Zm0-.25h.25v.25H12.4Zm0-.25h.25v.25H12.4Zm0-4.65h.25v.25H12.4Zm0-.3h.25v.25H12.4Zm0-.2h.25v.25H12.4ZM12.4,5h.25V5.2H12.4Zm0-.25h.25V5H12.4Zm-.25,9.1h.25V14h-.25Zm0-.25h.25v.25h-.25Zm0-.25h.25v.25h-.25Zm0-.25h.25v.25h-.25Zm0-.25h.25v.25h-.25Zm0-.25h.25v.25h-.25Zm0-.25h.25v.25h-.25Zm0-.25h.25v.25h-.25Zm0-.25h.25v.25h-.25Zm0-.25h.25v.25h-.25Zm0-3.65h.25v.25h-.25Zm0-.3h.25v.25h-.25Zm0-.2h.25v.25h-.25Zm0-.3h.25v.25h-.25Zm0-.2h.25v.25h-.25Zm0-.3h.25v.25h-.25Zm0-.2h.25v.25h-.25Zm0-.3h.25v.25h-.25Zm0-.2h.25v.25h-.25Zm0-1.45h.25V4.7h-.25Zm0-.25h.25v.25h-.25Zm0-.25h.25V4.2h-.25ZM11.9,13.8h.25V14H11.9Zm0-.25h.25v.25H11.9Zm0-.25h.25v.25H11.9Zm0-.25h.25v.25H11.9Zm0-.25h.25v.25H11.9Zm0-.25h.25v.25H11.9Zm0-.25h.25v.25H11.9Zm0-.25h.25v.25H11.9Zm0-.25h.25v.25H11.9Zm0-.25h.25v.25H11.9Zm0-.25h.25v.25H11.9Zm0-.25h.25v.25H11.9Zm0-.25h.25v.25H11.9Zm0-2.7h.25v.25H11.9Zm0-2.2h.25v.25H11.9Zm0-2.2h.25V4H11.9Zm0-.25h.25V3.7H11.9ZM11.65,14h.25v.25h-.25Zm0-.2h.25V14h-.25Zm0-.25h.25v.25h-.25Zm0-.25h.25v.25h-.25Zm0-.25h.25v.25h-.25Zm0-.25h.25v.25h-.25Zm0-.25h.25v.25h-.25Zm0-.25h.25v.25h-.25Zm0-.25h.25v.25h-.25Zm0-.25h.25v.25h-.25Zm0-.25h.25v.25h-.25Zm0-.25h.25v.25h-.25Zm0-.25h.25v.25h-.25Zm0-.25h.25v.25h-.25Zm0-.25h.25v.25h-.25Zm0-2.15h.25v.25h-.25Zm0-2.5h.25v.25h-.25Zm0-2.7h.25v.25h-.25ZM11.4,14.25h.25v.25H11.4Zm0-.25h.25v.25H11.4Zm0-.2h.25V14H11.4Zm0-.25h.25v.25H11.4Zm0-.25h.25v.25H11.4Zm0-.25h.25v.25H11.4Zm0-.25h.25v.25H11.4Zm0-.25h.25v.25H11.4Zm0-.25h.25v.25H11.4Zm0-.25h.25v.25H11.4Zm0-.25h.25v.25H11.4Zm0-.25h.25v.25H11.4Zm0-.25h.25v.25H11.4Zm0-.25h.25v.25H11.4Zm0-.25h.25v.25H11.4Zm0-.25h.25v.25H11.4Zm0-2.15h.25v.25H11.4Zm0-2.5h.25v.25H11.4ZM11.4,3h.25V3.2H11.4Zm0-.25h.25V3H11.4Zm-.2,11.8h.2v.25h-.2Zm0-.25h.2v.25h-.2Zm0-.25h.2v.25h-.2Zm0-.2h.2V14h-.2Zm0-.25h.2v.25h-.2Zm0-.25h.2v.25h-.2Zm0-.25h.2v.25h-.2Zm0-.25h.2v.25h-.2Zm0-.25h.2v.25h-.2Zm0-1h.2v.25h-.2Zm0-.25h.2v.25h-.2Zm0-.25h.2v.25h-.2Zm0-.25h.2v.25h-.2Zm0-.25h.2v.25h-.2Zm0-.25h.2v.25h-.2Zm0-1.9h.2v.25h-.2Zm0-2.5h.2v.25h-.2Zm0-3.2h.2V3h-.2ZM11,14.75h.25V15H11Zm0-.25h.25v.25H11Zm0-.25h.25v.25H11ZM11,14h.25v.25H11Zm0-.2h.25V14H11Zm0-.25h.25v.25H11Zm0-.25h.25v.25H11Zm0-.25h.25v.25H11Zm0-.25h.25v.25H11Zm0-1.25h.25v.25H11Zm0-.25h.25v.25H11Zm0-.25h.25v.25H11Zm0-.25h.25v.25H11Zm0-.25h.25v.25H11Zm0-.25h.25v.25H11Zm0-1.7h.25v.25H11Zm0-2.7h.25v.25H11Zm0-3.45h.25V2.7H11ZM10.7,15H11v.25H10.7Zm0-.25H11V15H10.7Zm0-.25H11v.25H10.7Zm0-.25H11v.25H10.7Zm0-.25H11v.25H10.7Zm0-.2H11V14H10.7Zm0-.25H11v.25H10.7Zm0-.25H11v.25H10.7Zm0-1H11v.25H10.7Zm0-.25H11v.25H10.7Zm0-.25H11v.25H10.7Zm0-.25H11v.25H10.7Zm0-.25H11v.25H10.7Zm0-.25H11v.25H10.7Zm0-.25H11v.25H10.7Zm0-.25H11v.25H10.7Zm0-.25H11v.25H10.7Zm0-1.7H11v.25H10.7Zm0-2.7H11v.25H10.7Zm0-3.7H11v.25H10.7Zm-.25,13.05h.25v.25h-.25Zm0-.25h.25v.25h-.25Zm0-.25h.25V15h-.25Zm0-.25h.25v.25h-.25Zm0-.25h.25v.25h-.25Zm0-.25h.25v.25h-.25Zm0-1.2h.25v.25h-.25Zm0-.25h.25v.25h-.25Zm0-.25h.25v.25h-.25Zm0-.25h.25v.25h-.25Zm0-.25h.25v.25h-.25Zm0-.25h.25v.25h-.25Zm0-.25h.25v.25h-.25Zm0-.25h.25v.25h-.25Zm0-.25h.25v.25h-.25Zm0-.25h.25v.25h-.25Zm0-.25h.25v.25h-.25Zm0-1.7h.25v.25h-.25Zm0-2.7h.25v.25h-.25Zm0-3.7h.25v.25h-.25Zm0-.25h.25V2.2h-.25Zm-.25,13.3h.25v.25H10.2Zm0-.25h.25v.25H10.2Zm0-.25h.25V15H10.2Zm0-.25h.25v.25H10.2Zm0-.25h.25v.25H10.2Zm0-1.2h.25v.25H10.2Zm0-.25h.25v.25H10.2Zm0-.25h.25v.25H10.2Zm0-.25h.25v.25H10.2Zm0-.75h.25v.25H10.2Zm0-.25h.25v.25H10.2Zm0-.25h.25v.25H10.2Zm0-.25h.25v.25H10.2Zm0-.25h.25v.25H10.2Zm0-.25h.25v.25H10.2Zm0-1.7h.25v.25H10.2Zm0-2.5h.25v.25H10.2Zm0-.2h.25v.25H10.2ZM10.2,2h.25V2.2H10.2Zm0-.2h.25V2H10.2ZM10,15.5h.25v.25H10Zm0-.25h.25v.25H10ZM10,15h.25v.25H10Zm0-.25h.25V15H10Zm0-.25h.25v.25H10Zm0-.25h.25v.25H10Zm0-1.2h.25v.25H10Zm0-.25h.25v.25H10Zm0-.25h.25v.25H10Zm0-.25h.25v.25H10Zm0-.75h.25v.25H10Zm0-.25h.25v.25H10Zm0-.25h.25v.25H10Zm0-.25h.25v.25H10Zm0-.25h.25v.25H10Zm0-.25h.25v.25H10Zm0-.25h.25v.25H10ZM10,8.6h.25v.25H10Zm0-2.5h.25v.25H10Zm0-.2h.25v.25H10ZM10,2h.25V2.2H10Zm0-.2h.25V2H10Zm0-.25h.25v.25H10Zm-.25,14H10v.25H9.7Zm0-.25H10v.25H9.7Zm0-.25H10v.25H9.7Zm0-.25H10V15H9.7Zm0-.25H10v.25H9.7Zm0-.25H10v.25H9.7Zm0-1.2H10v.25H9.7Zm0-.25H10v.25H9.7Zm0-.25H10v.25H9.7Zm0-1H10v.25H9.7Zm0-.25H10v.25H9.7Zm0-.25H10v.25H9.7Zm0-.25H10v.25H9.7Zm0-.25H10v.25H9.7Zm0-.25H10v.25H9.7Zm0-.25H10v.25H9.7Zm0-.25H10v.25H9.7Zm0-1.4H10v.25H9.7Zm0-2.3H10v.25H9.7ZM9.7,2H10V2.2H9.7Zm0-.2H10V2H9.7Zm0-.25H10v.25H9.7Zm0-.25H10V1.5H9.7ZM9.7,1H10v.25H9.7ZM9.45,15.5H9.7v.25H9.45Zm0-.25H9.7v.25H9.45Zm0-.25H9.7v.25H9.45Zm0-.25H9.7V15H9.45Zm0-.25H9.7v.25H9.45Zm0-.25H9.7v.25H9.45Zm0-.25H9.7v.25H9.45Zm0-.2H9.7V14H9.45Zm0-.5H9.7v.25H9.45Zm0-.25H9.7v.25H9.45Zm0-.25H9.7v.25H9.45Zm0-1.25H9.7v.25H9.45Zm0-.25H9.7v.25H9.45Zm0-.25H9.7v.25H9.45Zm0-.25H9.7v.25H9.45Zm0-.25H9.7v.25H9.45Zm0-.25H9.7v.25H9.45Zm0-.25H9.7v.25H9.45Zm0-.25H9.7v.25H9.45Zm0-1.4H9.7v.25H9.45Zm0-2.3H9.7v.25H9.45Zm0-4.35H9.7V2H9.45Zm0-.25H9.7v.25H9.45Zm0-.25H9.7V1.5H9.45Zm0-.25H9.7v.25H9.45ZM9.2,15.75h.25V16H9.2Zm0-.25h.25v.25H9.2Zm0-.25h.25v.25H9.2Zm0-.25h.25v.25H9.2Zm0-.25h.25V15H9.2Zm0-.25h.25v.25H9.2Zm0-.25h.25v.25H9.2Zm0-.25h.25v.25H9.2Zm0-.2h.25V14H9.2Zm0-.5h.25v.25H9.2Zm0-.25h.25v.25H9.2Zm0-.25h.25v.25H9.2Zm0-1.25h.25v.25H9.2Zm0-.25h.25v.25H9.2Zm0-.25h.25v.25H9.2Zm0-.25h.25v.25H9.2Zm0-.25h.25v.25H9.2Zm0-.25h.25v.25H9.2Zm0-.25h.25v.25H9.2Zm0-.25h.25v.25H9.2Zm0-1.7h.25v.25H9.2Zm0-2h.25v.25H9.2Zm0-4.35h.25V2H9.2Zm0-.25h.25v.25H9.2Zm0-.25h.25V1.5H9.2ZM9.2,1h.25v.25H9.2ZM9,15.75H9.2V16H9Zm0-.25H9.2v.25H9Zm0-.25H9.2v.25H9ZM9,15H9.2v.25H9Zm0-.25H9.2V15H9Zm0-.25H9.2v.25H9Zm0-.25H9.2v.25H9ZM9,14H9.2v.25H9Zm0-.2H9.2V14H9Zm0-.5H9.2v.25H9Zm0-.25H9.2v.25H9Zm0-.25H9.2v.25H9Zm0-1.25H9.2v.25H9Zm0-.25H9.2v.25H9Zm0-.25H9.2v.25H9Zm0-.25H9.2v.25H9Zm0-.25H9.2v.25H9Zm0-.25H9.2v.25H9Zm0-.25H9.2v.25H9ZM9,9.8H9.2v.25H9ZM9,7.9H9.2v.25H9Zm0-.3H9.2v.25H9ZM9,6.4H9.2v.25H9Zm0-.3H9.2v.25H9ZM9,1.75H9.2V2H9ZM9,1.5H9.2v.25H9Zm0-.25H9.2V1.5H9ZM9,1H9.2v.25H9ZM9,.75H9.2V1H9Zm-.25,15H9V16H8.7Zm0-.25H9v.25H8.7Zm0-.25H9v.25H8.7Zm0-.25H9v.25H8.7Zm0-.25H9V15H8.7Zm0-.25H9v.25H8.7Zm0-.25H9v.25H8.7Zm0-.25H9v.25H8.7Zm0-.2H9V14H8.7Zm0-.5H9v.25H8.7Zm0-.25H9v.25H8.7Zm0-.25H9v.25H8.7Zm0-1.25H9v.25H8.7Zm0-.25H9v.25H8.7Zm0-.25H9v.25H8.7Zm0-.25H9v.25H8.7Zm0-.25H9v.25H8.7Zm0-.25H9v.25H8.7Zm0-.25H9v.25H8.7Zm0-2.65H9v.25H8.7Zm0-.3H9v.25H8.7Zm0-.2H9v.25H8.7Zm0-.3H9v.25H8.7Zm0-.2H9v.25H8.7Zm0-4.65H9V2H8.7Zm0-.25H9v.25H8.7Zm0-.25H9V1.5H8.7ZM8.7,1H9v.25H8.7Zm0-.25H9V1H8.7ZM8.7.5H9V.75H8.7ZM8.45,15.75H8.7V16H8.45Zm0-.25H8.7v.25H8.45Zm0-.25H8.7v.25H8.45Zm0-.25H8.7v.25H8.45Zm0-.25H8.7V15H8.45Zm0-.25H8.7v.25H8.45Zm0-.25H8.7v.25H8.45Zm0-.25H8.7v.25H8.45Zm0-.2H8.7V14H8.45Zm0-.5H8.7v.25H8.45Zm0-.25H8.7v.25H8.45Zm0-.25H8.7v.25H8.45Zm0-1.25H8.7v.25H8.45Zm0-.25H8.7v.25H8.45Zm0-.25H8.7v.25H8.45Zm0-.25H8.7v.25H8.45Zm0-.25H8.7v.25H8.45Zm0-.25H8.7v.25H8.45Zm0-.25H8.7v.25H8.45Zm0-3.15H8.7v.25H8.45Zm0-.3H8.7v.25H8.45Zm0-4.85H8.7V2H8.45Zm0-.25H8.7v.25H8.45Zm0-.25H8.7V1.5H8.45Zm0-.25H8.7v.25H8.45Zm0-.25H8.7V1H8.45Zm0-.25H8.7V.75H8.45ZM8.2,15.75h.25V16H8.2Zm0-.25h.25v.25H8.2Zm0-.25h.25v.25H8.2Zm0-.25h.25v.25H8.2Zm0-.25h.25V15H8.2Zm0-.25h.25v.25H8.2Zm0-.25h.25v.25H8.2Zm0-.25h.25v.25H8.2Zm0-.2h.25V14H8.2Zm0-.5h.25v.25H8.2Zm0-.25h.25v.25H8.2Zm0-.25h.25v.25H8.2Zm0-1.25h.25v.25H8.2Zm0-.25h.25v.25H8.2Zm0-.25h.25v.25H8.2Zm0-.25h.25v.25H8.2Zm0-.25h.25v.25H8.2Zm0-.25h.25v.25H8.2Zm0-.25h.25v.25H8.2Zm0-3.15h.25v.25H8.2Zm0-.3h.25v.25H8.2Zm0-4.85h.25V2H8.2Zm0-.25h.25v.25H8.2Zm0-.25h.25V1.5H8.2ZM8.2,1h.25v.25H8.2Zm0-.25h.25V1H8.2ZM8.2.5h.25V.75H8.2ZM8,15.75H8.2V16H8Zm0-.25H8.2v.25H8Zm0-.25H8.2v.25H8ZM8,15H8.2v.25H8Zm0-.25H8.2V15H8Zm0-.25H8.2v.25H8Zm0-.25H8.2v.25H8ZM8,14H8.2v.25H8Zm0-.2H8.2V14H8Zm0-.75H8.2v.25H8Zm0-.25H8.2v.25H8Zm0-1.25H8.2v.25H8Zm0-.25H8.2v.25H8Zm0-.25H8.2v.25H8Zm0-.25H8.2v.25H8Zm0-.25H8.2v.25H8Zm0-.25H8.2v.25H8Zm0-.25H8.2v.25H8ZM8,9.8H8.2v.25H8ZM8,6.9H8.2v.25H8Zm0-.3H8.2v.25H8ZM8,1.75H8.2V2H8ZM8,1.5H8.2v.25H8Zm0-.25H8.2V1.5H8ZM8,1H8.2v.25H8ZM8,.75H8.2V1H8ZM8,.5H8.2V.75H8ZM7.7,15.75H8V16H7.7Zm0-.25H8v.25H7.7Zm0-.25H8v.25H7.7Zm0-.25H8v.25H7.7Zm0-.25H8V15H7.7Zm0-1.7H8v.25H7.7Zm0-.25H8v.25H7.7Zm0-.25H8v.25H7.7Zm0-1H8v.25H7.7Zm0-.25H8v.25H7.7Zm0-.25H8v.25H7.7Zm0-.25H8v.25H7.7Zm0-.25H8v.25H7.7Zm0-.25H8v.25H7.7Zm0-.25H8v.25H7.7Zm0-.25H8v.25H7.7Zm0-2.2H8v.25H7.7Zm0-.2H8v.25H7.7Zm0-.3H8v.25H7.7Zm0-.2H8v.25H7.7Zm0-.3H8v.25H7.7ZM7.7,2H8V2.2H7.7Zm0-.2H8V2H7.7Zm0-.25H8v.25H7.7Zm0-.25H8V1.5H7.7ZM7.7,1H8v.25H7.7Zm0-.25H8V1H7.7ZM7.7.5H8V.75H7.7Zm0-.25H8V.5H7.7ZM7.45,15.5H7.7v.25H7.45Zm0-.25H7.7v.25H7.45Zm0-.25H7.7v.25H7.45Zm0-.25H7.7V15H7.45Zm0-1.7H7.7v.25H7.45Zm0-.25H7.7v.25H7.45Zm0-.25H7.7v.25H7.45Zm0-.25H7.7v.25H7.45Zm0-.75H7.7v.25H7.45Zm0-.25H7.7v.25H7.45Zm0-.25H7.7v.25H7.45Zm0-.25H7.7v.25H7.45Zm0-.25H7.7v.25H7.45Zm0-.25H7.7v.25H7.45Zm0-.25H7.7v.25H7.45Zm0-.25H7.7v.25H7.45Zm0-1.4H7.7v.25H7.45Zm0-.3H7.7v.25H7.45Zm0-.2H7.7v.25H7.45Zm0-1.3H7.7v.25H7.45ZM7.45,2H7.7V2.2H7.45Zm0-.2H7.7V2H7.45Zm0-.25H7.7v.25H7.45Zm0-.25H7.7V1.5H7.45Zm0-.25H7.7v.25H7.45Zm0-.25H7.7V1H7.45Zm0-.25H7.7V.75H7.45Zm0-.25H7.7V.5H7.45ZM7.2,15.5h.25v.25H7.2Zm0-.25h.25v.25H7.2Zm0-.25h.25v.25H7.2Zm0-.25h.25V15H7.2Zm0-.25h.25v.25H7.2Zm0-1.7h.25v.25H7.2Zm0-.25h.25v.25H7.2Zm0-.25h.25v.25H7.2Zm0-.75h.25v.25H7.2Zm0-.25h.25v.25H7.2Zm0-.25h.25v.25H7.2Zm0-.25h.25v.25H7.2Zm0-.25h.25v.25H7.2Zm0-2h.25v.25H7.2Zm0-2.2h.25v.25H7.2Zm-.15,8.85h.2v.25h-.2Zm0-.25h.2v.25h-.2Zm0-.25h.2V15h-.2Zm0-.25h.2v.25h-.2Zm0-1.95h.2v.25h-.2Zm0-.25h.2v.25h-.2Zm0-.25h.2v.25h-.2Zm0-.25h.2v.25h-.2Zm0-.25h.2v.25h-.2Zm0-.25h.2v.25h-.2Zm0-.25h.2v.25h-.2Zm0-.25h.2v.25h-.2Zm0-.25h.2v.25h-.2Zm0-1.65h.2v.25h-.2Zm0-2.5h.2v.25h-.2ZM6.8,15.25h.25v.25H6.8Zm0-.25h.25v.25H6.8Zm0-.25h.25V15H6.8Zm0-.25h.25v.25H6.8Zm0-.25h.25v.25H6.8Zm0-1.95h.25v.25H6.8Zm0-.25h.25v.25H6.8Zm0-.25h.25v.25H6.8Zm0-.25h.25v.25H6.8Zm0-.25h.25v.25H6.8Zm0-.25h.25v.25H6.8Zm0-.25h.25v.25H6.8Zm0-1.9h.25v.25H6.8Zm0-2.5h.25v.25H6.8ZM6.8,2h.65V2.2H6.8Zm0-.2h.65V2H6.8Zm0-.25h.65v.25H6.8Zm0-.25h.65V1.5H6.8ZM6.8,1h.65v.25H6.8Zm0-.25h.65V1H6.8ZM6.8.5h.65V.75H6.8Zm0-.25h.65V.5H6.8ZM6.8,0h.65V.25H6.8ZM6.55,15.25H6.8v.25H6.55Zm0-.25H6.8v.25H6.55Zm0-.25H6.8V15H6.55Zm0-.25H6.8v.25H6.55Zm0-.25H6.8v.25H6.55Zm0-.25H6.8v.25H6.55Zm0-.2H6.8V14H6.55Zm0-2.25H6.8v.25H6.55Zm0-.25H6.8v.25H6.55Zm0-.25H6.8v.25H6.55Zm0-.25H6.8v.25H6.55Zm0-1.9H6.8v.25H6.55Zm0-2.5H6.8v.25H6.55Zm0-4.9H6.8v.25H6.55Zm0-.25H6.8V1.5H6.55Zm0-.25H6.8v.25H6.55Zm0-.25H6.8V1H6.55Zm0-.25H6.8V.75H6.55Zm0-.25H6.8V.5H6.55ZM6.3,15h.25v.25H6.3Zm0-.25h.25V15H6.3Zm0-.25h.25v.25H6.3Zm0-.25h.25v.25H6.3Zm0-.25h.25v.25H6.3Zm0-.2h.25V14H6.3Zm0-.25h.25v.25H6.3Zm0-.25h.25v.25H6.3Zm0-1.75h.25v.25H6.3Zm0-.25h.25v.25H6.3Zm0-.25h.25v.25H6.3Zm0-.25h.25v.25H6.3Zm0-1.7h.25v.25H6.3Zm0-2.7h.25v.25H6.3Zm0-4.65h.25V2H6.3Zm0-.25h.25v.25H6.3Zm0-.25h.25V1.5H6.3ZM6.3,1h.25v.25H6.3Zm0-.25h.25V1H6.3ZM6.3.5h.25V.75H6.3Zm0-.25h.25V.5H6.3ZM6.05,15H6.3v.25H6.05Zm0-.25H6.3V15H6.05Zm0-.25H6.3v.25H6.05Zm0-.25H6.3v.25H6.05Zm0-.25H6.3v.25H6.05Zm0-.2H6.3V14H6.05Zm0-.25H6.3v.25H6.05Zm0-.25H6.3v.25H6.05Zm0-.25H6.3v.25H6.05Zm0-1.5H6.3v.25H6.05Zm0-.25H6.3v.25H6.05Zm0-.25H6.3v.25H6.05Zm0-.25H6.3v.25H6.05Zm0-1.7H6.3v.25H6.05Zm0-2.7H6.3v.25H6.05ZM6.05,2H6.3V2.2H6.05Zm0-.2H6.3V2H6.05Zm0-.25H6.3v.25H6.05Zm0-.25H6.3V1.5H6.05Zm0-.25H6.3v.25H6.05Zm0-.25H6.3V1H6.05Zm0-.25H6.3V.75H6.05ZM5.8,14.75h.25V15H5.8Zm0-.25h.25v.25H5.8Zm0-.25h.25v.25H5.8Zm0-.25h.25v.25H5.8Zm0-.2h.25V14H5.8Zm0-.25h.25v.25H5.8Zm0-.25h.25v.25H5.8Zm0-.25h.25v.25H5.8Zm0-.25h.25v.25H5.8Zm0-.25h.25v.25H5.8Zm0-.25h.25v.25H5.8Zm0-.25h.25v.25H5.8Zm0-.25h.25v.25H5.8Zm0-.25h.25v.25H5.8Zm0-.25h.25v.25H5.8Zm0-.25h.25v.25H5.8Zm0-2h.25v.25H5.8Zm0-2.7h.25v.25H5.8ZM5.8,2h.25V2.2H5.8Zm0-.2h.25V2H5.8Zm0-.25h.25v.25H5.8Zm0-.25h.25V1.5H5.8ZM5.8,1h.25v.25H5.8Zm0-.25h.25V1H5.8ZM5.8.5h.25V.75H5.8ZM5.55,14.75H5.8V15H5.55Zm0-.25H5.8v.25H5.55Zm0-.25H5.8v.25H5.55Zm0-.25H5.8v.25H5.55Zm0-.2H5.8V14H5.55Zm0-.25H5.8v.25H5.55Zm0-.25H5.8v.25H5.55Zm0-.25H5.8v.25H5.55Zm0-.25H5.8v.25H5.55Zm0-.25H5.8v.25H5.55Zm0-.25H5.8v.25H5.55Zm0-.25H5.8v.25H5.55Zm0-.25H5.8v.25H5.55Zm0-.25H5.8v.25H5.55Zm0-.25H5.8v.25H5.55Zm0-.25H5.8v.25H5.55Zm0-2H5.8v.25H5.55Zm0-2.7H5.8v.25H5.55ZM5.55,2H5.8V2.2H5.55Zm0-.2H5.8V2H5.55Zm0-.25H5.8v.25H5.55Zm0-.25H5.8V1.5H5.55Zm0-.25H5.8v.25H5.55Zm0-.25H5.8V1H5.55Zm0-.25H5.8V.75H5.55Zm-.25,14h.25v.25H5.3Zm0-.25h.25v.25H5.3Zm0-.25h.25v.25H5.3Zm0-.2h.25V14H5.3Zm0-.25h.25v.25H5.3Zm0-.25h.25v.25H5.3Zm0-.25h.25v.25H5.3Zm0-.25h.25v.25H5.3Zm0-.25h.25v.25H5.3Zm0-3.45h.25v.25H5.3Zm0-2.7h.25v.25H5.3Zm0-4.2h.25v.25H5.3ZM5.3,2h.25V2.2H5.3Zm0-.2h.25V2H5.3Zm0-.25h.25v.25H5.3Zm0-.25h.25V1.5H5.3ZM5.3,1h.25v.25H5.3Zm0-.25h.25V1H5.3Zm-.25,13.5H5.3v.25H5.05Zm0-.25H5.3v.25H5.05Zm0-.2H5.3V14H5.05Zm0-.25H5.3v.25H5.05Zm0-.25H5.3v.25H5.05Zm0-.25H5.3v.25H5.05Zm0-.25H5.3v.25H5.05Zm0-.25H5.3v.25H5.05Zm0-.25H5.3v.25H5.05Zm0-3.2H5.3v.25H5.05Zm0-2.5H5.3v.25H5.05Zm0-4.4H5.3v.25H5.05Zm0-.25H5.3V2.2H5.05Zm0-.2H5.3V2H5.05Zm0-.25H5.3v.25H5.05Zm0-.25H5.3V1.5H5.05ZM4.8,14h.25v.25H4.8Zm0-.2h.25V14H4.8Zm0-.25h.25v.25H4.8Zm0-.25h.25v.25H4.8Zm0-.25h.25v.25H4.8Zm0-.25h.25v.25H4.8Zm0-.25h.25v.25H4.8Zm0-.25h.25v.25H4.8Zm0-.25h.25v.25H4.8Zm0-3.15h.25v.25H4.8Zm0-2.3h.25v.25H4.8Zm0-4.4h.25v.25H4.8ZM4.8,2h.25V2.2H4.8Zm0-.2h.25V2H4.8Zm0-.25h.25v.25H4.8Zm0-.25h.25V1.5H4.8ZM4.55,13.8H4.8V14H4.55Zm0-.25H4.8v.25H4.55Zm0-.25H4.8v.25H4.55Zm0-.25H4.8v.25H4.55Zm0-.25H4.8v.25H4.55Zm0-.25H4.8v.25H4.55Zm0-.25H4.8v.25H4.55Zm0-.25H4.8v.25H4.55Zm0-3.15H4.8v.25H4.55Zm0-.3H4.8v.25H4.55Zm0-2H4.8v.25H4.55Zm0-4.4H4.8v.25H4.55Zm0-.25H4.8V2.2H4.55Zm0-.2H4.8V2H4.55Zm0-.25H4.8v.25H4.55ZM4.3,13.3h.25v.25H4.3Zm0-.25h.25v.25H4.3Zm0-.25h.25v.25H4.3Zm0-.25h.25v.25H4.3Zm0-.25h.25v.25H4.3Zm0-.25h.25v.25H4.3Zm0-3.65h.25v.25H4.3Zm0-.3h.25v.25H4.3Zm0-1.5h.25v.25H4.3Zm0-4.15h.25V2.7H4.3Zm0-.25h.25v.25H4.3ZM4.3,2h.25V2.2H4.3ZM4.05,12.8H4.3v.25H4.05Zm0-.25H4.3v.25H4.05Zm0-.25H4.3v.25H4.05Zm0-.25H4.3v.25H4.05Zm0-4.15H4.3v.25H4.05Zm0-.3H4.3v.25H4.05Zm0-.2H4.3v.25H4.05Zm0-.3H4.3v.25H4.05Zm0-.2H4.3v.25H4.05Zm0-4.2H4.3V3H4.05Zm0-.25H4.3V2.7H4.05Zm0-.25H4.3v.25H4.05ZM3.8,11.8h.25v.25H3.8Zm0-.25h.25v.25H3.8Zm0-.25h.25v.25H3.8Zm0-.25h.25v.25H3.8Zm0-.25h.25v.25H3.8Zm0-3.4h.25v.25H3.8Zm0-.3h.25v.25H3.8Zm0-.2h.25v.25H3.8ZM3.8,3h.25V3.2H3.8Zm0-.25h.25V3H3.8Zm0-.25h.25V2.7H3.8Zm-.25.75H3.8v.25H3.55Zm0-.25H3.8V3.2H3.55ZM3.3,4h.25V4.2H3.3Zm0-.25h.25V4H3.3Zm0-.25h.25V3.7H3.3Zm0-.25h.25v.25H3.3ZM3.1,4.45h.2V4.7H3.1Zm0-.25h.2v.25H3.1ZM3.1,4h.2V4.2H3.1Zm0-.25h.2V4H3.1ZM2.85,5.45H3.1V5.7H2.85Zm0-.25H3.1v.25H2.85Zm0-.25H3.1V5.2H2.85Zm0-.25H3.1V5H2.85Zm0-.25H3.1V4.7H2.85Zm0-.25H3.1v.25H2.85ZM16,0H0V16H16Z"/></g></g></svg>