<svg viewBox="0 0 32 32" xmlns="http://www.w3.org/2000/svg"><path d="m0 0h32v32h-32z" fill="none"/><g fill="#171717"><path d="m25.81 23.13h.5v.5h-.5z"/><path d="m25.81 22.63h.5v.5h-.5z"/><path d="m25.81 22.13h.5v.5h-.5z"/><path d="m25.81 21.63h.5v.5h-.5z"/><path d="m25.81 21.13h.5v.5h-.5z"/><path d="m25.81 20.63h.5v.5h-.5z"/><path d="m25.31 25.63h.5v.5h-.5z"/><path d="m25.31 25.13h.5v.5h-.5z"/><path d="m25.31 24.63h.5v.5h-.5z"/><path d="m25.31 24.13h.5v.5h-.5z"/><path d="m25.31 23.63h.5v.5h-.5z"/><path d="m25.31 23.13h.5v.5h-.5z"/><path d="m25.31 22.63h.5v.5h-.5z"/><path d="m24.81 26.63h.5v.5h-.5z"/><path d="m24.81 26.13h.5v.5h-.5z"/><path d="m24.81 25.63h.5v.5h-.5z"/><path d="m24.81 25.13h.5v.5h-.5z"/><path d="m24.81 24.63h.5v.5h-.5z"/><path d="m24.81 24.13h.5v.5h-.5z"/><path d="m24.81 23.63h.5v.5h-.5z"/><path d="m24.81 23.13h.5v.5h-.5z"/><path d="m24.81 13.75h.5v.5h-.5z"/><path d="m24.81 13.25h.5v.5h-.5z"/><path d="m24.81 12.75h.5v.5h-.5z"/><path d="m24.81 9.88h.5v.5h-.5z"/><path d="m24.81 9.38h.5v.5h-.5z"/><path d="m24.31 27.63h.5v.38h-.5z"/><path d="m24.31 27.13h.5v.5h-.5z"/><path d="m24.31 26.63h.5v.5h-.5z"/><path d="m24.31 26.13h.5v.5h-.5z"/><path d="m24.31 25.63h.5v.5h-.5z"/><path d="m24.31 25.13h.5v.5h-.5z"/><path d="m24.31 24.63h.5v.5h-.5z"/><path d="m24.31 24.13h.5v.5h-.5z"/><path d="m24.31 23.63h.5v.5h-.5z"/><path d="m24.31 23.13h.5v.5h-.5z"/><path d="m24.31 15.75h.5v.5h-.5z"/><path d="m24.31 15.25h.5v.5h-.5z"/><path d="m24.31 14.75h.5v.5h-.5z"/><path d="m24.31 14.25h.5v.5h-.5z"/><path d="m24.31 13.75h.5v.5h-.5z"/><path d="m24.31 13.25h.5v.5h-.5z"/><path d="m24.31 12.75h.5v.5h-.5z"/><path d="m24.31 12.25h.5v.5h-.5z"/><path d="m24.31 11.75h.5v.5h-.5z"/><path d="m24.31 8.88h.5v.5h-.5z"/><path d="m24.31 8.38h.5v.5h-.5z"/><path d="m24.31 7.88h.5v.5h-.5z"/><path d="m23.81 27.63h.5v.38h-.5z"/><path d="m23.81 27.13h.5v.5h-.5z"/><path d="m23.81 26.63h.5v.5h-.5z"/><path d="m23.81 26.13h.5v.5h-.5z"/><path d="m23.81 25.63h.5v.5h-.5z"/><path d="m23.81 25.13h.5v.5h-.5z"/><path d="m23.81 24.63h.5v.5h-.5z"/><path d="m23.81 24.13h.5v.5h-.5z"/><path d="m23.81 23.63h.5v.5h-.5z"/><path d="m23.81 23.13h.5v.5h-.5z"/><path d="m23.81 22.63h.5v.5h-.5z"/><path d="m23.81 22.13h.5v.5h-.5z"/><path d="m23.81 21.63h.5v.5h-.5z"/><path d="m23.81 16.25h.5v.5h-.5z"/><path d="m23.81 11.75h.5v.5h-.5z"/><path d="m23.81 7.38h.5v.5h-.5z"/><path d="m23.81 6.88h.5v.5h-.5z"/><path d="m23.31 28h.5v.5h-.5z"/><path d="m23.31 27.63h.5v.38h-.5z"/><path d="m23.31 27.13h.5v.5h-.5z"/><path d="m23.31 26.63h.5v.5h-.5z"/><path d="m23.31 26.13h.5v.5h-.5z"/><path d="m23.31 25.63h.5v.5h-.5z"/><path d="m23.31 25.13h.5v.5h-.5z"/><path d="m23.31 24.63h.5v.5h-.5z"/><path d="m23.31 24.13h.5v.5h-.5z"/><path d="m23.31 23.63h.5v.5h-.5z"/><path d="m23.31 23.13h.5v.5h-.5z"/><path d="m23.31 22.63h.5v.5h-.5z"/><path d="m23.31 22.13h.5v.5h-.5z"/><path d="m23.31 21.63h.5v.5h-.5z"/><path d="m23.31 21.13h.5v.5h-.5z"/><path d="m23.31 16.75h.5v.5h-.5z"/><path d="m23.31 11.75h.5v.5h-.5z"/><path d="m23.31 6.38h.5v.5h-.5z"/><path d="m22.81 28.5h.5v.5h-.5z"/><path d="m22.81 28h.5v.5h-.5z"/><path d="m22.81 27.63h.5v.38h-.5z"/><path d="m22.81 27.13h.5v.5h-.5z"/><path d="m22.81 26.63h.5v.5h-.5z"/><path d="m22.81 26.13h.5v.5h-.5z"/><path d="m22.81 25.63h.5v.5h-.5z"/><path d="m22.81 25.13h.5v.5h-.5z"/><path d="m22.81 24.63h.5v.5h-.5z"/><path d="m22.81 24.13h.5v.5h-.5z"/><path d="m22.81 23.63h.5v.5h-.5z"/><path d="m22.81 23.13h.5v.5h-.5z"/><path d="m22.81 22.63h.5v.5h-.5z"/><path d="m22.81 22.13h.5v.5h-.5z"/><path d="m22.81 21.63h.5v.5h-.5z"/><path d="m22.81 21.13h.5v.5h-.5z"/><path d="m22.81 16.75h.5v.5h-.5z"/><path d="m22.81 11.75h.5v.5h-.5z"/><path d="m22.81 5.88h.5v.5h-.5z"/><path d="m22.81 5.38h.5v.5h-.5z"/><path d="m22.44 29h.38v.5h-.38z"/><path d="m22.44 28.5h.38v.5h-.38z"/><path d="m22.44 28h.38v.5h-.38z"/><path d="m22.44 27.63h.38v.38h-.38z"/><path d="m22.44 27.13h.38v.5h-.38z"/><path d="m22.44 26.63h.38v.5h-.38z"/><path d="m22.44 26.13h.38v.5h-.38z"/><path d="m22.44 25.63h.38v.5h-.38z"/><path d="m22.44 25.13h.38v.5h-.38z"/><path d="m22.44 23.13h.38v.5h-.38z"/><path d="m22.44 22.63h.38v.5h-.38z"/><path d="m22.44 22.13h.38v.5h-.38z"/><path d="m22.44 21.63h.38v.5h-.38z"/><path d="m22.44 21.13h.38v.5h-.38z"/><path d="m22.44 20.63h.38v.5h-.38z"/><path d="m22.44 16.75h.38v.5h-.38z"/><path d="m22.44 11.75h.38v.5h-.38z"/><path d="m22.44 5.38h.38v.5h-.38z"/><path d="m21.94 29.5h.5v.5h-.5z"/><path d="m21.94 29h.5v.5h-.5z"/><path d="m21.94 28.5h.5v.5h-.5z"/><path d="m21.94 28h.5v.5h-.5z"/><path d="m21.94 27.63h.5v.38h-.5z"/><path d="m21.94 27.13h.5v.5h-.5z"/><path d="m21.94 26.63h.5v.5h-.5z"/><path d="m21.94 26.13h.5v.5h-.5z"/><path d="m21.94 25.63h.5v.5h-.5z"/><path d="m21.94 23.13h.5v.5h-.5z"/><path d="m21.94 22.63h.5v.5h-.5z"/><path d="m21.94 22.13h.5v.5h-.5z"/><path d="m21.94 21.63h.5v.5h-.5z"/><path d="m21.94 21.13h.5v.5h-.5z"/><path d="m21.94 20.63h.5v.5h-.5z"/><path d="m21.94 17.25h.5v.5h-.5z"/><path d="m21.94 11.75h.5v.5h-.5z"/><path d="m21.94 4.88h.5v.5h-.5z"/><path d="m21.44 30h.5v.5h-.5z"/><path d="m21.44 29.5h.5v.5h-.5z"/><path d="m21.44 29h.5v.5h-.5z"/><path d="m21.44 28.5h.5v.5h-.5z"/><path d="m21.44 28h.5v.5h-.5z"/><path d="m21.44 27.63h.5v.38h-.5z"/><path d="m21.44 27.13h.5v.5h-.5z"/><path d="m21.44 26.63h.5v.5h-.5z"/><path d="m21.44 24.63h.5v.5h-.5z"/><path d="m21.44 24.13h.5v.5h-.5z"/><path d="m21.44 23.63h.5v.5h-.5z"/><path d="m21.44 23.13h.5v.5h-.5z"/><path d="m21.44 22.63h.5v.5h-.5z"/><path d="m21.44 22.13h.5v.5h-.5z"/><path d="m21.44 21.63h.5v.5h-.5z"/><path d="m21.44 21.13h.5v.5h-.5z"/><path d="m21.44 20.63h.5v.5h-.5z"/><path d="m21.44 17.25h.5v.5h-.5z"/><path d="m21.44 11.75h.5v.5h-.5z"/><path d="m21.44 4.38h.5v.5h-.5z"/><path d="m20.94 30.5h.5v.5h-.5z"/><path d="m20.94 30h.5v.5h-.5z"/><path d="m20.94 29.5h.5v.5h-.5z"/><path d="m20.94 29h.5v.5h-.5z"/><path d="m20.94 28.5h.5v.5h-.5z"/><path d="m20.94 28h.5v.5h-.5z"/><path d="m20.94 25.63h.5v.5h-.5z"/><path d="m20.94 25.13h.5v.5h-.5z"/><path d="m20.94 24.63h.5v.5h-.5z"/><path d="m20.94 24.13h.5v.5h-.5z"/><path d="m20.94 23.63h.5v.5h-.5z"/><path d="m20.94 23.13h.5v.5h-.5z"/><path d="m20.94 22.63h.5v.5h-.5z"/><path d="m20.94 22.13h.5v.5h-.5z"/><path d="m20.94 21.63h.5v.5h-.5z"/><path d="m20.94 21.13h.5v.5h-.5z"/><path d="m20.94 20.63h.5v.5h-.5z"/><path d="m20.94 17.25h.5v.5h-.5z"/><path d="m20.94 11.75h.5v.5h-.5z"/><path d="m20.94 4.38h.5v.5h-.5z"/><path d="m20.94 3.88h.5v.5h-.5z"/><path d="m20.44 30.5h.5v.5h-.5z"/><path d="m20.44 30h.5v.5h-.5z"/><path d="m20.44 29.5h.5v.5h-.5z"/><path d="m20.44 29h.5v.5h-.5z"/><path d="m20.44 28.5h.5v.5h-.5z"/><path d="m20.44 26.13h.5v.5h-.5z"/><path d="m20.44 25.63h.5v.5h-.5z"/><path d="m20.44 25.13h.5v.5h-.5z"/><path d="m20.44 24.63h.5v.5h-.5z"/><path d="m20.44 23.13h.5v.5h-.5z"/><path d="m20.44 22.63h.5v.5h-.5z"/><path d="m20.44 22.13h.5v.5h-.5z"/><path d="m20.44 21.63h.5v.5h-.5z"/><path d="m20.44 21.13h.5v.5h-.5z"/><path d="m20.44 20.63h.5v.5h-.5z"/><path d="m20.44 17.25h.5v.5h-.5z"/><path d="m20.44 12.25h.5v.5h-.5z"/><path d="m20.44 11.75h.5v.5h-.5z"/><path d="m20.44 3.88h.5v.5h-.5z"/><path d="m20.44 3.5h.5v.38h-.5z"/><path d="m19.94 31h.5v.5h-.5z"/><path d="m19.94 30.5h.5v.5h-.5z"/><path d="m19.94 30h.5v.5h-.5z"/><path d="m19.94 29.5h.5v.5h-.5z"/><path d="m19.94 29h.5v.5h-.5z"/><path d="m19.94 28.5h.5v.5h-.5z"/><path d="m19.94 26.13h.5v.5h-.5z"/><path d="m19.94 25.63h.5v.5h-.5z"/><path d="m19.94 25.13h.5v.5h-.5z"/><path d="m19.94 24.63h.5v.5h-.5z"/><path d="m19.94 23.13h.5v.5h-.5z"/><path d="m19.94 22.63h.5v.5h-.5z"/><path d="m19.94 22.13h.5v.5h-.5z"/><path d="m19.94 21.63h.5v.5h-.5z"/><path d="m19.94 21.13h.5v.5h-.5z"/><path d="m19.94 20.63h.5v.5h-.5z"/><path d="m19.94 20.13h.5v.5h-.5z"/><path d="m19.94 17.25h.5v.5h-.5z"/><path d="m19.94 12.25h.5v.5h-.5z"/><path d="m19.94 11.75h.5v.5h-.5z"/><path d="m19.94 3.88h.5v.5h-.5z"/><path d="m19.94 3.5h.5v.38h-.5z"/><path d="m19.94 3h.5v.5h-.5z"/><path d="m19.44 31h.5v.5h-.5z"/><path d="m19.44 30.5h.5v.5h-.5z"/><path d="m19.44 30h.5v.5h-.5z"/><path d="m19.44 29.5h.5v.5h-.5z"/><path d="m19.44 29h.5v.5h-.5z"/><path d="m19.44 28.5h.5v.5h-.5z"/><path d="m19.44 26.13h.5v.5h-.5z"/><path d="m19.44 25.63h.5v.5h-.5z"/><path d="m19.44 25.13h.5v.5h-.5z"/><path d="m19.44 23.13h.5v.5h-.5z"/><path d="m19.44 22.63h.5v.5h-.5z"/><path d="m19.44 22.13h.5v.5h-.5z"/><path d="m19.44 21.63h.5v.5h-.5z"/><path d="m19.44 21.13h.5v.5h-.5z"/><path d="m19.44 20.63h.5v.5h-.5z"/><path d="m19.44 20.13h.5v.5h-.5z"/><path d="m19.44 19.63h.5v.5h-.5z"/><path d="m19.44 16.75h.5v.5h-.5z"/><path d="m19.44 12.25h.5v.5h-.5z"/><path d="m19.44 3.88h.5v.5h-.5z"/><path d="m19.44 3.5h.5v.38h-.5z"/><path d="m19.44 3h.5v.5h-.5z"/><path d="m19.44 2.5h.5v.5h-.5z"/><path d="m19.44 2h.5v.5h-.5z"/><path d="m18.94 31h.5v.5h-.5z"/><path d="m18.94 30.5h.5v.5h-.5z"/><path d="m18.94 30h.5v.5h-.5z"/><path d="m18.94 29.5h.5v.5h-.5z"/><path d="m18.94 29h.5v.5h-.5z"/><path d="m18.94 28.5h.5v.5h-.5z"/><path d="m18.94 28h.5v.5h-.5z"/><path d="m18.94 27.63h.5v.38h-.5z"/><path d="m18.94 26.63h.5v.5h-.5z"/><path d="m18.94 26.13h.5v.5h-.5z"/><path d="m18.94 25.63h.5v.5h-.5z"/><path d="m18.94 23.13h.5v.5h-.5z"/><path d="m18.94 22.63h.5v.5h-.5z"/><path d="m18.94 22.13h.5v.5h-.5z"/><path d="m18.94 21.63h.5v.5h-.5z"/><path d="m18.94 21.13h.5v.5h-.5z"/><path d="m18.94 20.63h.5v.5h-.5z"/><path d="m18.94 20.13h.5v.5h-.5z"/><path d="m18.94 19.63h.5v.5h-.5z"/><path d="m18.94 16.75h.5v.5h-.5z"/><path d="m18.94 12.25h.5v.5h-.5z"/><path d="m18.94 3.5h.5v.38h-.5z"/><path d="m18.94 3h.5v.5h-.5z"/><path d="m18.94 2.5h.5v.5h-.5z"/><path d="m18.94 2h.5v.5h-.5z"/><path d="m18.44 31.5h.5v.5h-.5z"/><path d="m18.44 31h.5v.5h-.5z"/><path d="m18.44 30.5h.5v.5h-.5z"/><path d="m18.44 30h.5v.5h-.5z"/><path d="m18.44 29.5h.5v.5h-.5z"/><path d="m18.44 29h.5v.5h-.5z"/><path d="m18.44 28.5h.5v.5h-.5z"/><path d="m18.44 28h.5v.5h-.5z"/><path d="m18.44 27.63h.5v.38h-.5z"/><path d="m18.44 26.63h.5v.5h-.5z"/><path d="m18.44 26.13h.5v.5h-.5z"/><path d="m18.44 25.63h.5v.5h-.5z"/><path d="m18.44 23.13h.5v.5h-.5z"/><path d="m18.44 22.63h.5v.5h-.5z"/><path d="m18.44 22.13h.5v.5h-.5z"/><path d="m18.44 21.63h.5v.5h-.5z"/><path d="m18.44 21.13h.5v.5h-.5z"/><path d="m18.44 20.63h.5v.5h-.5z"/><path d="m18.44 20.13h.5v.5h-.5z"/><path d="m18.44 19.63h.5v.5h-.5z"/><path d="m18.44 16.25h.5v.5h-.5z"/><path d="m18.44 12.25h.5v.5h-.5z"/><path d="m18.44 3.5h.5v.38h-.5z"/><path d="m18.44 3h.5v.5h-.5z"/><path d="m18.44 2.5h.5v.5h-.5z"/><path d="m18.44 2h.5v.5h-.5z"/><path d="m17.94 31.5h.5v.5h-.5z"/><path d="m17.94 31h.5v.5h-.5z"/><path d="m17.94 30.5h.5v.5h-.5z"/><path d="m17.94 30h.5v.5h-.5z"/><path d="m17.94 29.5h.5v.5h-.5z"/><path d="m17.94 29h.5v.5h-.5z"/><path d="m17.94 28.5h.5v.5h-.5z"/><path d="m17.94 28h.5v.5h-.5z"/><path d="m17.94 27.63h.5v.38h-.5z"/><path d="m17.94 26.63h.5v.5h-.5z"/><path d="m17.94 26.13h.5v.5h-.5z"/><path d="m17.94 25.63h.5v.5h-.5z"/><path d="m17.94 23.13h.5v.5h-.5z"/><path d="m17.94 22.63h.5v.5h-.5z"/><path d="m17.94 22.13h.5v.5h-.5z"/><path d="m17.94 21.63h.5v.5h-.5z"/><path d="m17.94 21.13h.5v.5h-.5z"/><path d="m17.94 20.63h.5v.5h-.5z"/><path d="m17.94 20.13h.5v.5h-.5z"/><path d="m17.94 19.63h.5v.5h-.5z"/><path d="m17.94 15.75h.5v.5h-.5z"/><path d="m17.94 15.25h.5v.5h-.5z"/><path d="m17.94 12.75h.5v.5h-.5z"/><path d="m17.94 12.25h.5v.5h-.5z"/><path d="m17.94 3.5h.5v.38h-.5z"/><path d="m17.94 3h.5v.5h-.5z"/><path d="m17.94 2.5h.5v.5h-.5z"/><path d="m17.94 2h.5v.5h-.5z"/><path d="m17.94 1.5h.5v.5h-.5z"/><path d="m17.44 31.5h.5v.5h-.5z"/><path d="m17.44 31h.5v.5h-.5z"/><path d="m17.44 30.5h.5v.5h-.5z"/><path d="m17.44 30h.5v.5h-.5z"/><path d="m17.44 29.5h.5v.5h-.5z"/><path d="m17.44 29h.5v.5h-.5z"/><path d="m17.44 28.5h.5v.5h-.5z"/><path d="m17.44 28h.5v.5h-.5z"/><path d="m17.44 27.63h.5v.38h-.5z"/><path d="m17.44 26.63h.5v.5h-.5z"/><path d="m17.44 26.13h.5v.5h-.5z"/><path d="m17.44 25.63h.5v.5h-.5z"/><path d="m17.44 23.13h.5v.5h-.5z"/><path d="m17.44 22.63h.5v.5h-.5z"/><path d="m17.44 22.13h.5v.5h-.5z"/><path d="m17.44 21.63h.5v.5h-.5z"/><path d="m17.44 21.13h.5v.5h-.5z"/><path d="m17.44 20.63h.5v.5h-.5z"/><path d="m17.44 20.13h.5v.5h-.5z"/><path d="m17.44 14.75h.5v.5h-.5z"/><path d="m17.44 14.25h.5v.5h-.5z"/><path d="m17.44 13.75h.5v.5h-.5z"/><path d="m17.44 13.25h.5v.5h-.5z"/><path d="m17.44 12.75h.5v.5h-.5z"/><path d="m17.44 3.5h.5v.38h-.5z"/><path d="m17.44 3h.5v.5h-.5z"/><path d="m17.44 2.5h.5v.5h-.5z"/><path d="m17.44 2h.5v.5h-.5z"/><path d="m17.44 1.5h.5v.5h-.5z"/><path d="m17.44 1h.5v.5h-.5z"/><path d="m16.94 31.5h.5v.5h-.5z"/><path d="m16.94 31h.5v.5h-.5z"/><path d="m16.94 30.5h.5v.5h-.5z"/><path d="m16.94 30h.5v.5h-.5z"/><path d="m16.94 29.5h.5v.5h-.5z"/><path d="m16.94 29h.5v.5h-.5z"/><path d="m16.94 28.5h.5v.5h-.5z"/><path d="m16.94 28h.5v.5h-.5z"/><path d="m16.94 27.63h.5v.38h-.5z"/><path d="m16.94 26.63h.5v.5h-.5z"/><path d="m16.94 26.13h.5v.5h-.5z"/><path d="m16.94 25.63h.5v.5h-.5z"/><path d="m16.94 23.13h.5v.5h-.5z"/><path d="m16.94 22.63h.5v.5h-.5z"/><path d="m16.94 22.13h.5v.5h-.5z"/><path d="m16.94 21.63h.5v.5h-.5z"/><path d="m16.94 21.13h.5v.5h-.5z"/><path d="m16.94 20.63h.5v.5h-.5z"/><path d="m16.94 20.13h.5v.5h-.5z"/><path d="m16.94 13.75h.5v.5h-.5z"/><path d="m16.94 13.25h.5v.5h-.5z"/><path d="m16.94 3.5h.5v.38h-.5z"/><path d="m16.94 3h.5v.5h-.5z"/><path d="m16.94 2.5h.5v.5h-.5z"/><path d="m16.94 2h.5v.5h-.5z"/><path d="m16.94 1.5h.5v.5h-.5z"/><path d="m16.94 1h.5v.5h-.5z"/><path d="m16.44 31.5h.5v.5h-.5z"/><path d="m16.44 31h.5v.5h-.5z"/><path d="m16.44 30.5h.5v.5h-.5z"/><path d="m16.44 30h.5v.5h-.5z"/><path d="m16.44 29.5h.5v.5h-.5z"/><path d="m16.44 29h.5v.5h-.5z"/><path d="m16.44 28.5h.5v.5h-.5z"/><path d="m16.44 28h.5v.5h-.5z"/><path d="m16.44 27.63h.5v.38h-.5z"/><path d="m16.44 26.63h.5v.5h-.5z"/><path d="m16.44 26.13h.5v.5h-.5z"/><path d="m16.44 25.63h.5v.5h-.5z"/><path d="m16.44 23.13h.5v.5h-.5z"/><path d="m16.44 22.63h.5v.5h-.5z"/><path d="m16.44 22.13h.5v.5h-.5z"/><path d="m16.44 21.63h.5v.5h-.5z"/><path d="m16.44 21.13h.5v.5h-.5z"/><path d="m16.44 20.63h.5v.5h-.5z"/><path d="m16.44 20.13h.5v.5h-.5z"/><path d="m16.44 13.75h.5v.5h-.5z"/><path d="m16.44 13.25h.5v.5h-.5z"/><path d="m16.44 3.5h.5v.38h-.5z"/><path d="m16.44 3h.5v.5h-.5z"/><path d="m16.44 2.5h.5v.5h-.5z"/><path d="m16.44 2h.5v.5h-.5z"/><path d="m16.44 1.5h.5v.5h-.5z"/><path d="m16.44 1h.5v.5h-.5z"/><path d="m15.94 31.5h.5v.5h-.5z"/><path d="m15.94 31h.5v.5h-.5z"/><path d="m15.94 30.5h.5v.5h-.5z"/><path d="m15.94 30h.5v.5h-.5z"/><path d="m15.94 29.5h.5v.5h-.5z"/><path d="m15.94 29h.5v.5h-.5z"/><path d="m15.94 28.5h.5v.5h-.5z"/><path d="m15.94 28h.5v.5h-.5z"/><path d="m15.94 27.63h.5v.38h-.5z"/><path d="m15.94 26.13h.5v.5h-.5z"/><path d="m15.94 25.63h.5v.5h-.5z"/><path d="m15.94 23.13h.5v.5h-.5z"/><path d="m15.94 22.63h.5v.5h-.5z"/><path d="m15.94 22.13h.5v.5h-.5z"/><path d="m15.94 21.63h.5v.5h-.5z"/><path d="m15.94 21.13h.5v.5h-.5z"/><path d="m15.94 20.63h.5v.5h-.5z"/><path d="m15.94 20.13h.5v.5h-.5z"/><path d="m15.94 19.63h.5v.5h-.5z"/><path d="m15.94 13.75h.5v.5h-.5z"/><path d="m15.94 13.25h.5v.5h-.5z"/><path d="m15.94 3.5h.5v.38h-.5z"/><path d="m15.94 3h.5v.5h-.5z"/><path d="m15.94 2.5h.5v.5h-.5z"/><path d="m15.94 2h.5v.5h-.5z"/><path d="m15.94 1.5h.5v.5h-.5z"/><path d="m15.94 1h.5v.5h-.5z"/><path d="m15.44 31.5h.5v.5h-.5z"/><path d="m15.44 31h.5v.5h-.5z"/><path d="m15.44 30.5h.5v.5h-.5z"/><path d="m15.44 30h.5v.5h-.5z"/><path d="m15.44 29.5h.5v.5h-.5z"/><path d="m15.44 26.13h.5v.5h-.5z"/><path d="m15.44 25.63h.5v.5h-.5z"/><path d="m15.44 25.13h.5v.5h-.5z"/><path d="m15.44 23.13h.5v.5h-.5z"/><path d="m15.44 22.63h.5v.5h-.5z"/><path d="m15.44 22.13h.5v.5h-.5z"/><path d="m15.44 21.63h.5v.5h-.5z"/><path d="m15.44 21.13h.5v.5h-.5z"/><path d="m15.44 20.63h.5v.5h-.5z"/><path d="m15.44 20.13h.5v.5h-.5z"/><path d="m15.44 19.63h.5v.5h-.5z"/><path d="m15.44 15.25h.5v.5h-.5z"/><path d="m15.44 14.75h.5v.5h-.5z"/><path d="m15.44 14.25h.5v.5h-.5z"/><path d="m15.44 13.75h.5v.5h-.5z"/><path d="m15.44 13.25h.5v.5h-.5z"/><path d="m15.44 3.88h.5v.5h-.5z"/><path d="m15.44 3.5h.5v.38h-.5z"/><path d="m15.44 3h.5v.5h-.5z"/><path d="m15.44 2.5h.5v.5h-.5z"/><path d="m15.44 2h.5v.5h-.5z"/><path d="m15.44 1.5h.5v.5h-.5z"/><path d="m15.44 1h.5v.5h-.5z"/><path d="m15.44.5h.5v.5h-.5z"/><path d="m14.94 31h.5v.5h-.5z"/><path d="m14.94 30.5h.5v.5h-.5z"/><path d="m14.94 30h.5v.5h-.5z"/><path d="m14.94 29.5h.5v.5h-.5z"/><path d="m14.94 26.13h.5v.5h-.5z"/><path d="m14.94 25.63h.5v.5h-.5z"/><path d="m14.94 25.13h.5v.5h-.5z"/><path d="m14.94 24.63h.5v.5h-.5z"/><path d="m14.94 23.13h.5v.5h-.5z"/><path d="m14.94 22.63h.5v.5h-.5z"/><path d="m14.94 22.13h.5v.5h-.5z"/><path d="m14.94 21.63h.5v.5h-.5z"/><path d="m14.94 21.13h.5v.5h-.5z"/><path d="m14.94 20.63h.5v.5h-.5z"/><path d="m14.94 20.13h.5v.5h-.5z"/><path d="m14.94 19.63h.5v.5h-.5z"/><path d="m14.94 16.75h.5v.5h-.5z"/><path d="m14.94 16.25h.5v.5h-.5z"/><path d="m14.94 15.75h.5v.5h-.5z"/><path d="m14.94 13.25h.5v.5h-.5z"/><path d="m14.94 3.88h.5v.5h-.5z"/><path d="m14.94 3.5h.5v.38h-.5z"/><path d="m14.94 3h.5v.5h-.5z"/><path d="m14.94 2.5h.5v.5h-.5z"/><path d="m14.94 2h.5v.5h-.5z"/><path d="m14.94 1.5h.5v.5h-.5z"/><path d="m14.94 1h.5v.5h-.5z"/><path d="m14.94.5h.5v.5h-.5z"/><path d="m14.44 31h.5v.5h-.5z"/><path d="m14.44 30.5h.5v.5h-.5z"/><path d="m14.44 30h.5v.5h-.5z"/><path d="m14.44 29.5h.5v.5h-.5z"/><path d="m14.44 29h.5v.5h-.5z"/><path d="m14.44 25.63h.5v.5h-.5z"/><path d="m14.44 25.13h.5v.5h-.5z"/><path d="m14.44 24.63h.5v.5h-.5z"/><path d="m14.44 23.13h.5v.5h-.5z"/><path d="m14.44 22.63h.5v.5h-.5z"/><path d="m14.44 22.13h.5v.5h-.5z"/><path d="m14.44 21.63h.5v.5h-.5z"/><path d="m14.44 21.13h.5v.5h-.5z"/><path d="m14.44 17.25h.5v.5h-.5z"/><path d="m14.44 12.75h.5v.5h-.5z"/><path d="m14.44 3.88h.5v.5h-.5z"/><path d="m14.44 3.5h.5v.38h-.5z"/><path d="m14.44 3h.5v.5h-.5z"/><path d="m14.44 2.5h.5v.5h-.5z"/><path d="m14.44 2h.5v.5h-.5z"/><path d="m14.44 1.5h.5v.5h-.5z"/><path d="m14.44 1h.5v.5h-.5z"/><path d="m14.44.5h.5v.5h-.5z"/><path d="m14.44 0h.5v.5h-.5z"/><path d="m14.06 30.5h.38v.5h-.38z"/><path d="m14.06 30h.38v.5h-.38z"/><path d="m14.06 29.5h.38v.5h-.38z"/><path d="m14.06 29h.38v.5h-.38z"/><path d="m14.06 25.13h.38v.5h-.38z"/><path d="m14.06 24.63h.38v.5h-.38z"/><path d="m14.06 24.13h.38v.5h-.38z"/><path d="m14.06 23.63h.38v.5h-.38z"/><path d="m14.06 23.13h.38v.5h-.38z"/><path d="m14.06 22.63h.38v.5h-.38z"/><path d="m14.06 22.13h.38v.5h-.38z"/><path d="m14.06 21.63h.38v.5h-.38z"/><path d="m14.06 21.13h.38v.5h-.38z"/><path d="m14.06 17.75h.38v.5h-.38z"/><path d="m14.06 12.75h.38v.5h-.38z"/><path d="m14.06 3.88h.38v.5h-.38z"/><path d="m14.06 3.5h.38v.38h-.38z"/><path d="m14.06 3h.38v.5h-.38z"/><path d="m14.06 2.5h.38v.5h-.38z"/><path d="m14.06 2h.38v.5h-.38z"/><path d="m14.06 1.5h.38v.5h-.38z"/><path d="m14.06 1h.38v.5h-.38z"/><path d="m14.06.5h.38v.5h-.38z"/><path d="m14.06 0h.38v.5h-.38z"/><path d="m13.56 30.5h.5v.5h-.5z"/><path d="m13.56 30h.5v.5h-.5z"/><path d="m13.56 29.5h.5v.5h-.5z"/><path d="m13.56 29h.5v.5h-.5z"/><path d="m13.56 28.5h.5v.5h-.5z"/><path d="m13.56 24.63h.5v.5h-.5z"/><path d="m13.56 24.13h.5v.5h-.5z"/><path d="m13.56 23.63h.5v.5h-.5z"/><path d="m13.56 23.13h.5v.5h-.5z"/><path d="m13.56 22.63h.5v.5h-.5z"/><path d="m13.56 22.13h.5v.5h-.5z"/><path d="m13.56 21.63h.5v.5h-.5z"/><path d="m13.56 17.75h.5v.5h-.5z"/><path d="m13.56 12.75h.5v.5h-.5z"/><path d="m13.56 3.88h.5v.5h-.5z"/><path d="m13.56 3.5h.5v.38h-.5z"/><path d="m13.56 3h.5v.5h-.5z"/><path d="m13.56 2.5h.5v.5h-.5z"/><path d="m13.56 2h.5v.5h-.5z"/><path d="m13.56 1.5h.5v.5h-.5z"/><path d="m13.56 1h.5v.5h-.5z"/><path d="m13.56.5h.5v.5h-.5z"/><path d="m13.56 0h.5v.5h-.5z"/><path d="m13.06 30.5h.5v.5h-.5z"/><path d="m13.06 30h.5v.5h-.5z"/><path d="m13.06 29.5h.5v.5h-.5z"/><path d="m13.06 29h.5v.5h-.5z"/><path d="m13.06 28.5h.5v.5h-.5z"/><path d="m13.06 28h.5v.5h-.5z"/><path d="m13.06 27.63h.5v.38h-.5z"/><path d="m13.06 23.13h.5v.5h-.5z"/><path d="m13.06 22.63h.5v.5h-.5z"/><path d="m13.06 22.13h.5v.5h-.5z"/><path d="m13.06 21.63h.5v.5h-.5z"/><path d="m13.06 17.75h.5v.5h-.5z"/><path d="m13.06 12.75h.5v.5h-.5z"/><path d="m13.06 3h.5v.5h-.5z"/><path d="m13.06 2.5h.5v.5h-.5z"/><path d="m13.06 2h.5v.5h-.5z"/><path d="m13.06 1.5h.5v.5h-.5z"/><path d="m13.06 1h.5v.5h-.5z"/><path d="m13.06.5h.5v.5h-.5z"/><path d="m12.56 30h.5v.5h-.5z"/><path d="m12.56 29.5h.5v.5h-.5z"/><path d="m12.56 29h.5v.5h-.5z"/><path d="m12.56 28.5h.5v.5h-.5z"/><path d="m12.56 28h.5v.5h-.5z"/><path d="m12.56 27.63h.5v.38h-.5z"/><path d="m12.56 27.13h.5v.5h-.5z"/><path d="m12.56 26.63h.5v.5h-.5z"/><path d="m12.56 23.13h.5v.5h-.5z"/><path d="m12.56 22.63h.5v.5h-.5z"/><path d="m12.56 22.13h.5v.5h-.5z"/><path d="m12.56 21.63h.5v.5h-.5z"/><path d="m12.56 18.25h.5v.5h-.5z"/><path d="m12.56 12.75h.5v.5h-.5z"/><path d="m12.56 3.5h.5v.38h-.5z"/><path d="m12.56 3h.5v.5h-.5z"/><path d="m12.56 2.5h.5v.5h-.5z"/><path d="m12.56 2h.5v.5h-.5z"/><path d="m12.56 1.5h.5v.5h-.5z"/><path d="m12.56 1h.5v.5h-.5z"/><path d="m12.56.5h.5v.5h-.5z"/><path d="m12.06 30h.5v.5h-.5z"/><path d="m12.06 29.5h.5v.5h-.5z"/><path d="m12.06 29h.5v.5h-.5z"/><path d="m12.06 28.5h.5v.5h-.5z"/><path d="m12.06 28h.5v.5h-.5z"/><path d="m12.06 27.63h.5v.38h-.5z"/><path d="m12.06 27.13h.5v.5h-.5z"/><path d="m12.06 26.63h.5v.5h-.5z"/><path d="m12.06 26.13h.5v.5h-.5z"/><path d="m12.06 23.13h.5v.5h-.5z"/><path d="m12.06 22.63h.5v.5h-.5z"/><path d="m12.06 22.13h.5v.5h-.5z"/><path d="m12.06 21.63h.5v.5h-.5z"/><path d="m12.06 18.25h.5v.5h-.5z"/><path d="m12.06 12.75h.5v.5h-.5z"/><path d="m12.06 3.88h.5v.5h-.5z"/><path d="m12.06 3.5h.5v.38h-.5z"/><path d="m12.06 3h.5v.5h-.5z"/><path d="m12.06 2.5h.5v.5h-.5z"/><path d="m12.06 2h.5v.5h-.5z"/><path d="m12.06 1.5h.5v.5h-.5z"/><path d="m12.06 1h.5v.5h-.5z"/><path d="m11.56 29.5h.5v.5h-.5z"/><path d="m11.56 29h.5v.5h-.5z"/><path d="m11.56 28.5h.5v.5h-.5z"/><path d="m11.56 28h.5v.5h-.5z"/><path d="m11.56 27.63h.5v.38h-.5z"/><path d="m11.56 27.13h.5v.5h-.5z"/><path d="m11.56 26.63h.5v.5h-.5z"/><path d="m11.56 26.13h.5v.5h-.5z"/><path d="m11.56 25.63h.5v.5h-.5z"/><path d="m11.56 25.13h.5v.5h-.5z"/><path d="m11.56 24.63h.5v.5h-.5z"/><path d="m11.56 24.13h.5v.5h-.5z"/><path d="m11.56 23.63h.5v.5h-.5z"/><path d="m11.56 23.13h.5v.5h-.5z"/><path d="m11.56 22.63h.5v.5h-.5z"/><path d="m11.56 22.13h.5v.5h-.5z"/><path d="m11.56 18.25h.5v.5h-.5z"/><path d="m11.56 12.75h.5v.5h-.5z"/><path d="m11.56 3.88h.5v.5h-.5z"/><path d="m11.56 3.5h.5v.38h-.5z"/><path d="m11.56 3h.5v.5h-.5z"/><path d="m11.56 2.5h.5v.5h-.5z"/><path d="m11.56 2h.5v.5h-.5z"/><path d="m11.56 1.5h.5v.5h-.5z"/><path d="m11.56 1h.5v.5h-.5z"/><path d="m11.06 29.5h.5v.5h-.5z"/><path d="m11.06 29h.5v.5h-.5z"/><path d="m11.06 28.5h.5v.5h-.5z"/><path d="m11.06 28h.5v.5h-.5z"/><path d="m11.06 27.63h.5v.38h-.5z"/><path d="m11.06 27.13h.5v.5h-.5z"/><path d="m11.06 26.63h.5v.5h-.5z"/><path d="m11.06 26.13h.5v.5h-.5z"/><path d="m11.06 25.63h.5v.5h-.5z"/><path d="m11.06 25.13h.5v.5h-.5z"/><path d="m11.06 24.63h.5v.5h-.5z"/><path d="m11.06 24.13h.5v.5h-.5z"/><path d="m11.06 23.63h.5v.5h-.5z"/><path d="m11.06 23.13h.5v.5h-.5z"/><path d="m11.06 22.63h.5v.5h-.5z"/><path d="m11.06 22.13h.5v.5h-.5z"/><path d="m11.06 18.25h.5v.5h-.5z"/><path d="m11.06 12.75h.5v.5h-.5z"/><path d="m11.06 3.88h.5v.5h-.5z"/><path d="m11.06 3.5h.5v.38h-.5z"/><path d="m11.06 3h.5v.5h-.5z"/><path d="m11.06 2.5h.5v.5h-.5z"/><path d="m11.06 2h.5v.5h-.5z"/><path d="m11.06 1.5h.5v.5h-.5z"/><path d="m11.06 1h.5v.5h-.5z"/><path d="m10.56 29h.5v.5h-.5z"/><path d="m10.56 28.5h.5v.5h-.5z"/><path d="m10.56 28h.5v.5h-.5z"/><path d="m10.56 27.63h.5v.38h-.5z"/><path d="m10.56 27.13h.5v.5h-.5z"/><path d="m10.56 26.63h.5v.5h-.5z"/><path d="m10.56 26.13h.5v.5h-.5z"/><path d="m10.56 25.63h.5v.5h-.5z"/><path d="m10.56 25.13h.5v.5h-.5z"/><path d="m10.56 18.25h.5v.5h-.5z"/><path d="m10.56 12.75h.5v.5h-.5z"/><path d="m10.56 4.38h.5v.5h-.5z"/><path d="m10.56 3.88h.5v.5h-.5z"/><path d="m10.56 3.5h.5v.38h-.5z"/><path d="m10.56 3h.5v.5h-.5z"/><path d="m10.56 2.5h.5v.5h-.5z"/><path d="m10.56 2h.5v.5h-.5z"/><path d="m10.56 1.5h.5v.5h-.5z"/><path d="m10.06 28.5h.5v.5h-.5z"/><path d="m10.06 28h.5v.5h-.5z"/><path d="m10.06 27.63h.5v.38h-.5z"/><path d="m10.06 27.13h.5v.5h-.5z"/><path d="m10.06 26.63h.5v.5h-.5z"/><path d="m10.06 26.13h.5v.5h-.5z"/><path d="m10.06 25.63h.5v.5h-.5z"/><path d="m10.06 25.13h.5v.5h-.5z"/><path d="m10.06 24.63h.5v.5h-.5z"/><path d="m10.06 18.25h.5v.5h-.5z"/><path d="m10.06 13.25h.5v.5h-.5z"/><path d="m10.06 4.38h.5v.5h-.5z"/><path d="m10.06 3.88h.5v.5h-.5z"/><path d="m10.06 3.5h.5v.38h-.5z"/><path d="m10.06 3h.5v.5h-.5z"/><path d="m10.06 2.5h.5v.5h-.5z"/><path d="m9.56 28h.5v.5h-.5z"/><path d="m9.56 27.63h.5v.38h-.5z"/><path d="m9.56 27.13h.5v.5h-.5z"/><path d="m9.56 26.63h.5v.5h-.5z"/><path d="m9.56 26.13h.5v.5h-.5z"/><path d="m9.56 25.63h.5v.5h-.5z"/><path d="m9.56 25.13h.5v.5h-.5z"/><path d="m9.56 24.63h.5v.5h-.5z"/><path d="m9.56 24.13h.5v.5h-.5z"/><path d="m9.56 17.75h.5v.5h-.5z"/><path d="m9.56 13.25h.5v.5h-.5z"/><path d="m9.56 4.38h.5v.5h-.5z"/><path d="m9.56 3.88h.5v.5h-.5z"/><path d="m9.56 3.5h.5v.38h-.5z"/><path d="m9.56 3h.5v.5h-.5z"/><path d="m9.56 2.5h.5v.5h-.5z"/><path d="m9.06 27.63h.5v.38h-.5z"/><path d="m9.06 27.13h.5v.5h-.5z"/><path d="m9.06 26.63h.5v.5h-.5z"/><path d="m9.06 26.13h.5v.5h-.5z"/><path d="m9.06 25.63h.5v.5h-.5z"/><path d="m9.06 25.13h.5v.5h-.5z"/><path d="m9.06 24.63h.5v.5h-.5z"/><path d="m9.06 24.13h.5v.5h-.5z"/><path d="m9.06 17.75h.5v.5h-.5z"/><path d="m9.06 17.25h.5v.5h-.5z"/><path d="m9.06 13.25h.5v.5h-.5z"/><path d="m9.06 4.38h.5v.5h-.5z"/><path d="m9.06 3.88h.5v.5h-.5z"/><path d="m9.06 3.5h.5v.38h-.5z"/><path d="m9.06 3h.5v.5h-.5z"/><path d="m8.56 26.63h.5v.5h-.5z"/><path d="m8.56 26.13h.5v.5h-.5z"/><path d="m8.56 25.63h.5v.5h-.5z"/><path d="m8.56 25.13h.5v.5h-.5z"/><path d="m8.56 24.63h.5v.5h-.5z"/><path d="m8.56 24.13h.5v.5h-.5z"/><path d="m8.56 16.75h.5v.5h-.5z"/><path d="m8.56 16.25h.5v.5h-.5z"/><path d="m8.56 13.25h.5v.5h-.5z"/><path d="m8.56 4.88h.5v.5h-.5z"/><path d="m8.56 4.38h.5v.5h-.5z"/><path d="m8.56 3.88h.5v.5h-.5z"/><path d="m8.06 25.63h.5v.5h-.5z"/><path d="m8.06 25.13h.5v.5h-.5z"/><path d="m8.06 24.63h.5v.5h-.5z"/><path d="m8.06 24.13h.5v.5h-.5z"/><path d="m8.06 15.75h.5v.5h-.5z"/><path d="m8.06 15.25h.5v.5h-.5z"/><path d="m8.06 14.75h.5v.5h-.5z"/><path d="m8.06 14.25h.5v.5h-.5z"/><path d="m8.06 13.75h.5v.5h-.5z"/><path d="m8.06 5.38h.5v.5h-.5z"/><path d="m8.06 4.88h.5v.5h-.5z"/><path d="m8.06 4.38h.5v.5h-.5z"/><path d="m7.56 23.63h.5v.5h-.5z"/><path d="m7.56 23.13h.5v.5h-.5z"/><path d="m7.56 22.63h.5v.5h-.5z"/><path d="m7.56 22.13h.5v.5h-.5z"/><path d="m7.56 21.63h.5v.5h-.5z"/><path d="m7.56 14.75h.5v.5h-.5z"/><path d="m7.56 14.25h.5v.5h-.5z"/><path d="m7.56 13.75h.5v.5h-.5z"/><path d="m7.56 5.88h.5v.5h-.5z"/><path d="m7.56 5.38h.5v.5h-.5z"/><path d="m7.56 4.88h.5v.5h-.5z"/><path d="m7.06 6.38h.5v.5h-.5z"/><path d="m7.06 5.88h.5v.5h-.5z"/><path d="m6.56 7.88h.5v.5h-.5z"/><path d="m6.56 7.38h.5v.5h-.5z"/><path d="m6.56 6.88h.5v.5h-.5z"/><path d="m6.56 6.38h.5v.5h-.5z"/><path d="m6.19 8.88h.38v.5h-.38z"/><path d="m6.19 8.38h.38v.5h-.38z"/><path d="m6.19 7.88h.38v.5h-.38z"/><path d="m6.19 7.38h.38v.5h-.38z"/><path d="m5.69 10.88h.5v.5h-.5z"/><path d="m5.69 10.38h.5v.5h-.5z"/><path d="m5.69 9.88h.5v.5h-.5z"/><path d="m5.69 9.38h.5v.5h-.5z"/><path d="m5.69 8.88h.5v.5h-.5z"/><path d="m5.69 8.38h.5v.5h-.5z"/></g></svg>