<?xml version="1.0" encoding="utf-8"?>
<!-- Generator: Adobe Illustrator 24.2.3, SVG Export Plug-In . SVG Version: 6.00 Build 0)  -->
<svg version="1.1" id="Layer_1" xmlns="http://www.w3.org/2000/svg" xmlns:xlink="http://www.w3.org/1999/xlink" x="0px" y="0px"
	 viewBox="0 0 24 24" style="enable-background:new 0 0 24 24;" xml:space="preserve">
<style type="text/css">
	.st0{display:none;}
	.st1{display:inline;}
	.st2{fill:#FFF8E2;}
</style>
<g class="st0">
	<g id="XMLID_1_" class="st1">
		<g>
			<rect x="22" y="19" class="st2" width="1" height="1"/>
			<rect x="22" y="18" class="st2" width="1" height="1"/>
			<rect x="22" y="20" class="st2" width="1" height="1"/>
			<rect x="21" y="20" class="st2" width="1" height="1"/>
			<rect x="21" y="19" class="st2" width="1" height="1"/>
			<rect x="20" y="20" class="st2" width="1" height="1"/>
			<rect x="2" y="20" class="st2" width="1" height="1"/>
			<rect x="2" y="19" class="st2" width="1" height="1"/>
			<rect x="3" y="20" class="st2" width="1" height="1"/>
			<rect x="1" y="18" class="st2" width="1" height="1"/>
			<rect x="1" y="19" class="st2" width="1" height="1"/>
			<rect x="1" y="20" class="st2" width="1" height="1"/>
			<rect x="10" y="3" class="st2" width="1" height="1"/>
			<rect x="11" y="3" class="st2" width="1" height="1"/>
			<rect x="22" y="3" class="st2" width="1" height="1"/>
			<rect x="21" y="3" class="st2" width="1" height="1"/>
			<rect x="20" y="3" class="st2" width="1" height="1"/>
			<rect x="19" y="3" class="st2" width="1" height="1"/>
			<rect x="18" y="3" class="st2" width="1" height="1"/>
			<rect x="17" y="3" class="st2" width="1" height="1"/>
			<rect x="16" y="3" class="st2" width="1" height="1"/>
			<rect x="15" y="3" class="st2" width="1" height="1"/>
			<rect x="12" y="3" class="st2" width="1" height="1"/>
			<rect x="8" y="3" class="st2" width="1" height="1"/>
			<rect x="9" y="3" class="st2" width="1" height="1"/>
			<rect x="13" y="3" class="st2" width="1" height="1"/>
			<rect x="14" y="3" class="st2" width="1" height="1"/>
			<rect x="6" y="3" class="st2" width="1" height="1"/>
			<rect x="5" y="3" class="st2" width="1" height="1"/>
			<rect x="7" y="3" class="st2" width="1" height="1"/>
			<rect x="2" y="3" class="st2" width="1" height="1"/>
			<rect x="4" y="3" class="st2" width="1" height="1"/>
			<rect x="3" y="3" class="st2" width="1" height="1"/>
			<rect x="1" y="3" class="st2" width="1" height="1"/>
			<rect x="21" y="6" class="st2" width="1" height="1"/>
			<rect x="2" y="6" class="st2" width="1" height="1"/>
			<rect x="22" y="17" class="st2" width="1" height="1"/>
			<rect x="22" y="16" class="st2" width="1" height="1"/>
			<rect x="22" y="15" class="st2" width="1" height="1"/>
			<rect x="22" y="14" class="st2" width="1" height="1"/>
			<rect x="22" y="13" class="st2" width="1" height="1"/>
			<rect x="22" y="12" class="st2" width="1" height="1"/>
			<rect x="22" y="11" class="st2" width="1" height="1"/>
			<rect x="22" y="10" class="st2" width="1" height="1"/>
			<rect x="22" y="9" class="st2" width="1" height="1"/>
			<rect x="22" y="8" class="st2" width="1" height="1"/>
			<rect x="22" y="5" class="st2" width="1" height="1"/>
			<rect x="22" y="4" class="st2" width="1" height="1"/>
			<rect x="21" y="18" class="st2" width="1" height="1"/>
			<rect x="21" y="17" class="st2" width="1" height="1"/>
			<rect x="21" y="16" class="st2" width="1" height="1"/>
			<rect x="21" y="15" class="st2" width="1" height="1"/>
			<rect x="21" y="14" class="st2" width="1" height="1"/>
			<rect x="21" y="13" class="st2" width="1" height="1"/>
			<rect x="21" y="12" class="st2" width="1" height="1"/>
			<rect x="21" y="11" class="st2" width="1" height="1"/>
			<rect x="21" y="10" class="st2" width="1" height="1"/>
			<rect x="21" y="9" class="st2" width="1" height="1"/>
			<rect x="21" y="8" class="st2" width="1" height="1"/>
			<rect x="21" y="5" class="st2" width="1" height="1"/>
			<rect x="21" y="4" class="st2" width="1" height="1"/>
			<rect x="20" y="19" class="st2" width="1" height="1"/>
			<rect x="20" y="18" class="st2" width="1" height="1"/>
			<rect x="20" y="17" class="st2" width="1" height="1"/>
			<rect x="20" y="16" class="st2" width="1" height="1"/>
			<rect x="20" y="15" class="st2" width="1" height="1"/>
			<rect x="20" y="14" class="st2" width="1" height="1"/>
			<rect x="20" y="13" class="st2" width="1" height="1"/>
			<rect x="20" y="12" class="st2" width="1" height="1"/>
			<rect x="20" y="11" class="st2" width="1" height="1"/>
			<rect x="20" y="10" class="st2" width="1" height="1"/>
			<rect x="20" y="9" class="st2" width="1" height="1"/>
			<rect x="20" y="8" class="st2" width="1" height="1"/>
			<rect x="20" y="6" class="st2" width="1" height="1"/>
			<rect x="20" y="5" class="st2" width="1" height="1"/>
			<rect x="20" y="4" class="st2" width="1" height="1"/>
			<rect x="19" y="20" class="st2" width="1" height="1"/>
			<rect x="19" y="19" class="st2" width="1" height="1"/>
			<rect x="19" y="18" class="st2" width="1" height="1"/>
			<rect x="19" y="17" class="st2" width="1" height="1"/>
			<rect x="19" y="16" class="st2" width="1" height="1"/>
			<rect x="19" y="15" class="st2" width="1" height="1"/>
			<rect x="19" y="14" class="st2" width="1" height="1"/>
			<rect x="19" y="13" class="st2" width="1" height="1"/>
			<rect x="19" y="12" class="st2" width="1" height="1"/>
			<rect x="19" y="11" class="st2" width="1" height="1"/>
			<rect x="19" y="10" class="st2" width="1" height="1"/>
			<rect x="19" y="9" class="st2" width="1" height="1"/>
			<rect x="19" y="7" class="st2" width="1" height="1"/>
			<rect x="19" y="6" class="st2" width="1" height="1"/>
			<rect x="19" y="5" class="st2" width="1" height="1"/>
			<rect x="19" y="4" class="st2" width="1" height="1"/>
			<rect x="18" y="20" class="st2" width="1" height="1"/>
			<rect x="18" y="19" class="st2" width="1" height="1"/>
			<rect x="18" y="18" class="st2" width="1" height="1"/>
			<rect x="18" y="17" class="st2" width="1" height="1"/>
			<rect x="18" y="16" class="st2" width="1" height="1"/>
			<rect x="18" y="15" class="st2" width="1" height="1"/>
			<rect x="18" y="14" class="st2" width="1" height="1"/>
			<rect x="18" y="13" class="st2" width="1" height="1"/>
			<rect x="18" y="12" class="st2" width="1" height="1"/>
			<rect x="18" y="11" class="st2" width="1" height="1"/>
			<rect x="18" y="10" class="st2" width="1" height="1"/>
			<rect x="18" y="8" class="st2" width="1" height="1"/>
			<rect x="18" y="7" class="st2" width="1" height="1"/>
			<rect x="18" y="6" class="st2" width="1" height="1"/>
			<rect x="18" y="5" class="st2" width="1" height="1"/>
			<rect x="18" y="4" class="st2" width="1" height="1"/>
			<rect x="17" y="20" class="st2" width="1" height="1"/>
			<rect x="17" y="19" class="st2" width="1" height="1"/>
			<rect x="17" y="18" class="st2" width="1" height="1"/>
			<rect x="17" y="17" class="st2" width="1" height="1"/>
			<rect x="17" y="16" class="st2" width="1" height="1"/>
			<rect x="17" y="15" class="st2" width="1" height="1"/>
			<rect x="17" y="14" class="st2" width="1" height="1"/>
			<rect x="17" y="13" class="st2" width="1" height="1"/>
			<rect x="17" y="12" class="st2" width="1" height="1"/>
			<rect x="17" y="11" class="st2" width="1" height="1"/>
			<rect x="17" y="9" class="st2" width="1" height="1"/>
			<rect x="17" y="8" class="st2" width="1" height="1"/>
			<rect x="17" y="7" class="st2" width="1" height="1"/>
			<rect x="17" y="6" class="st2" width="1" height="1"/>
			<rect x="17" y="5" class="st2" width="1" height="1"/>
			<rect x="17" y="4" class="st2" width="1" height="1"/>
			<rect x="16" y="20" class="st2" width="1" height="1"/>
			<rect x="16" y="19" class="st2" width="1" height="1"/>
			<rect x="16" y="18" class="st2" width="1" height="1"/>
			<rect x="16" y="17" class="st2" width="1" height="1"/>
			<rect x="16" y="16" class="st2" width="1" height="1"/>
			<rect x="16" y="15" class="st2" width="1" height="1"/>
			<rect x="16" y="14" class="st2" width="1" height="1"/>
			<rect x="16" y="13" class="st2" width="1" height="1"/>
			<rect x="16" y="12" class="st2" width="1" height="1"/>
			<rect x="16" y="10" class="st2" width="1" height="1"/>
			<rect x="16" y="9" class="st2" width="1" height="1"/>
			<rect x="16" y="8" class="st2" width="1" height="1"/>
			<rect x="16" y="7" class="st2" width="1" height="1"/>
			<rect x="16" y="6" class="st2" width="1" height="1"/>
			<rect x="16" y="5" class="st2" width="1" height="1"/>
			<rect x="16" y="4" class="st2" width="1" height="1"/>
			<rect x="15" y="20" class="st2" width="1" height="1"/>
			<rect x="15" y="19" class="st2" width="1" height="1"/>
			<rect x="15" y="18" class="st2" width="1" height="1"/>
			<rect x="15" y="17" class="st2" width="1" height="1"/>
			<rect x="15" y="16" class="st2" width="1" height="1"/>
			<rect x="15" y="15" class="st2" width="1" height="1"/>
			<rect x="15" y="14" class="st2" width="1" height="1"/>
			<rect x="15" y="13" class="st2" width="1" height="1"/>
			<rect x="15" y="11" class="st2" width="1" height="1"/>
			<rect x="15" y="10" class="st2" width="1" height="1"/>
			<rect x="15" y="9" class="st2" width="1" height="1"/>
			<rect x="15" y="8" class="st2" width="1" height="1"/>
			<rect x="15" y="7" class="st2" width="1" height="1"/>
			<rect x="15" y="6" class="st2" width="1" height="1"/>
			<rect x="15" y="5" class="st2" width="1" height="1"/>
			<rect x="15" y="4" class="st2" width="1" height="1"/>
			<rect x="14" y="20" class="st2" width="1" height="1"/>
			<rect x="14" y="19" class="st2" width="1" height="1"/>
			<rect x="14" y="18" class="st2" width="1" height="1"/>
			<rect x="14" y="17" class="st2" width="1" height="1"/>
			<rect x="14" y="16" class="st2" width="1" height="1"/>
			<rect x="14" y="15" class="st2" width="1" height="1"/>
			<rect x="14" y="14" class="st2" width="1" height="1"/>
			<rect x="14" y="12" class="st2" width="1" height="1"/>
			<rect x="14" y="11" class="st2" width="1" height="1"/>
			<rect x="14" y="10" class="st2" width="1" height="1"/>
			<rect x="14" y="9" class="st2" width="1" height="1"/>
			<rect x="14" y="8" class="st2" width="1" height="1"/>
			<rect x="14" y="7" class="st2" width="1" height="1"/>
			<rect x="14" y="6" class="st2" width="1" height="1"/>
			<rect x="14" y="5" class="st2" width="1" height="1"/>
			<rect x="14" y="4" class="st2" width="1" height="1"/>
			<rect x="13" y="20" class="st2" width="1" height="1"/>
			<rect x="13" y="19" class="st2" width="1" height="1"/>
			<rect x="13" y="18" class="st2" width="1" height="1"/>
			<rect x="13" y="17" class="st2" width="1" height="1"/>
			<rect x="13" y="16" class="st2" width="1" height="1"/>
			<rect x="13" y="15" class="st2" width="1" height="1"/>
			<rect x="13" y="13" class="st2" width="1" height="1"/>
			<rect x="13" y="12" class="st2" width="1" height="1"/>
			<rect x="13" y="11" class="st2" width="1" height="1"/>
			<rect x="13" y="10" class="st2" width="1" height="1"/>
			<rect x="13" y="9" class="st2" width="1" height="1"/>
			<rect x="13" y="8" class="st2" width="1" height="1"/>
			<rect x="13" y="7" class="st2" width="1" height="1"/>
			<rect x="13" y="6" class="st2" width="1" height="1"/>
			<rect x="13" y="5" class="st2" width="1" height="1"/>
			<rect x="13" y="4" class="st2" width="1" height="1"/>
			<rect x="12" y="20" class="st2" width="1" height="1"/>
			<rect x="12" y="19" class="st2" width="1" height="1"/>
			<rect x="12" y="18" class="st2" width="1" height="1"/>
			<rect x="12" y="17" class="st2" width="1" height="1"/>
			<rect x="12" y="16" class="st2" width="1" height="1"/>
			<rect x="12" y="14" class="st2" width="1" height="1"/>
			<rect x="12" y="13" class="st2" width="1" height="1"/>
			<rect x="12" y="12" class="st2" width="1" height="1"/>
			<rect x="12" y="11" class="st2" width="1" height="1"/>
			<rect x="12" y="10" class="st2" width="1" height="1"/>
			<rect x="12" y="9" class="st2" width="1" height="1"/>
			<rect x="12" y="8" class="st2" width="1" height="1"/>
			<rect x="12" y="7" class="st2" width="1" height="1"/>
			<rect x="12" y="6" class="st2" width="1" height="1"/>
			<rect x="12" y="5" class="st2" width="1" height="1"/>
			<rect x="12" y="4" class="st2" width="1" height="1"/>
			<rect x="11" y="20" class="st2" width="1" height="1"/>
			<rect x="11" y="19" class="st2" width="1" height="1"/>
			<rect x="11" y="18" class="st2" width="1" height="1"/>
			<rect x="11" y="17" class="st2" width="1" height="1"/>
			<rect x="11" y="16" class="st2" width="1" height="1"/>
			<rect x="11" y="14" class="st2" width="1" height="1"/>
			<rect x="11" y="13" class="st2" width="1" height="1"/>
			<rect x="11" y="12" class="st2" width="1" height="1"/>
			<rect x="11" y="11" class="st2" width="1" height="1"/>
			<rect x="11" y="10" class="st2" width="1" height="1"/>
			<rect x="11" y="9" class="st2" width="1" height="1"/>
			<rect x="11" y="8" class="st2" width="1" height="1"/>
			<rect x="11" y="7" class="st2" width="1" height="1"/>
			<rect x="11" y="6" class="st2" width="1" height="1"/>
			<rect x="11" y="5" class="st2" width="1" height="1"/>
			<rect x="11" y="4" class="st2" width="1" height="1"/>
			<rect x="10" y="20" class="st2" width="1" height="1"/>
			<rect x="10" y="19" class="st2" width="1" height="1"/>
			<rect x="10" y="18" class="st2" width="1" height="1"/>
			<rect x="10" y="17" class="st2" width="1" height="1"/>
			<rect x="10" y="16" class="st2" width="1" height="1"/>
			<rect x="10" y="15" class="st2" width="1" height="1"/>
			<rect x="10" y="13" class="st2" width="1" height="1"/>
			<rect x="10" y="12" class="st2" width="1" height="1"/>
			<rect x="10" y="11" class="st2" width="1" height="1"/>
			<rect x="10" y="10" class="st2" width="1" height="1"/>
			<rect x="10" y="9" class="st2" width="1" height="1"/>
			<rect x="10" y="8" class="st2" width="1" height="1"/>
			<rect x="10" y="7" class="st2" width="1" height="1"/>
			<rect x="10" y="6" class="st2" width="1" height="1"/>
			<rect x="10" y="5" class="st2" width="1" height="1"/>
			<rect x="10" y="4" class="st2" width="1" height="1"/>
			<rect x="9" y="20" class="st2" width="1" height="1"/>
			<rect x="9" y="19" class="st2" width="1" height="1"/>
			<rect x="9" y="18" class="st2" width="1" height="1"/>
			<rect x="9" y="17" class="st2" width="1" height="1"/>
			<rect x="9" y="16" class="st2" width="1" height="1"/>
			<rect x="9" y="15" class="st2" width="1" height="1"/>
			<rect x="9" y="14" class="st2" width="1" height="1"/>
			<rect x="9" y="12" class="st2" width="1" height="1"/>
			<rect x="9" y="11" class="st2" width="1" height="1"/>
			<rect x="9" y="10" class="st2" width="1" height="1"/>
			<rect x="9" y="9" class="st2" width="1" height="1"/>
			<rect x="9" y="8" class="st2" width="1" height="1"/>
			<rect x="9" y="7" class="st2" width="1" height="1"/>
			<rect x="9" y="6" class="st2" width="1" height="1"/>
			<rect x="9" y="5" class="st2" width="1" height="1"/>
			<rect x="9" y="4" class="st2" width="1" height="1"/>
			<rect x="8" y="20" class="st2" width="1" height="1"/>
			<rect x="8" y="19" class="st2" width="1" height="1"/>
			<rect x="8" y="18" class="st2" width="1" height="1"/>
			<rect x="8" y="17" class="st2" width="1" height="1"/>
			<rect x="8" y="16" class="st2" width="1" height="1"/>
			<rect x="8" y="15" class="st2" width="1" height="1"/>
			<rect x="8" y="14" class="st2" width="1" height="1"/>
			<rect x="8" y="13" class="st2" width="1" height="1"/>
			<rect x="8" y="11" class="st2" width="1" height="1"/>
			<rect x="8" y="10" class="st2" width="1" height="1"/>
			<rect x="8" y="9" class="st2" width="1" height="1"/>
			<rect x="8" y="8" class="st2" width="1" height="1"/>
			<rect x="8" y="7" class="st2" width="1" height="1"/>
			<rect x="8" y="6" class="st2" width="1" height="1"/>
			<rect x="8" y="5" class="st2" width="1" height="1"/>
			<rect x="8" y="4" class="st2" width="1" height="1"/>
			<rect x="7" y="20" class="st2" width="1" height="1"/>
			<rect x="7" y="19" class="st2" width="1" height="1"/>
			<rect x="7" y="18" class="st2" width="1" height="1"/>
			<rect x="7" y="17" class="st2" width="1" height="1"/>
			<rect x="7" y="16" class="st2" width="1" height="1"/>
			<rect x="7" y="15" class="st2" width="1" height="1"/>
			<rect x="7" y="14" class="st2" width="1" height="1"/>
			<rect x="7" y="13" class="st2" width="1" height="1"/>
			<rect x="7" y="12" class="st2" width="1" height="1"/>
			<rect x="7" y="10" class="st2" width="1" height="1"/>
			<rect x="7" y="9" class="st2" width="1" height="1"/>
			<rect x="7" y="8" class="st2" width="1" height="1"/>
			<rect x="7" y="7" class="st2" width="1" height="1"/>
			<rect x="7" y="6" class="st2" width="1" height="1"/>
			<rect x="7" y="5" class="st2" width="1" height="1"/>
			<rect x="7" y="4" class="st2" width="1" height="1"/>
			<rect x="6" y="20" class="st2" width="1" height="1"/>
			<rect x="6" y="19" class="st2" width="1" height="1"/>
			<rect x="6" y="18" class="st2" width="1" height="1"/>
			<rect x="6" y="17" class="st2" width="1" height="1"/>
			<rect x="6" y="16" class="st2" width="1" height="1"/>
			<rect x="6" y="15" class="st2" width="1" height="1"/>
			<rect x="6" y="14" class="st2" width="1" height="1"/>
			<rect x="6" y="13" class="st2" width="1" height="1"/>
			<rect x="6" y="12" class="st2" width="1" height="1"/>
			<rect x="6" y="11" class="st2" width="1" height="1"/>
			<rect x="6" y="9" class="st2" width="1" height="1"/>
			<rect x="6" y="8" class="st2" width="1" height="1"/>
			<rect x="6" y="7" class="st2" width="1" height="1"/>
			<rect x="6" y="6" class="st2" width="1" height="1"/>
			<rect x="6" y="5" class="st2" width="1" height="1"/>
			<rect x="6" y="4" class="st2" width="1" height="1"/>
			<rect x="5" y="20" class="st2" width="1" height="1"/>
			<rect x="5" y="19" class="st2" width="1" height="1"/>
			<rect x="5" y="18" class="st2" width="1" height="1"/>
			<rect x="5" y="17" class="st2" width="1" height="1"/>
			<rect x="5" y="16" class="st2" width="1" height="1"/>
			<rect x="5" y="15" class="st2" width="1" height="1"/>
			<rect x="5" y="14" class="st2" width="1" height="1"/>
			<rect x="5" y="13" class="st2" width="1" height="1"/>
			<rect x="5" y="12" class="st2" width="1" height="1"/>
			<rect x="5" y="11" class="st2" width="1" height="1"/>
			<rect x="5" y="10" class="st2" width="1" height="1"/>
			<rect x="5" y="8" class="st2" width="1" height="1"/>
			<rect x="5" y="7" class="st2" width="1" height="1"/>
			<rect x="5" y="6" class="st2" width="1" height="1"/>
			<rect x="5" y="5" class="st2" width="1" height="1"/>
			<rect x="5" y="4" class="st2" width="1" height="1"/>
			<rect x="4" y="20" class="st2" width="1" height="1"/>
			<rect x="4" y="19" class="st2" width="1" height="1"/>
			<rect x="4" y="18" class="st2" width="1" height="1"/>
			<rect x="4" y="17" class="st2" width="1" height="1"/>
			<rect x="4" y="16" class="st2" width="1" height="1"/>
			<rect x="4" y="15" class="st2" width="1" height="1"/>
			<rect x="4" y="14" class="st2" width="1" height="1"/>
			<rect x="4" y="13" class="st2" width="1" height="1"/>
			<rect x="4" y="12" class="st2" width="1" height="1"/>
			<rect x="4" y="11" class="st2" width="1" height="1"/>
			<rect x="4" y="10" class="st2" width="1" height="1"/>
			<rect x="4" y="9" class="st2" width="1" height="1"/>
			<rect x="4" y="7" class="st2" width="1" height="1"/>
			<rect x="4" y="6" class="st2" width="1" height="1"/>
			<rect x="4" y="5" class="st2" width="1" height="1"/>
			<rect x="4" y="4" class="st2" width="1" height="1"/>
			<rect x="3" y="19" class="st2" width="1" height="1"/>
			<rect x="3" y="18" class="st2" width="1" height="1"/>
			<rect x="3" y="17" class="st2" width="1" height="1"/>
			<rect x="3" y="16" class="st2" width="1" height="1"/>
			<rect x="3" y="15" class="st2" width="1" height="1"/>
			<rect x="3" y="14" class="st2" width="1" height="1"/>
			<rect x="3" y="13" class="st2" width="1" height="1"/>
			<rect x="3" y="12" class="st2" width="1" height="1"/>
			<rect x="3" y="11" class="st2" width="1" height="1"/>
			<rect x="3" y="10" class="st2" width="1" height="1"/>
			<rect x="3" y="9" class="st2" width="1" height="1"/>
			<rect x="3" y="8" class="st2" width="1" height="1"/>
			<rect x="3" y="6" class="st2" width="1" height="1"/>
			<rect x="3" y="5" class="st2" width="1" height="1"/>
			<rect x="3" y="4" class="st2" width="1" height="1"/>
			<rect x="2" y="18" class="st2" width="1" height="1"/>
			<rect x="2" y="17" class="st2" width="1" height="1"/>
			<rect x="2" y="16" class="st2" width="1" height="1"/>
			<rect x="2" y="15" class="st2" width="1" height="1"/>
			<rect x="2" y="14" class="st2" width="1" height="1"/>
			<rect x="2" y="13" class="st2" width="1" height="1"/>
			<rect x="2" y="12" class="st2" width="1" height="1"/>
			<rect x="2" y="11" class="st2" width="1" height="1"/>
			<rect x="2" y="10" class="st2" width="1" height="1"/>
			<rect x="2" y="9" class="st2" width="1" height="1"/>
			<rect x="2" y="8" class="st2" width="1" height="1"/>
			<rect x="2" y="5" class="st2" width="1" height="1"/>
			<rect x="2" y="4" class="st2" width="1" height="1"/>
			<rect x="1" y="17" class="st2" width="1" height="1"/>
			<rect x="1" y="16" class="st2" width="1" height="1"/>
			<rect x="1" y="15" class="st2" width="1" height="1"/>
			<rect x="1" y="14" class="st2" width="1" height="1"/>
			<rect x="1" y="13" class="st2" width="1" height="1"/>
			<rect x="1" y="12" class="st2" width="1" height="1"/>
			<rect x="1" y="11" class="st2" width="1" height="1"/>
			<rect x="1" y="10" class="st2" width="1" height="1"/>
			<rect x="1" y="9" class="st2" width="1" height="1"/>
			<rect x="1" y="8" class="st2" width="1" height="1"/>
			<rect x="1" y="5" class="st2" width="1" height="1"/>
			<rect x="1" y="4" class="st2" width="1" height="1"/>
		</g>
	</g>
</g>
<g>
	<g id="XMLID_2_">
		<rect x="20" y="15" class="st2" width="1" height="1"/>
		<rect x="20" y="14" class="st2" width="1" height="1"/>
		<rect x="20" y="13" class="st2" width="1" height="1"/>
		<rect x="20" y="12" class="st2" width="1" height="1"/>
		<rect x="20" y="11" class="st2" width="1" height="1"/>
		<rect x="20" y="10" class="st2" width="1" height="1"/>
		<rect x="20" y="9" class="st2" width="1" height="1"/>
		<rect x="20" y="8" class="st2" width="1" height="1"/>
		<rect x="19" y="16" class="st2" width="1" height="1"/>
		<rect x="19" y="15" class="st2" width="1" height="1"/>
		<rect x="19" y="14" class="st2" width="1" height="1"/>
		<rect x="19" y="13" class="st2" width="1" height="1"/>
		<rect x="19" y="12" class="st2" width="1" height="1"/>
		<rect x="19" y="11" class="st2" width="1" height="1"/>
		<rect x="19" y="10" class="st2" width="1" height="1"/>
		<rect x="19" y="9" class="st2" width="1" height="1"/>
		<rect x="19" y="8" class="st2" width="1" height="1"/>
		<rect x="19" y="7" class="st2" width="1" height="1"/>
		<rect x="19" y="6" class="st2" width="1" height="1"/>
		<rect x="18" y="16" class="st2" width="1" height="1"/>
		<rect x="18" y="15" class="st2" width="1" height="1"/>
		<rect x="18" y="6" class="st2" width="1" height="1"/>
		<rect x="18" y="5" class="st2" width="1" height="1"/>
		<rect x="17" y="16" class="st2" width="1" height="1"/>
		<rect x="17" y="15" class="st2" width="1" height="1"/>
		<rect x="17" y="5" class="st2" width="1" height="1"/>
		<rect x="17" y="4" class="st2" width="1" height="1"/>
		<rect x="16" y="20" class="st2" width="1" height="1"/>
		<rect x="16" y="19" class="st2" width="1" height="1"/>
		<rect x="16" y="16" class="st2" width="1" height="1"/>
		<rect x="16" y="15" class="st2" width="1" height="1"/>
		<rect x="16" y="4" class="st2" width="1" height="1"/>
		<rect x="15" y="20" class="st2" width="1" height="1"/>
		<rect x="15" y="19" class="st2" width="1" height="1"/>
		<rect x="15" y="16" class="st2" width="1" height="1"/>
		<rect x="15" y="15" class="st2" width="1" height="1"/>
		<rect x="15" y="4" class="st2" width="1" height="1"/>
		<rect x="15" y="3" class="st2" width="1" height="1"/>
		<rect x="14" y="20" class="st2" width="1" height="1"/>
		<rect x="14" y="19" class="st2" width="1" height="1"/>
		<rect x="14" y="16" class="st2" width="1" height="1"/>
		<rect x="14" y="15" class="st2" width="1" height="1"/>
		<rect x="14" y="14" class="st2" width="1" height="1"/>
		<rect x="14" y="13" class="st2" width="1" height="1"/>
		<rect x="14" y="12" class="st2" width="1" height="1"/>
		<rect x="14" y="11" class="st2" width="1" height="1"/>
		<rect x="14" y="10" class="st2" width="1" height="1"/>
		<rect x="14" y="9" class="st2" width="1" height="1"/>
		<rect x="14" y="8" class="st2" width="1" height="1"/>
		<rect x="14" y="7" class="st2" width="1" height="1"/>
		<rect x="14" y="4" class="st2" width="1" height="1"/>
		<rect x="14" y="3" class="st2" width="1" height="1"/>
		<rect x="13" y="20" class="st2" width="1" height="1"/>
		<rect x="13" y="19" class="st2" width="1" height="1"/>
		<rect x="13" y="15" class="st2" width="1" height="1"/>
		<rect x="13" y="14" class="st2" width="1" height="1"/>
		<rect x="13" y="13" class="st2" width="1" height="1"/>
		<rect x="13" y="12" class="st2" width="1" height="1"/>
		<rect x="13" y="11" class="st2" width="1" height="1"/>
		<rect x="13" y="10" class="st2" width="1" height="1"/>
		<rect x="13" y="9" class="st2" width="1" height="1"/>
		<rect x="13" y="8" class="st2" width="1" height="1"/>
		<rect x="13" y="7" class="st2" width="1" height="1"/>
		<rect x="13" y="4" class="st2" width="1" height="1"/>
		<rect x="13" y="3" class="st2" width="1" height="1"/>
		<rect x="12" y="20" class="st2" width="1" height="1"/>
		<rect x="12" y="19" class="st2" width="1" height="1"/>
		<rect x="12" y="16" class="st2" width="1" height="1"/>
		<rect x="12" y="15" class="st2" width="1" height="1"/>
		<rect x="12" y="8" class="st2" width="1" height="1"/>
		<rect x="12" y="7" class="st2" width="1" height="1"/>
		<rect x="12" y="4" class="st2" width="1" height="1"/>
		<rect x="12" y="3" class="st2" width="1" height="1"/>
		<rect x="11" y="20" class="st2" width="1" height="1"/>
		<rect x="11" y="19" class="st2" width="1" height="1"/>
		<rect x="11" y="16" class="st2" width="1" height="1"/>
		<rect x="11" y="15" class="st2" width="1" height="1"/>
		<rect x="11" y="8" class="st2" width="1" height="1"/>
		<rect x="11" y="7" class="st2" width="1" height="1"/>
		<rect x="11" y="4" class="st2" width="1" height="1"/>
		<rect x="11" y="3" class="st2" width="1" height="1"/>
		<rect x="10" y="20" class="st2" width="1" height="1"/>
		<rect x="10" y="19" class="st2" width="1" height="1"/>
		<rect x="10" y="16" class="st2" width="1" height="1"/>
		<rect x="10" y="15" class="st2" width="1" height="1"/>
		<rect x="10" y="8" class="st2" width="1" height="1"/>
		<rect x="10" y="7" class="st2" width="1" height="1"/>
		<rect x="10" y="4" class="st2" width="1" height="1"/>
		<rect x="10" y="3" class="st2" width="1" height="1"/>
		<rect x="9" y="20" class="st2" width="1" height="1"/>
		<rect x="9" y="19" class="st2" width="1" height="1"/>
		<rect x="9" y="16" class="st2" width="1" height="1"/>
		<rect x="9" y="15" class="st2" width="1" height="1"/>
		<rect x="9" y="8" class="st2" width="1" height="1"/>
		<rect x="9" y="7" class="st2" width="1" height="1"/>
		<rect x="9" y="4" class="st2" width="1" height="1"/>
		<rect x="9" y="3" class="st2" width="1" height="1"/>
		<rect x="8" y="19" class="st2" width="1" height="1"/>
		<rect x="8" y="15" class="st2" width="1" height="1"/>
		<rect x="8" y="14" class="st2" width="1" height="1"/>
		<rect x="8" y="13" class="st2" width="1" height="1"/>
		<rect x="8" y="12" class="st2" width="1" height="1"/>
		<rect x="8" y="11" class="st2" width="1" height="1"/>
		<rect x="8" y="10" class="st2" width="1" height="1"/>
		<rect x="8" y="9" class="st2" width="1" height="1"/>
		<rect x="8" y="8" class="st2" width="1" height="1"/>
		<rect x="8" y="4" class="st2" width="1" height="1"/>
		<rect x="8" y="3" class="st2" width="1" height="1"/>
		<rect x="7" y="19" class="st2" width="1" height="1"/>
		<rect x="7" y="13" class="st2" width="1" height="1"/>
		<rect x="7" y="12" class="st2" width="1" height="1"/>
		<rect x="7" y="11" class="st2" width="1" height="1"/>
		<rect x="7" y="10" class="st2" width="1" height="1"/>
		<rect x="7" y="9" class="st2" width="1" height="1"/>
		<rect x="7" y="4" class="st2" width="1" height="1"/>
		<rect x="6" y="19" class="st2" width="1" height="1"/>
		<rect x="6" y="18" class="st2" width="1" height="1"/>
		<rect x="6" y="5" class="st2" width="1" height="1"/>
		<rect x="6" y="4" class="st2" width="1" height="1"/>
		<rect x="5" y="18" class="st2" width="1" height="1"/>
		<rect x="5" y="17" class="st2" width="1" height="1"/>
		<rect x="5" y="6" class="st2" width="1" height="1"/>
		<rect x="5" y="5" class="st2" width="1" height="1"/>
		<rect x="4" y="17" class="st2" width="1" height="1"/>
		<rect x="4" y="16" class="st2" width="1" height="1"/>
		<rect x="4" y="15" class="st2" width="1" height="1"/>
		<rect x="4" y="14" class="st2" width="1" height="1"/>
		<rect x="4" y="13" class="st2" width="1" height="1"/>
		<rect x="4" y="12" class="st2" width="1" height="1"/>
		<rect x="4" y="11" class="st2" width="1" height="1"/>
		<rect x="4" y="10" class="st2" width="1" height="1"/>
		<rect x="4" y="9" class="st2" width="1" height="1"/>
		<rect x="4" y="8" class="st2" width="1" height="1"/>
		<rect x="4" y="7" class="st2" width="1" height="1"/>
		<rect x="4" y="6" class="st2" width="1" height="1"/>
		<rect x="3" y="15" class="st2" width="1" height="1"/>
		<rect x="3" y="14" class="st2" width="1" height="1"/>
		<rect x="3" y="13" class="st2" width="1" height="1"/>
		<rect x="3" y="12" class="st2" width="1" height="1"/>
		<rect x="3" y="11" class="st2" width="1" height="1"/>
		<rect x="3" y="10" class="st2" width="1" height="1"/>
		<rect x="3" y="9" class="st2" width="1" height="1"/>
		<rect x="3" y="8" class="st2" width="1" height="1"/>
	</g>
</g>
</svg>
