<svg xmlns="http://www.w3.org/2000/svg" viewBox="0 0 19.2 24"><defs><style>.cls-1{fill:#fff8e2;}</style></defs><g id="Layer_2" data-name="Layer 2"><g id="Layer_1-2" data-name="Layer 1"><rect class="cls-1" x="3.6" y="4.8" width="1.2" height="1.2"/><rect class="cls-1" x="16.8" y="4.8" width="1.2" height="1.2"/><rect class="cls-1" x="15.6" y="4.8" width="1.2" height="1.2"/><rect class="cls-1" x="14.4" y="4.8" width="1.2" height="1.2"/><rect class="cls-1" x="13.2" y="4.8" width="1.2" height="1.2"/><rect class="cls-1" x="12" y="4.8" width="1.2" height="1.2"/><rect class="cls-1" x="10.8" y="4.8" width="1.2" height="1.2"/><rect class="cls-1" x="9.6" y="4.8" width="1.2" height="1.2"/><rect class="cls-1" x="8.4" y="4.8" width="1.2" height="1.2"/><rect class="cls-1" x="7.2" y="4.8" width="1.2" height="1.2"/><rect class="cls-1" x="6" y="4.8" width="1.2" height="1.2"/><rect class="cls-1" x="4.8" y="4.8" width="1.2" height="1.2"/><rect class="cls-1" x="2.4" y="7.2" width="1.2" height="1.2"/><rect class="cls-1" x="3.6" y="7.2" width="1.2" height="1.2"/><rect class="cls-1" x="18" y="7.2" width="1.2" height="1.2"/><rect class="cls-1" x="16.8" y="7.2" width="1.2" height="1.2"/><rect class="cls-1" x="15.6" y="7.2" width="1.2" height="1.2"/><rect class="cls-1" x="14.4" y="7.2" width="1.2" height="1.2"/><rect class="cls-1" x="13.2" y="7.2" width="1.2" height="1.2"/><rect class="cls-1" x="12" y="7.2" width="1.2" height="1.2"/><rect class="cls-1" x="10.8" y="7.2" width="1.2" height="1.2"/><rect class="cls-1" x="9.6" y="7.2" width="1.2" height="1.2"/><rect class="cls-1" x="8.4" y="7.2" width="1.2" height="1.2"/><rect class="cls-1" x="7.2" y="7.2" width="1.2" height="1.2"/><rect class="cls-1" x="6" y="7.2" width="1.2" height="1.2"/><rect class="cls-1" x="4.8" y="7.2" width="1.2" height="1.2"/><rect class="cls-1" x="12" y="21.6" width="1.2" height="1.2"/><rect class="cls-1" x="10.8" y="21.6" width="1.2" height="1.2"/><rect class="cls-1" x="9.6" y="21.6" width="1.2" height="1.2"/><rect class="cls-1" x="8.4" y="21.6" width="1.2" height="1.2"/><rect class="cls-1" x="3.6" width="1.2" height="1.2"/><rect class="cls-1" x="16.8" width="1.2" height="1.2"/><rect class="cls-1" x="2.4" y="16.8" width="1.2" height="1.2"/><rect class="cls-1" x="12" y="16.8" width="1.2" height="1.2"/><rect class="cls-1" x="10.8" y="16.8" width="1.2" height="1.2"/><rect class="cls-1" x="9.6" y="16.8" width="1.2" height="1.2"/><rect class="cls-1" x="8.4" y="16.8" width="1.2" height="1.2"/><rect class="cls-1" x="3.6" y="12" width="1.2" height="1.2"/><rect class="cls-1" x="16.8" y="12" width="1.2" height="1.2"/><rect class="cls-1" x="15.6" y="12" width="1.2" height="1.2"/><rect class="cls-1" x="14.4" y="12" width="1.2" height="1.2"/><rect class="cls-1" x="13.2" y="12" width="1.2" height="1.2"/><rect class="cls-1" x="12" y="12" width="1.2" height="1.2"/><rect class="cls-1" x="10.8" y="12" width="1.2" height="1.2"/><rect class="cls-1" x="9.6" y="12" width="1.2" height="1.2"/><rect class="cls-1" x="8.4" y="12" width="1.2" height="1.2"/><rect class="cls-1" x="7.2" y="12" width="1.2" height="1.2"/><rect class="cls-1" x="6" y="12" width="1.2" height="1.2"/><rect class="cls-1" x="4.8" y="12" width="1.2" height="1.2"/><rect class="cls-1" x="3.6" y="2.4" width="1.2" height="1.2"/><rect class="cls-1" x="16.8" y="2.4" width="1.2" height="1.2"/><rect class="cls-1" x="15.6" y="2.4" width="1.2" height="1.2"/><rect class="cls-1" x="14.4" y="2.4" width="1.2" height="1.2"/><rect class="cls-1" x="13.2" y="2.4" width="1.2" height="1.2"/><rect class="cls-1" x="12" y="2.4" width="1.2" height="1.2"/><rect class="cls-1" x="10.8" y="2.4" width="1.2" height="1.2"/><rect class="cls-1" x="9.6" y="2.4" width="1.2" height="1.2"/><rect class="cls-1" x="8.4" y="2.4" width="1.2" height="1.2"/><rect class="cls-1" x="7.2" y="2.4" width="1.2" height="1.2"/><rect class="cls-1" x="6" y="2.4" width="1.2" height="1.2"/><rect class="cls-1" x="4.8" y="2.4" width="1.2" height="1.2"/><rect class="cls-1" x="12" y="22.8" width="1.2" height="1.2"/><rect class="cls-1" x="10.8" y="22.8" width="1.2" height="1.2"/><rect class="cls-1" x="9.6" y="22.8" width="1.2" height="1.2"/><rect class="cls-1" x="8.4" y="22.8" width="1.2" height="1.2"/><rect class="cls-1" x="3.6" y="18" width="1.2" height="1.2"/><rect class="cls-1" x="12" y="18" width="1.2" height="1.2"/><rect class="cls-1" x="10.8" y="18" width="1.2" height="1.2"/><rect class="cls-1" x="9.6" y="18" width="1.2" height="1.2"/><rect class="cls-1" x="8.4" y="18" width="1.2" height="1.2"/><rect class="cls-1" x="7.2" y="18" width="1.2" height="1.2"/><rect class="cls-1" x="15.6" y="13.2" width="1.2" height="1.2"/><rect class="cls-1" x="14.4" y="13.2" width="1.2" height="1.2"/><rect class="cls-1" x="13.2" y="13.2" width="1.2" height="1.2"/><rect class="cls-1" x="12" y="13.2" width="1.2" height="1.2"/><rect class="cls-1" x="10.8" y="13.2" width="1.2" height="1.2"/><rect class="cls-1" x="9.6" y="13.2" width="1.2" height="1.2"/><rect class="cls-1" x="8.4" y="13.2" width="1.2" height="1.2"/><rect class="cls-1" x="7.2" y="13.2" width="1.2" height="1.2"/><rect class="cls-1" x="6" y="13.2" width="1.2" height="1.2"/><rect class="cls-1" x="4.8" y="13.2" width="1.2" height="1.2"/><rect class="cls-1" x="2.4" y="9.6" width="1.2" height="1.2"/><rect class="cls-1" x="3.6" y="9.6" width="1.2" height="1.2"/><rect class="cls-1" x="18" y="9.6" width="1.2" height="1.2"/><rect class="cls-1" x="16.8" y="9.6" width="1.2" height="1.2"/><rect class="cls-1" x="15.6" y="9.6" width="1.2" height="1.2"/><rect class="cls-1" x="14.4" y="9.6" width="1.2" height="1.2"/><rect class="cls-1" x="13.2" y="9.6" width="1.2" height="1.2"/><rect class="cls-1" x="12" y="9.6" width="1.2" height="1.2"/><rect class="cls-1" x="10.8" y="9.6" width="1.2" height="1.2"/><rect class="cls-1" x="9.6" y="9.6" width="1.2" height="1.2"/><rect class="cls-1" x="8.4" y="9.6" width="1.2" height="1.2"/><rect class="cls-1" x="7.2" y="9.6" width="1.2" height="1.2"/><rect class="cls-1" x="6" y="9.6" width="1.2" height="1.2"/><rect class="cls-1" x="4.8" y="9.6" width="1.2" height="1.2"/><rect class="cls-1" x="2.4" y="6" width="1.2" height="1.2"/><rect class="cls-1" x="3.6" y="6" width="1.2" height="1.2"/><rect class="cls-1" x="18" y="6" width="1.2" height="1.2"/><rect class="cls-1" x="16.8" y="6" width="1.2" height="1.2"/><rect class="cls-1" x="15.6" y="6" width="1.2" height="1.2"/><rect class="cls-1" x="14.4" y="6" width="1.2" height="1.2"/><rect class="cls-1" x="13.2" y="6" width="1.2" height="1.2"/><rect class="cls-1" x="12" y="6" width="1.2" height="1.2"/><rect class="cls-1" x="10.8" y="6" width="1.2" height="1.2"/><rect class="cls-1" x="9.6" y="6" width="1.2" height="1.2"/><rect class="cls-1" x="8.4" y="6" width="1.2" height="1.2"/><rect class="cls-1" x="7.2" y="6" width="1.2" height="1.2"/><rect class="cls-1" x="6" y="6" width="1.2" height="1.2"/><rect class="cls-1" x="4.8" y="6" width="1.2" height="1.2"/><rect class="cls-1" x="12" y="19.2" width="1.2" height="1.2"/><rect class="cls-1" x="10.8" y="19.2" width="1.2" height="1.2"/><rect class="cls-1" x="9.6" y="19.2" width="1.2" height="1.2"/><rect class="cls-1" x="8.4" y="19.2" width="1.2" height="1.2"/><rect class="cls-1" x="7.2" y="19.2" width="1.2" height="1.2"/><rect class="cls-1" x="6" y="19.2" width="1.2" height="1.2"/><rect class="cls-1" x="4.8" y="19.2" width="1.2" height="1.2"/><rect class="cls-1" x="2.4" y="8.4" width="1.2" height="1.2"/><rect class="cls-1" x="3.6" y="8.4" width="1.2" height="1.2"/><rect class="cls-1" x="18" y="8.4" width="1.2" height="1.2"/><rect class="cls-1" x="16.8" y="8.4" width="1.2" height="1.2"/><rect class="cls-1" x="15.6" y="8.4" width="1.2" height="1.2"/><rect class="cls-1" x="14.4" y="8.4" width="1.2" height="1.2"/><rect class="cls-1" x="13.2" y="8.4" width="1.2" height="1.2"/><rect class="cls-1" x="12" y="8.4" width="1.2" height="1.2"/><rect class="cls-1" x="10.8" y="8.4" width="1.2" height="1.2"/><rect class="cls-1" x="9.6" y="8.4" width="1.2" height="1.2"/><rect class="cls-1" x="8.4" y="8.4" width="1.2" height="1.2"/><rect class="cls-1" x="7.2" y="8.4" width="1.2" height="1.2"/><rect class="cls-1" x="6" y="8.4" width="1.2" height="1.2"/><rect class="cls-1" x="4.8" y="8.4" width="1.2" height="1.2"/><rect class="cls-1" y="14.4" width="1.2" height="1.2"/><rect class="cls-1" x="13.2" y="14.4" width="1.2" height="1.2"/><rect class="cls-1" x="12" y="14.4" width="1.2" height="1.2"/><rect class="cls-1" x="10.8" y="14.4" width="1.2" height="1.2"/><rect class="cls-1" x="9.6" y="14.4" width="1.2" height="1.2"/><rect class="cls-1" x="8.4" y="14.4" width="1.2" height="1.2"/><rect class="cls-1" x="7.2" y="14.4" width="1.2" height="1.2"/><rect class="cls-1" x="3.6" y="1.2" width="1.2" height="1.2"/><rect class="cls-1" x="16.8" y="1.2" width="1.2" height="1.2"/><rect class="cls-1" x="15.6" y="1.2" width="1.2" height="1.2"/><rect class="cls-1" x="4.8" y="1.2" width="1.2" height="1.2"/><rect class="cls-1" x="3.6" y="3.6" width="1.2" height="1.2"/><rect class="cls-1" x="16.8" y="3.6" width="1.2" height="1.2"/><rect class="cls-1" x="15.6" y="3.6" width="1.2" height="1.2"/><rect class="cls-1" x="14.4" y="3.6" width="1.2" height="1.2"/><rect class="cls-1" x="13.2" y="3.6" width="1.2" height="1.2"/><rect class="cls-1" x="12" y="3.6" width="1.2" height="1.2"/><rect class="cls-1" x="10.8" y="3.6" width="1.2" height="1.2"/><rect class="cls-1" x="9.6" y="3.6" width="1.2" height="1.2"/><rect class="cls-1" x="8.4" y="3.6" width="1.2" height="1.2"/><rect class="cls-1" x="7.2" y="3.6" width="1.2" height="1.2"/><rect class="cls-1" x="6" y="3.6" width="1.2" height="1.2"/><rect class="cls-1" x="4.8" y="3.6" width="1.2" height="1.2"/><rect class="cls-1" x="12" y="20.4" width="1.2" height="1.2"/><rect class="cls-1" x="10.8" y="20.4" width="1.2" height="1.2"/><rect class="cls-1" x="9.6" y="20.4" width="1.2" height="1.2"/><rect class="cls-1" x="8.4" y="20.4" width="1.2" height="1.2"/><rect class="cls-1" x="1.2" y="15.6" width="1.2" height="1.2"/><rect class="cls-1" x="10.8" y="15.6" width="1.2" height="1.2"/><rect class="cls-1" x="9.6" y="15.6" width="1.2" height="1.2"/><rect class="cls-1" x="2.4" y="10.8" width="1.2" height="1.2"/><rect class="cls-1" x="3.6" y="10.8" width="1.2" height="1.2"/><rect class="cls-1" x="18" y="10.8" width="1.2" height="1.2"/><rect class="cls-1" x="16.8" y="10.8" width="1.2" height="1.2"/><rect class="cls-1" x="15.6" y="10.8" width="1.2" height="1.2"/><rect class="cls-1" x="14.4" y="10.8" width="1.2" height="1.2"/><rect class="cls-1" x="13.2" y="10.8" width="1.2" height="1.2"/><rect class="cls-1" x="12" y="10.8" width="1.2" height="1.2"/><rect class="cls-1" x="10.8" y="10.8" width="1.2" height="1.2"/><rect class="cls-1" x="9.6" y="10.8" width="1.2" height="1.2"/><rect class="cls-1" x="8.4" y="10.8" width="1.2" height="1.2"/><rect class="cls-1" x="7.2" y="10.8" width="1.2" height="1.2"/><rect class="cls-1" x="6" y="10.8" width="1.2" height="1.2"/><rect class="cls-1" x="4.8" y="10.8" width="1.2" height="1.2"/></g></g></svg>