<?xml version="1.0" encoding="utf-8"?>
<!-- Generator: Adobe Illustrator 24.2.3, SVG Export Plug-In . SVG Version: 6.00 Build 0)  -->
<svg version="1.1" id="Layer_1" xmlns="http://www.w3.org/2000/svg" xmlns:xlink="http://www.w3.org/1999/xlink" x="0px" y="0px"
	 viewBox="0 0 24 24" style="enable-background:new 0 0 24 24;" xml:space="preserve">
<style type="text/css">
	.st0{display:none;}
	.st1{fill:#FFF8E2;}
</style>
<g>
	<g id="XMLID_1_">
		<rect x="13.8" y="9.4" class="st1" width="1" height="1"/>
		<rect x="18.8" y="10.4" class="st1" width="1" height="1"/>
		<rect x="5.8" y="13.4" class="st1" width="1" height="1"/>
		<rect x="3.8" y="13.4" class="st1" width="1" height="1"/>
		<rect x="4.8" y="13.4" class="st1" width="1" height="1"/>
		<rect x="9.8" y="13.4" class="st1" width="1" height="1"/>
		<rect x="10.8" y="13.4" class="st1" width="1" height="1"/>
		<rect x="11.8" y="13.4" class="st1" width="1" height="1"/>
		<rect x="18.8" y="13.4" class="st1" width="1" height="1"/>
		<rect x="17.8" y="13.4" class="st1" width="1" height="1"/>
		<rect x="16.8" y="13.4" class="st1" width="1" height="1"/>
		<rect x="5.8" y="9.4" class="st1" width="1" height="1"/>
		<rect x="3.8" y="9.4" class="st1" width="1" height="1"/>
		<rect x="4.8" y="9.4" class="st1" width="1" height="1"/>
		<rect x="9.8" y="9.4" class="st1" width="1" height="1"/>
		<rect x="10.8" y="9.4" class="st1" width="1" height="1"/>
		<rect x="14.8" y="9.4" class="st1" width="1" height="1"/>
		<rect x="11.8" y="9.4" class="st1" width="1" height="1"/>
		<rect x="17.8" y="9.4" class="st1" width="1" height="1"/>
		<rect x="16.8" y="9.4" class="st1" width="1" height="1"/>
		<rect x="15.8" y="9.4" class="st1" width="1" height="1"/>
		<rect x="5.8" y="4.4" class="st1" width="1" height="1"/>
		<rect x="3.8" y="4.4" class="st1" width="1" height="1"/>
		<rect x="4.8" y="4.4" class="st1" width="1" height="1"/>
		<rect x="5.8" y="17.4" class="st1" width="1" height="1"/>
		<rect x="3.8" y="17.4" class="st1" width="1" height="1"/>
		<rect x="4.8" y="17.4" class="st1" width="1" height="1"/>
		<rect x="9.8" y="17.4" class="st1" width="1" height="1"/>
		<rect x="10.8" y="17.4" class="st1" width="1" height="1"/>
		<rect x="11.8" y="17.4" class="st1" width="1" height="1"/>
		<rect x="18.8" y="17.4" class="st1" width="1" height="1"/>
		<rect x="17.8" y="17.4" class="st1" width="1" height="1"/>
		<rect x="16.8" y="17.4" class="st1" width="1" height="1"/>
		<rect x="5.8" y="12.4" class="st1" width="1" height="1"/>
		<rect x="3.8" y="12.4" class="st1" width="1" height="1"/>
		<rect x="4.8" y="12.4" class="st1" width="1" height="1"/>
		<rect x="9.8" y="12.4" class="st1" width="1" height="1"/>
		<rect x="10.8" y="12.4" class="st1" width="1" height="1"/>
		<rect x="11.8" y="12.4" class="st1" width="1" height="1"/>
		<rect x="18.8" y="12.4" class="st1" width="1" height="1"/>
		<rect x="17.8" y="12.4" class="st1" width="1" height="1"/>
		<rect x="16.8" y="12.4" class="st1" width="1" height="1"/>
		<rect x="5.8" y="5.4" class="st1" width="1" height="1"/>
		<rect x="3.8" y="5.4" class="st1" width="1" height="1"/>
		<rect x="4.8" y="5.4" class="st1" width="1" height="1"/>
		<rect x="5.8" y="16.4" class="st1" width="1" height="1"/>
		<rect x="3.8" y="16.4" class="st1" width="1" height="1"/>
		<rect x="4.8" y="16.4" class="st1" width="1" height="1"/>
		<rect x="9.8" y="16.4" class="st1" width="1" height="1"/>
		<rect x="10.8" y="16.4" class="st1" width="1" height="1"/>
		<rect x="11.8" y="16.4" class="st1" width="1" height="1"/>
		<rect x="18.8" y="16.4" class="st1" width="1" height="1"/>
		<rect x="17.8" y="16.4" class="st1" width="1" height="1"/>
		<rect x="16.8" y="16.4" class="st1" width="1" height="1"/>
		<rect x="5.8" y="11.4" class="st1" width="1" height="1"/>
		<rect x="3.8" y="11.4" class="st1" width="1" height="1"/>
		<rect x="4.8" y="11.4" class="st1" width="1" height="1"/>
		<rect x="9.8" y="11.4" class="st1" width="1" height="1"/>
		<rect x="10.8" y="11.4" class="st1" width="1" height="1"/>
		<rect x="11.8" y="11.4" class="st1" width="1" height="1"/>
		<rect x="12.8" y="11.4" class="st1" width="1" height="1"/>
		<rect x="18.8" y="11.4" class="st1" width="1" height="1"/>
		<rect x="17.8" y="11.4" class="st1" width="1" height="1"/>
		<rect x="16.8" y="11.4" class="st1" width="1" height="1"/>
		<rect x="15.8" y="11.4" class="st1" width="1" height="1"/>
		<rect x="5.8" y="19.4" class="st1" width="1" height="1"/>
		<rect x="3.8" y="19.4" class="st1" width="1" height="1"/>
		<rect x="4.8" y="19.4" class="st1" width="1" height="1"/>
		<rect x="9.8" y="19.4" class="st1" width="1" height="1"/>
		<rect x="10.8" y="19.4" class="st1" width="1" height="1"/>
		<rect x="11.8" y="19.4" class="st1" width="1" height="1"/>
		<rect x="18.8" y="19.4" class="st1" width="1" height="1"/>
		<rect x="17.8" y="19.4" class="st1" width="1" height="1"/>
		<rect x="16.8" y="19.4" class="st1" width="1" height="1"/>
		<rect x="5.8" y="15.4" class="st1" width="1" height="1"/>
		<rect x="3.8" y="15.4" class="st1" width="1" height="1"/>
		<rect x="4.8" y="15.4" class="st1" width="1" height="1"/>
		<rect x="9.8" y="15.4" class="st1" width="1" height="1"/>
		<rect x="10.8" y="15.4" class="st1" width="1" height="1"/>
		<rect x="11.8" y="15.4" class="st1" width="1" height="1"/>
		<rect x="18.8" y="15.4" class="st1" width="1" height="1"/>
		<rect x="17.8" y="15.4" class="st1" width="1" height="1"/>
		<rect x="16.8" y="15.4" class="st1" width="1" height="1"/>
		<rect x="5.8" y="10.4" class="st1" width="1" height="1"/>
		<rect x="3.8" y="10.4" class="st1" width="1" height="1"/>
		<rect x="4.8" y="10.4" class="st1" width="1" height="1"/>
		<rect x="9.8" y="10.4" class="st1" width="1" height="1"/>
		<rect x="10.8" y="10.4" class="st1" width="1" height="1"/>
		<rect x="13.8" y="10.4" class="st1" width="1" height="1"/>
		<rect x="14.8" y="10.4" class="st1" width="1" height="1"/>
		<rect x="11.8" y="10.4" class="st1" width="1" height="1"/>
		<rect x="12.8" y="10.4" class="st1" width="1" height="1"/>
		<rect x="17.8" y="10.4" class="st1" width="1" height="1"/>
		<rect x="16.8" y="10.4" class="st1" width="1" height="1"/>
		<rect x="15.8" y="10.4" class="st1" width="1" height="1"/>
		<rect x="5.8" y="6.4" class="st1" width="1" height="1"/>
		<rect x="3.8" y="6.4" class="st1" width="1" height="1"/>
		<rect x="4.8" y="6.4" class="st1" width="1" height="1"/>
		<rect x="5.8" y="18.4" class="st1" width="1" height="1"/>
		<rect x="3.8" y="18.4" class="st1" width="1" height="1"/>
		<rect x="4.8" y="18.4" class="st1" width="1" height="1"/>
		<rect x="9.8" y="18.4" class="st1" width="1" height="1"/>
		<rect x="10.8" y="18.4" class="st1" width="1" height="1"/>
		<rect x="11.8" y="18.4" class="st1" width="1" height="1"/>
		<rect x="18.8" y="18.4" class="st1" width="1" height="1"/>
		<rect x="17.8" y="18.4" class="st1" width="1" height="1"/>
		<rect x="16.8" y="18.4" class="st1" width="1" height="1"/>
		<rect x="5.8" y="14.4" class="st1" width="1" height="1"/>
		<rect x="3.8" y="14.4" class="st1" width="1" height="1"/>
		<rect x="4.8" y="14.4" class="st1" width="1" height="1"/>
		<rect x="9.8" y="14.4" class="st1" width="1" height="1"/>
		<rect x="10.8" y="14.4" class="st1" width="1" height="1"/>
		<rect x="11.8" y="14.4" class="st1" width="1" height="1"/>
		<rect x="18.8" y="14.4" class="st1" width="1" height="1"/>
		<rect x="17.8" y="14.4" class="st1" width="1" height="1"/>
		<rect x="16.8" y="14.4" class="st1" width="1" height="1"/>
	</g>
</g>
</svg>
