<svg xmlns="http://www.w3.org/2000/svg" viewBox="0 0 18.53 16"><defs><style>.cls-1{fill:#fff8e2;}</style></defs><g id="Layer_2" data-name="Layer 2"><g id="Logo_FIXED" data-name="Logo FIXED"><rect class="cls-1" x="15.16" y="5.05" width="0.84" height="0.84"/><rect class="cls-1" x="16" y="5.05" width="0.84" height="0.84"/><rect class="cls-1" x="13.47" y="5.05" width="0.84" height="0.84"/><rect class="cls-1" x="14.32" y="5.05" width="0.84" height="0.84"/><rect class="cls-1" x="11.79" y="5.05" width="0.84" height="0.84"/><rect class="cls-1" x="12.63" y="5.05" width="0.84" height="0.84"/><rect class="cls-1" x="10.11" y="5.05" width="0.84" height="0.84"/><rect class="cls-1" x="10.95" y="5.05" width="0.84" height="0.84"/><rect class="cls-1" x="9.26" y="5.05" width="0.84" height="0.84"/><rect class="cls-1" x="0.84" y="5.05" width="0.84" height="0.84"/><rect class="cls-1" x="1.68" y="5.05" width="0.84" height="0.84"/><rect class="cls-1" x="2.53" y="5.05" width="0.84" height="0.84"/><rect class="cls-1" x="3.37" y="5.05" width="0.84" height="0.84"/><rect class="cls-1" x="4.21" y="5.05" width="0.84" height="0.84"/><rect class="cls-1" x="5.05" y="5.05" width="0.84" height="0.84"/><rect class="cls-1" x="5.89" y="5.05" width="0.84" height="0.84"/><rect class="cls-1" x="6.74" y="5.05" width="0.84" height="0.84"/><rect class="cls-1" x="7.58" y="5.05" width="0.84" height="0.84"/><rect class="cls-1" x="8.42" y="5.05" width="0.84" height="0.84"/><rect class="cls-1" x="15.16" y="6.74" width="0.84" height="0.84"/><rect class="cls-1" x="16" y="6.74" width="0.84" height="0.84"/><rect class="cls-1" x="13.47" y="6.74" width="0.84" height="0.84"/><rect class="cls-1" x="14.32" y="6.74" width="0.84" height="0.84"/><rect class="cls-1" x="11.79" y="6.74" width="0.84" height="0.84"/><rect class="cls-1" x="12.63" y="6.74" width="0.84" height="0.84"/><rect class="cls-1" x="10.11" y="6.74" width="0.84" height="0.84"/><rect class="cls-1" x="10.95" y="6.74" width="0.84" height="0.84"/><rect class="cls-1" x="9.26" y="6.74" width="0.84" height="0.84"/><rect class="cls-1" y="6.74" width="0.84" height="0.84"/><rect class="cls-1" x="0.84" y="6.74" width="0.84" height="0.84"/><rect class="cls-1" x="1.68" y="6.74" width="0.84" height="0.84"/><rect class="cls-1" x="2.53" y="6.74" width="0.84" height="0.84"/><rect class="cls-1" x="3.37" y="6.74" width="0.84" height="0.84"/><rect class="cls-1" x="4.21" y="6.74" width="0.84" height="0.84"/><rect class="cls-1" x="5.05" y="6.74" width="0.84" height="0.84"/><rect class="cls-1" x="5.89" y="6.74" width="0.84" height="0.84"/><rect class="cls-1" x="6.74" y="6.74" width="0.84" height="0.84"/><rect class="cls-1" x="7.58" y="6.74" width="0.84" height="0.84"/><rect class="cls-1" x="8.42" y="6.74" width="0.84" height="0.84"/><rect class="cls-1" x="16.84" y="1.68" width="0.84" height="0.84"/><rect class="cls-1" x="17.68" y="1.68" width="0.84" height="0.84"/><rect class="cls-1" x="15.16" y="1.68" width="0.84" height="0.84"/><rect class="cls-1" x="16" y="1.68" width="0.84" height="0.84"/><rect class="cls-1" x="13.47" y="1.68" width="0.84" height="0.84"/><rect class="cls-1" x="14.32" y="1.68" width="0.84" height="0.84"/><rect class="cls-1" x="11.79" y="1.68" width="0.84" height="0.84"/><rect class="cls-1" x="12.63" y="1.68" width="0.84" height="0.84"/><rect class="cls-1" x="10.11" y="1.68" width="0.84" height="0.84"/><rect class="cls-1" x="10.95" y="1.68" width="0.84" height="0.84"/><rect class="cls-1" x="9.26" y="1.68" width="0.84" height="0.84"/><rect class="cls-1" y="1.68" width="0.84" height="0.84"/><rect class="cls-1" x="0.84" y="1.68" width="0.84" height="0.84"/><rect class="cls-1" x="10.11" y="13.47" width="0.84" height="0.84"/><rect class="cls-1" x="10.95" y="13.47" width="0.84" height="0.84"/><rect class="cls-1" x="9.26" y="13.47" width="0.84" height="0.84"/><rect class="cls-1" x="2.53" y="13.47" width="0.84" height="0.84"/><rect class="cls-1" x="3.37" y="13.47" width="0.84" height="0.84"/><rect class="cls-1" x="4.21" y="13.47" width="0.84" height="0.84"/><rect class="cls-1" x="5.05" y="13.47" width="0.84" height="0.84"/><rect class="cls-1" x="5.89" y="13.47" width="0.84" height="0.84"/><rect class="cls-1" x="6.74" y="13.47" width="0.84" height="0.84"/><rect class="cls-1" x="7.58" y="13.47" width="0.84" height="0.84"/><rect class="cls-1" x="8.42" y="13.47" width="0.84" height="0.84"/><rect class="cls-1" x="13.47" y="10.11" width="0.84" height="0.84"/><rect class="cls-1" x="14.32" y="10.11" width="0.84" height="0.84"/><rect class="cls-1" x="11.79" y="10.11" width="0.84" height="0.84"/><rect class="cls-1" x="12.63" y="10.11" width="0.84" height="0.84"/><rect class="cls-1" x="10.11" y="10.11" width="0.84" height="0.84"/><rect class="cls-1" x="10.95" y="10.11" width="0.84" height="0.84"/><rect class="cls-1" x="9.26" y="10.11" width="0.84" height="0.84"/><rect class="cls-1" x="2.53" y="10.11" width="0.84" height="0.84"/><rect class="cls-1" x="3.37" y="10.11" width="0.84" height="0.84"/><rect class="cls-1" x="4.21" y="10.11" width="0.84" height="0.84"/><rect class="cls-1" x="5.05" y="10.11" width="0.84" height="0.84"/><rect class="cls-1" x="5.89" y="10.11" width="0.84" height="0.84"/><rect class="cls-1" x="6.74" y="10.11" width="0.84" height="0.84"/><rect class="cls-1" x="7.58" y="10.11" width="0.84" height="0.84"/><rect class="cls-1" x="8.42" y="10.11" width="0.84" height="0.84"/><rect class="cls-1" x="16.84" y="3.37" width="0.84" height="0.84"/><rect class="cls-1" x="17.68" y="3.37" width="0.84" height="0.84"/><rect class="cls-1" x="15.16" y="3.37" width="0.84" height="0.84"/><rect class="cls-1" x="16" y="3.37" width="0.84" height="0.84"/><rect class="cls-1" x="13.47" y="3.37" width="0.84" height="0.84"/><rect class="cls-1" x="14.32" y="3.37" width="0.84" height="0.84"/><rect class="cls-1" x="11.79" y="3.37" width="0.84" height="0.84"/><rect class="cls-1" x="12.63" y="3.37" width="0.84" height="0.84"/><rect class="cls-1" x="10.11" y="3.37" width="0.84" height="0.84"/><rect class="cls-1" x="10.95" y="3.37" width="0.84" height="0.84"/><rect class="cls-1" x="9.26" y="3.37" width="0.84" height="0.84"/><rect class="cls-1" x="0.84" y="3.37" width="0.84" height="0.84"/><rect class="cls-1" x="1.68" y="3.37" width="0.84" height="0.84"/><rect class="cls-1" x="2.53" y="3.37" width="0.84" height="0.84"/><rect class="cls-1" x="13.47" width="0.84" height="0.84"/><rect class="cls-1" x="11.79" width="0.84" height="0.84"/><rect class="cls-1" x="12.63" width="0.84" height="0.84"/><rect class="cls-1" x="9.26" y="14.32" width="0.84" height="0.84"/><rect class="cls-1" y="14.32" width="0.84" height="0.84"/><rect class="cls-1" x="0.84" y="14.32" width="0.84" height="0.84"/><rect class="cls-1" x="1.68" y="14.32" width="0.84" height="0.84"/><rect class="cls-1" x="2.53" y="14.32" width="0.84" height="0.84"/><rect class="cls-1" x="3.37" y="14.32" width="0.84" height="0.84"/><rect class="cls-1" x="4.21" y="14.32" width="0.84" height="0.84"/><rect class="cls-1" x="5.05" y="14.32" width="0.84" height="0.84"/><rect class="cls-1" x="5.89" y="14.32" width="0.84" height="0.84"/><rect class="cls-1" x="6.74" y="14.32" width="0.84" height="0.84"/><rect class="cls-1" x="7.58" y="14.32" width="0.84" height="0.84"/><rect class="cls-1" x="8.42" y="14.32" width="0.84" height="0.84"/><rect class="cls-1" x="9.26" y="10.95" width="0.84" height="0.84"/><rect class="cls-1" x="2.53" y="10.95" width="0.84" height="0.84"/><rect class="cls-1" x="3.37" y="10.95" width="0.84" height="0.84"/><rect class="cls-1" x="4.21" y="10.95" width="0.84" height="0.84"/><rect class="cls-1" x="5.05" y="10.95" width="0.84" height="0.84"/><rect class="cls-1" x="5.89" y="10.95" width="0.84" height="0.84"/><rect class="cls-1" x="6.74" y="10.95" width="0.84" height="0.84"/><rect class="cls-1" x="7.58" y="10.95" width="0.84" height="0.84"/><rect class="cls-1" x="8.42" y="10.95" width="0.84" height="0.84"/><rect class="cls-1" x="13.47" y="10.95" width="0.84" height="0.84"/><rect class="cls-1" x="11.79" y="10.95" width="0.84" height="0.84"/><rect class="cls-1" x="12.63" y="10.95" width="0.84" height="0.84"/><rect class="cls-1" x="10.11" y="10.95" width="0.84" height="0.84"/><rect class="cls-1" x="10.95" y="10.95" width="0.84" height="0.84"/><rect class="cls-1" x="13.47" y="8.42" width="0.84" height="0.84"/><rect class="cls-1" x="14.32" y="8.42" width="0.84" height="0.84"/><rect class="cls-1" x="11.79" y="8.42" width="0.84" height="0.84"/><rect class="cls-1" x="12.63" y="8.42" width="0.84" height="0.84"/><rect class="cls-1" x="10.11" y="8.42" width="0.84" height="0.84"/><rect class="cls-1" x="10.95" y="8.42" width="0.84" height="0.84"/><rect class="cls-1" x="9.26" y="8.42" width="0.84" height="0.84"/><rect class="cls-1" x="2.53" y="8.42" width="0.84" height="0.84"/><rect class="cls-1" x="3.37" y="8.42" width="0.84" height="0.84"/><rect class="cls-1" x="4.21" y="8.42" width="0.84" height="0.84"/><rect class="cls-1" x="5.05" y="8.42" width="0.84" height="0.84"/><rect class="cls-1" x="5.89" y="8.42" width="0.84" height="0.84"/><rect class="cls-1" x="6.74" y="8.42" width="0.84" height="0.84"/><rect class="cls-1" x="7.58" y="8.42" width="0.84" height="0.84"/><rect class="cls-1" x="8.42" y="8.42" width="0.84" height="0.84"/><rect class="cls-1" x="15.16" y="5.89" width="0.84" height="0.84"/><rect class="cls-1" x="16" y="5.89" width="0.84" height="0.84"/><rect class="cls-1" x="13.47" y="5.89" width="0.84" height="0.84"/><rect class="cls-1" x="14.32" y="5.89" width="0.84" height="0.84"/><rect class="cls-1" x="11.79" y="5.89" width="0.84" height="0.84"/><rect class="cls-1" x="12.63" y="5.89" width="0.84" height="0.84"/><rect class="cls-1" x="10.11" y="5.89" width="0.84" height="0.84"/><rect class="cls-1" x="10.95" y="5.89" width="0.84" height="0.84"/><rect class="cls-1" x="9.26" y="5.89" width="0.84" height="0.84"/><rect class="cls-1" y="5.89" width="0.84" height="0.84"/><rect class="cls-1" x="0.84" y="5.89" width="0.84" height="0.84"/><rect class="cls-1" x="1.68" y="5.89" width="0.84" height="0.84"/><rect class="cls-1" x="2.53" y="5.89" width="0.84" height="0.84"/><rect class="cls-1" x="3.37" y="5.89" width="0.84" height="0.84"/><rect class="cls-1" x="4.21" y="5.89" width="0.84" height="0.84"/><rect class="cls-1" x="5.05" y="5.89" width="0.84" height="0.84"/><rect class="cls-1" x="5.89" y="5.89" width="0.84" height="0.84"/><rect class="cls-1" x="6.74" y="5.89" width="0.84" height="0.84"/><rect class="cls-1" x="7.58" y="5.89" width="0.84" height="0.84"/><rect class="cls-1" x="8.42" y="5.89" width="0.84" height="0.84"/><rect class="cls-1" x="3.37" y="15.16" width="0.84" height="0.84"/><rect class="cls-1" x="4.21" y="15.16" width="0.84" height="0.84"/><rect class="cls-1" x="5.05" y="15.16" width="0.84" height="0.84"/><rect class="cls-1" x="5.89" y="15.16" width="0.84" height="0.84"/><rect class="cls-1" x="6.74" y="15.16" width="0.84" height="0.84"/><rect class="cls-1" x="15.16" y="7.58" width="0.84" height="0.84"/><rect class="cls-1" x="13.47" y="7.58" width="0.84" height="0.84"/><rect class="cls-1" x="14.32" y="7.58" width="0.84" height="0.84"/><rect class="cls-1" x="11.79" y="7.58" width="0.84" height="0.84"/><rect class="cls-1" x="12.63" y="7.58" width="0.84" height="0.84"/><rect class="cls-1" x="10.11" y="7.58" width="0.84" height="0.84"/><rect class="cls-1" x="10.95" y="7.58" width="0.84" height="0.84"/><rect class="cls-1" x="9.26" y="7.58" width="0.84" height="0.84"/><rect class="cls-1" x="0.84" y="7.58" width="0.84" height="0.84"/><rect class="cls-1" x="1.68" y="7.58" width="0.84" height="0.84"/><rect class="cls-1" x="2.53" y="7.58" width="0.84" height="0.84"/><rect class="cls-1" x="3.37" y="7.58" width="0.84" height="0.84"/><rect class="cls-1" x="4.21" y="7.58" width="0.84" height="0.84"/><rect class="cls-1" x="5.05" y="7.58" width="0.84" height="0.84"/><rect class="cls-1" x="5.89" y="7.58" width="0.84" height="0.84"/><rect class="cls-1" x="6.74" y="7.58" width="0.84" height="0.84"/><rect class="cls-1" x="7.58" y="7.58" width="0.84" height="0.84"/><rect class="cls-1" x="8.42" y="7.58" width="0.84" height="0.84"/><rect class="cls-1" x="11.79" y="11.79" width="0.84" height="0.84"/><rect class="cls-1" x="12.63" y="11.79" width="0.84" height="0.84"/><rect class="cls-1" x="10.11" y="11.79" width="0.84" height="0.84"/><rect class="cls-1" x="10.95" y="11.79" width="0.84" height="0.84"/><rect class="cls-1" x="9.26" y="11.79" width="0.84" height="0.84"/><rect class="cls-1" x="5.89" y="11.79" width="0.84" height="0.84"/><rect class="cls-1" x="6.74" y="11.79" width="0.84" height="0.84"/><rect class="cls-1" x="7.58" y="11.79" width="0.84" height="0.84"/><rect class="cls-1" x="8.42" y="11.79" width="0.84" height="0.84"/><rect class="cls-1" x="15.16" y="2.53" width="0.84" height="0.84"/><rect class="cls-1" x="16" y="2.53" width="0.84" height="0.84"/><rect class="cls-1" x="13.47" y="2.53" width="0.84" height="0.84"/><rect class="cls-1" x="14.32" y="2.53" width="0.84" height="0.84"/><rect class="cls-1" x="11.79" y="2.53" width="0.84" height="0.84"/><rect class="cls-1" x="12.63" y="2.53" width="0.84" height="0.84"/><rect class="cls-1" x="10.11" y="2.53" width="0.84" height="0.84"/><rect class="cls-1" x="10.95" y="2.53" width="0.84" height="0.84"/><rect class="cls-1" x="9.26" y="2.53" width="0.84" height="0.84"/><rect class="cls-1" y="2.53" width="0.84" height="0.84"/><rect class="cls-1" x="0.84" y="2.53" width="0.84" height="0.84"/><rect class="cls-1" x="1.68" y="2.53" width="0.84" height="0.84"/><rect class="cls-1" x="15.16" y="4.21" width="0.84" height="0.84"/><rect class="cls-1" x="16" y="4.21" width="0.84" height="0.84"/><rect class="cls-1" x="13.47" y="4.21" width="0.84" height="0.84"/><rect class="cls-1" x="14.32" y="4.21" width="0.84" height="0.84"/><rect class="cls-1" x="11.79" y="4.21" width="0.84" height="0.84"/><rect class="cls-1" x="12.63" y="4.21" width="0.84" height="0.84"/><rect class="cls-1" x="10.11" y="4.21" width="0.84" height="0.84"/><rect class="cls-1" x="10.95" y="4.21" width="0.84" height="0.84"/><rect class="cls-1" x="9.26" y="4.21" width="0.84" height="0.84"/><rect class="cls-1" x="0.84" y="4.21" width="0.84" height="0.84"/><rect class="cls-1" x="1.68" y="4.21" width="0.84" height="0.84"/><rect class="cls-1" x="2.53" y="4.21" width="0.84" height="0.84"/><rect class="cls-1" x="3.37" y="4.21" width="0.84" height="0.84"/><rect class="cls-1" x="4.21" y="4.21" width="0.84" height="0.84"/><rect class="cls-1" x="5.05" y="4.21" width="0.84" height="0.84"/><rect class="cls-1" x="15.16" y="0.84" width="0.84" height="0.84"/><rect class="cls-1" x="13.47" y="0.84" width="0.84" height="0.84"/><rect class="cls-1" x="14.32" y="0.84" width="0.84" height="0.84"/><rect class="cls-1" x="11.79" y="0.84" width="0.84" height="0.84"/><rect class="cls-1" x="12.63" y="0.84" width="0.84" height="0.84"/><rect class="cls-1" x="10.11" y="0.84" width="0.84" height="0.84"/><rect class="cls-1" x="10.95" y="0.84" width="0.84" height="0.84"/><rect class="cls-1" y="0.84" width="0.84" height="0.84"/><rect class="cls-1" x="9.26" y="12.63" width="0.84" height="0.84"/><rect class="cls-1" x="4.21" y="12.63" width="0.84" height="0.84"/><rect class="cls-1" x="5.05" y="12.63" width="0.84" height="0.84"/><rect class="cls-1" x="5.89" y="12.63" width="0.84" height="0.84"/><rect class="cls-1" x="6.74" y="12.63" width="0.84" height="0.84"/><rect class="cls-1" x="7.58" y="12.63" width="0.84" height="0.84"/><rect class="cls-1" x="8.42" y="12.63" width="0.84" height="0.84"/><rect class="cls-1" x="11.79" y="12.63" width="0.84" height="0.84"/><rect class="cls-1" x="10.11" y="12.63" width="0.84" height="0.84"/><rect class="cls-1" x="10.95" y="12.63" width="0.84" height="0.84"/><rect class="cls-1" x="9.26" y="9.26" width="0.84" height="0.84"/><rect class="cls-1" x="3.37" y="9.26" width="0.84" height="0.84"/><rect class="cls-1" x="4.21" y="9.26" width="0.84" height="0.84"/><rect class="cls-1" x="5.05" y="9.26" width="0.84" height="0.84"/><rect class="cls-1" x="5.89" y="9.26" width="0.84" height="0.84"/><rect class="cls-1" x="6.74" y="9.26" width="0.84" height="0.84"/><rect class="cls-1" x="7.58" y="9.26" width="0.84" height="0.84"/><rect class="cls-1" x="8.42" y="9.26" width="0.84" height="0.84"/><rect class="cls-1" x="13.47" y="9.26" width="0.84" height="0.84"/><rect class="cls-1" x="14.32" y="9.26" width="0.84" height="0.84"/><rect class="cls-1" x="11.79" y="9.26" width="0.84" height="0.84"/><rect class="cls-1" x="12.63" y="9.26" width="0.84" height="0.84"/><rect class="cls-1" x="10.11" y="9.26" width="0.84" height="0.84"/><rect class="cls-1" x="10.95" y="9.26" width="0.84" height="0.84"/></g></g></svg>